<svg width="127" height="40" viewBox="0 0 127 40" fill="none" xmlns="http://www.w3.org/2000/svg">
<path d="M84.6288 25H83.2048L82.8688 20.024C82.7195 17.7947 82.6395 16.2587 82.6288 15.416L80.5168 23.752H79.1248L76.9168 15.416C76.9275 16.344 76.8688 17.8907 76.7408 20.056L76.4208 25H75.0128L75.8608 13.992H77.7968L79.8448 22.136L81.8128 13.992H83.7808L84.6288 25ZM92.0518 23.08C92.0518 23.4213 92.0998 23.6773 92.1958 23.848C92.2918 24.008 92.4411 24.1307 92.6438 24.216L92.3398 25.192C91.9238 25.128 91.5985 25 91.3638 24.808C91.1291 24.616 90.9638 24.3227 90.8678 23.928C90.3238 24.7813 89.5611 25.208 88.5798 25.208C87.8331 25.208 87.2411 24.9787 86.8038 24.52C86.3665 24.0507 86.1478 23.4267 86.1478 22.648C86.1478 21.752 86.4411 21.0693 87.0278 20.6C87.6145 20.1307 88.4518 19.896 89.5398 19.896H90.6278V19.176C90.6278 18.5893 90.5051 18.168 90.2598 17.912C90.0251 17.6453 89.6358 17.512 89.0918 17.512C88.5051 17.512 87.8225 17.6613 87.0438 17.96L86.6918 16.952C87.6305 16.568 88.5051 16.376 89.3158 16.376C91.1398 16.376 92.0518 17.288 92.0518 19.112V23.08ZM88.9158 24.12C89.6625 24.12 90.2331 23.6827 90.6278 22.808V20.824H89.6998C88.3131 20.824 87.6198 21.4053 87.6198 22.568C87.6198 23.0693 87.7318 23.4533 87.9558 23.72C88.1798 23.9867 88.4998 24.12 88.9158 24.12ZM100.552 20.536C100.552 20.76 100.541 21.0107 100.52 21.288H95.6236C95.6662 22.2693 95.8636 22.9787 96.2156 23.416C96.5676 23.8427 97.0476 24.056 97.6556 24.056C98.0396 24.056 98.3809 23.9973 98.6796 23.88C98.9889 23.7627 99.3089 23.5707 99.6396 23.304L100.28 24.152C99.4902 24.856 98.5942 25.208 97.5916 25.208C96.4929 25.208 95.6396 24.8293 95.0316 24.072C94.4342 23.304 94.1356 22.232 94.1356 20.856C94.1356 19.48 94.4236 18.392 94.9996 17.592C95.5756 16.7813 96.3756 16.376 97.3996 16.376C98.4129 16.376 99.1916 16.7387 99.7356 17.464C100.28 18.1787 100.552 19.2027 100.552 20.536ZM99.1596 20.104C99.1596 18.344 98.5782 17.464 97.4156 17.464C96.8822 17.464 96.4609 17.688 96.1516 18.136C95.8422 18.5733 95.6662 19.288 95.6236 20.28H99.1596V20.104ZM104.73 16.376C105.7 16.376 106.564 16.696 107.322 17.336L106.714 18.184C106.372 17.9493 106.052 17.7733 105.754 17.656C105.455 17.5387 105.14 17.48 104.81 17.48C104.372 17.48 104.026 17.5867 103.77 17.8C103.524 18.0027 103.402 18.2853 103.402 18.648C103.402 19 103.519 19.2773 103.754 19.48C103.999 19.6827 104.458 19.8907 105.13 20.104C105.972 20.3707 106.586 20.696 106.97 21.08C107.354 21.464 107.546 21.992 107.546 22.664C107.546 23.4533 107.258 24.0773 106.682 24.536C106.106 24.984 105.386 25.208 104.522 25.208C103.38 25.208 102.415 24.8293 101.626 24.072L102.362 23.272C103.034 23.816 103.743 24.088 104.49 24.088C104.959 24.088 105.338 23.9707 105.626 23.736C105.914 23.5013 106.058 23.176 106.058 22.76C106.058 22.4613 106.004 22.2213 105.898 22.04C105.802 21.8587 105.62 21.6987 105.354 21.56C105.098 21.4107 104.719 21.256 104.218 21.096C103.418 20.8293 102.842 20.5093 102.49 20.136C102.138 19.7627 101.962 19.288 101.962 18.712C101.962 18.264 102.079 17.864 102.314 17.512C102.548 17.16 102.874 16.8827 103.29 16.68C103.706 16.4773 104.186 16.376 104.73 16.376ZM113.366 24.632C112.833 25.016 112.241 25.208 111.59 25.208C110.907 25.208 110.379 25.0107 110.006 24.616C109.643 24.2213 109.462 23.6667 109.462 22.952V17.672H108.262V16.584H109.462V14.648L110.902 14.472V16.584H112.758L112.598 17.672H110.902V22.936C110.902 23.6613 111.206 24.024 111.814 24.024C111.995 24.024 112.161 23.9973 112.31 23.944C112.47 23.8907 112.646 23.8107 112.838 23.704L113.366 24.632ZM118.072 16.392C118.35 16.392 118.59 16.424 118.792 16.488L118.552 17.88C118.35 17.816 118.131 17.784 117.896 17.784C117.427 17.784 117.043 17.9707 116.744 18.344C116.456 18.7173 116.227 19.288 116.056 20.056V25H114.616V16.584H115.864L115.976 18.248C116.392 17.0107 117.091 16.392 118.072 16.392ZM122.669 16.376C123.747 16.376 124.584 16.7547 125.181 17.512C125.779 18.2693 126.077 19.3573 126.077 20.776C126.077 22.1413 125.773 23.224 125.165 24.024C124.557 24.8133 123.72 25.208 122.653 25.208C121.576 25.208 120.733 24.8187 120.125 24.04C119.528 23.2613 119.229 22.1787 119.229 20.792C119.229 19.3947 119.533 18.312 120.141 17.544C120.749 16.7653 121.592 16.376 122.669 16.376ZM122.669 17.528C122.04 17.528 121.56 17.7947 121.229 18.328C120.899 18.8507 120.733 19.672 120.733 20.792C120.733 22.9787 121.373 24.072 122.653 24.072C123.933 24.072 124.573 22.9733 124.573 20.776C124.573 19.656 124.413 18.8347 124.093 18.312C123.773 17.7893 123.299 17.528 122.669 17.528Z" fill="#464646"/>
<path d="M41.0754 4.29163H23.6113V35.7083H41.0754V4.29163Z" fill="#7375CF"/>
<path d="M24.7229 20.0042C24.7193 16.978 25.4036 13.9907 26.7239 11.2684C28.0442 8.54615 29.966 6.16035 32.3437 4.29167C29.3978 1.96752 25.8578 0.520522 22.1288 0.116261C18.3999 -0.288 14.6326 0.3668 11.2579 2.00574C7.88334 3.64469 5.03776 6.20157 3.04682 9.38381C1.05588 12.566 0 16.2451 0 20C0 23.7549 1.05588 27.434 3.04682 30.6162C5.03776 33.7984 7.88334 36.3553 11.2579 37.9942C14.6326 39.6332 18.3999 40.288 22.1288 39.8837C25.8578 39.4795 29.3978 38.0325 32.3437 35.7083C29.9671 33.8405 28.046 31.456 26.7257 28.7353C25.4055 26.0146 24.7206 23.0289 24.7229 20.0042Z" fill="#EB001B"/>
<path d="M64.6373 20.0042C64.6299 23.7503 63.5717 27.4191 61.5833 30.5925C59.5948 33.766 56.7561 36.3166 53.3903 37.9537C50.0246 39.5909 46.2672 40.2488 42.5462 39.8526C38.8252 39.4563 35.2902 38.0218 32.3438 35.7125C34.7163 33.8407 36.634 31.4546 37.9525 28.7338C39.271 26.013 39.956 23.0283 39.956 20.0042C39.956 16.9801 39.271 13.9954 37.9525 11.2746C36.634 8.55375 34.7163 6.16768 32.3438 4.29586C35.2902 1.98652 38.8252 0.552031 42.5462 0.155786C46.2672 -0.240458 50.0246 0.417482 53.3903 2.05465C56.7561 3.69182 59.5948 6.24241 61.5833 9.41587C63.5717 12.5893 64.6299 16.2581 64.6373 20.0042Z" fill="#00A2E5"/>
</svg>
