<svg width="179" height="54" viewBox="0 0 179 54" fill="none" xmlns="http://www.w3.org/2000/svg">
<path d="M70.768 32L70.032 29.2H66.336L65.6 32H64.112L67.296 20.992H69.12L72.304 32H70.768ZM66.64 28.032H69.728L68.192 22.176L66.64 28.032ZM81.4939 23.376C82.1019 23.376 82.5872 23.6053 82.9499 24.064C83.3125 24.512 83.4939 25.1147 83.4939 25.872V32H82.0699V26.032C82.0699 25.008 81.7392 24.496 81.0779 24.496C80.4379 24.496 79.8512 24.9867 79.3179 25.968V32H77.8939V26.032C77.8939 25.008 77.5632 24.496 76.9019 24.496C76.2512 24.496 75.6645 24.9867 75.1419 25.968V32H73.7179V23.584H74.9659L75.0779 24.816C75.6965 23.856 76.4432 23.376 77.3179 23.376C77.7765 23.376 78.1659 23.5093 78.4859 23.776C78.8059 24.0427 79.0352 24.4213 79.1739 24.912C79.8245 23.888 80.5979 23.376 81.4939 23.376ZM91.9188 27.536C91.9188 27.76 91.9081 28.0107 91.8868 28.288H86.9908C87.0334 29.2693 87.2308 29.9787 87.5828 30.416C87.9348 30.8427 88.4148 31.056 89.0228 31.056C89.4068 31.056 89.7481 30.9973 90.0468 30.88C90.3561 30.7627 90.6761 30.5707 91.0068 30.304L91.6468 31.152C90.8574 31.856 89.9614 32.208 88.9588 32.208C87.8601 32.208 87.0068 31.8293 86.3988 31.072C85.8014 30.304 85.5028 29.232 85.5028 27.856C85.5028 26.48 85.7908 25.392 86.3668 24.592C86.9428 23.7813 87.7428 23.376 88.7668 23.376C89.7801 23.376 90.5588 23.7387 91.1028 24.464C91.6468 25.1787 91.9188 26.2027 91.9188 27.536ZM90.5268 27.104C90.5268 25.344 89.9454 24.464 88.7828 24.464C88.2494 24.464 87.8281 24.688 87.5188 25.136C87.2094 25.5733 87.0334 26.288 86.9908 27.28H90.5268V27.104ZM97.377 23.392C97.6543 23.392 97.8943 23.424 98.097 23.488L97.857 24.88C97.6543 24.816 97.4357 24.784 97.201 24.784C96.7317 24.784 96.3477 24.9707 96.049 25.344C95.761 25.7173 95.5317 26.288 95.361 27.056V32H93.921V23.584H95.169L95.281 25.248C95.697 24.0107 96.3957 23.392 97.377 23.392ZM100.939 23.584V32H99.4991V23.584H100.939ZM100.219 19.616C100.496 19.616 100.72 19.7067 100.891 19.888C101.072 20.0693 101.163 20.2933 101.163 20.56C101.163 20.8267 101.078 21.0507 100.907 21.232C100.736 21.4027 100.507 21.488 100.219 21.488C99.9418 21.488 99.7125 21.4027 99.5311 21.232C99.3605 21.0507 99.2751 20.8267 99.2751 20.56C99.2751 20.2933 99.3605 20.0693 99.5311 19.888C99.7125 19.7067 99.9418 19.616 100.219 19.616ZM106.458 23.376C106.906 23.376 107.317 23.4507 107.69 23.6C108.064 23.7493 108.421 23.9787 108.762 24.288L108.122 25.152C107.866 24.9493 107.61 24.8 107.354 24.704C107.098 24.5973 106.821 24.544 106.522 24.544C105.893 24.544 105.402 24.8107 105.05 25.344C104.709 25.8773 104.538 26.7093 104.538 27.84C104.538 29.952 105.2 31.008 106.522 31.008C106.821 31.008 107.093 30.96 107.338 30.864C107.584 30.7573 107.845 30.6027 108.122 30.4L108.794 31.28C108.112 31.8987 107.338 32.208 106.474 32.208C105.397 32.208 104.549 31.8347 103.93 31.088C103.322 30.3413 103.018 29.264 103.018 27.856C103.018 26.9387 103.157 26.144 103.434 25.472C103.722 24.8 104.122 24.2827 104.634 23.92C105.157 23.5573 105.765 23.376 106.458 23.376ZM115.466 30.08C115.466 30.4213 115.514 30.6773 115.61 30.848C115.706 31.008 115.855 31.1307 116.058 31.216L115.754 32.192C115.338 32.128 115.013 32 114.778 31.808C114.543 31.616 114.378 31.3227 114.282 30.928C113.738 31.7813 112.975 32.208 111.994 32.208C111.247 32.208 110.655 31.9787 110.218 31.52C109.781 31.0507 109.562 30.4267 109.562 29.648C109.562 28.752 109.855 28.0693 110.442 27.6C111.029 27.1307 111.866 26.896 112.954 26.896H114.042V26.176C114.042 25.5893 113.919 25.168 113.674 24.912C113.439 24.6453 113.05 24.512 112.506 24.512C111.919 24.512 111.237 24.6613 110.458 24.96L110.106 23.952C111.045 23.568 111.919 23.376 112.73 23.376C114.554 23.376 115.466 24.288 115.466 26.112V30.08ZM112.33 31.12C113.077 31.12 113.647 30.6827 114.042 29.808V27.824H113.114C111.727 27.824 111.034 28.4053 111.034 29.568C111.034 30.0693 111.146 30.4533 111.37 30.72C111.594 30.9867 111.914 31.12 112.33 31.12ZM121.822 23.376C122.494 23.376 123.016 23.6 123.39 24.048C123.774 24.4853 123.966 25.0933 123.966 25.872V32H122.526V26.048C122.526 25.504 122.435 25.1147 122.254 24.88C122.072 24.6347 121.795 24.512 121.422 24.512C120.718 24.512 120.078 25.0133 119.502 26.016V32H118.062V23.584H119.31L119.422 24.832C120.072 23.8613 120.872 23.376 121.822 23.376ZM135.801 20.992L135.625 22.144H131.817V25.776H135.129V26.928H131.817V30.832H135.849V32H130.329V20.992H135.801ZM140.821 27.488L143.413 32H141.829L139.941 28.352L138.069 32H136.533L139.125 27.552L136.821 23.584H138.389L139.973 26.72L141.557 23.584H143.077L140.821 27.488ZM148.412 23.376C149.33 23.376 150.018 23.7547 150.476 24.512C150.946 25.2693 151.18 26.352 151.18 27.76C151.18 29.1253 150.919 30.208 150.396 31.008C149.884 31.808 149.164 32.208 148.236 32.208C147.404 32.208 146.732 31.872 146.22 31.2V35.2L144.78 35.376V23.584H146.044L146.124 24.72C146.7 23.824 147.463 23.376 148.412 23.376ZM147.9 31.056C149.084 31.056 149.676 29.9627 149.676 27.776C149.676 26.6347 149.538 25.808 149.26 25.296C148.994 24.7733 148.583 24.512 148.028 24.512C147.655 24.512 147.324 24.624 147.036 24.848C146.748 25.072 146.476 25.376 146.22 25.76V30.016C146.658 30.7093 147.218 31.056 147.9 31.056ZM156.752 23.392C157.029 23.392 157.269 23.424 157.472 23.488L157.232 24.88C157.029 24.816 156.811 24.784 156.576 24.784C156.107 24.784 155.723 24.9707 155.424 25.344C155.136 25.7173 154.907 26.288 154.736 27.056V32H153.296V23.584H154.544L154.656 25.248C155.072 24.0107 155.771 23.392 156.752 23.392ZM164.325 27.536C164.325 27.76 164.314 28.0107 164.293 28.288H159.397C159.44 29.2693 159.637 29.9787 159.989 30.416C160.341 30.8427 160.821 31.056 161.429 31.056C161.813 31.056 162.154 30.9973 162.453 30.88C162.762 30.7627 163.082 30.5707 163.413 30.304L164.053 31.152C163.264 31.856 162.368 32.208 161.365 32.208C160.266 32.208 159.413 31.8293 158.805 31.072C158.208 30.304 157.909 29.232 157.909 27.856C157.909 26.48 158.197 25.392 158.773 24.592C159.349 23.7813 160.149 23.376 161.173 23.376C162.186 23.376 162.965 23.7387 163.509 24.464C164.053 25.1787 164.325 26.2027 164.325 27.536ZM162.933 27.104C162.933 25.344 162.352 24.464 161.189 24.464C160.656 24.464 160.234 24.688 159.925 25.136C159.616 25.5733 159.44 26.288 159.397 27.28H162.933V27.104ZM168.503 23.376C169.474 23.376 170.338 23.696 171.095 24.336L170.487 25.184C170.146 24.9493 169.826 24.7733 169.527 24.656C169.229 24.5387 168.914 24.48 168.583 24.48C168.146 24.48 167.799 24.5867 167.543 24.8C167.298 25.0027 167.175 25.2853 167.175 25.648C167.175 26 167.293 26.2773 167.527 26.48C167.773 26.6827 168.231 26.8907 168.903 27.104C169.746 27.3707 170.359 27.696 170.743 28.08C171.127 28.464 171.319 28.992 171.319 29.664C171.319 30.4533 171.031 31.0773 170.455 31.536C169.879 31.984 169.159 32.208 168.295 32.208C167.154 32.208 166.189 31.8293 165.399 31.072L166.135 30.272C166.807 30.816 167.517 31.088 168.263 31.088C168.733 31.088 169.111 30.9707 169.399 30.736C169.687 30.5013 169.831 30.176 169.831 29.76C169.831 29.4613 169.778 29.2213 169.671 29.04C169.575 28.8587 169.394 28.6987 169.127 28.56C168.871 28.4107 168.493 28.256 167.991 28.096C167.191 27.8293 166.615 27.5093 166.263 27.136C165.911 26.7627 165.735 26.288 165.735 25.712C165.735 25.264 165.853 24.864 166.087 24.512C166.322 24.16 166.647 23.8827 167.063 23.68C167.479 23.4773 167.959 23.376 168.503 23.376ZM175.175 23.376C176.146 23.376 177.01 23.696 177.767 24.336L177.159 25.184C176.818 24.9493 176.498 24.7733 176.199 24.656C175.9 24.5387 175.586 24.48 175.255 24.48C174.818 24.48 174.471 24.5867 174.215 24.8C173.97 25.0027 173.847 25.2853 173.847 25.648C173.847 26 173.964 26.2773 174.199 26.48C174.444 26.6827 174.903 26.8907 175.575 27.104C176.418 27.3707 177.031 27.696 177.415 28.08C177.799 28.464 177.991 28.992 177.991 29.664C177.991 30.4533 177.703 31.0773 177.127 31.536C176.551 31.984 175.831 32.208 174.967 32.208C173.826 32.208 172.86 31.8293 172.071 31.072L172.807 30.272C173.479 30.816 174.188 31.088 174.935 31.088C175.404 31.088 175.783 30.9707 176.071 30.736C176.359 30.5013 176.503 30.176 176.503 29.76C176.503 29.4613 176.45 29.2213 176.343 29.04C176.247 28.8587 176.066 28.6987 175.799 28.56C175.543 28.4107 175.164 28.256 174.663 28.096C173.863 27.8293 173.287 27.5093 172.935 27.136C172.583 26.7627 172.407 26.288 172.407 25.712C172.407 25.264 172.524 24.864 172.759 24.512C172.994 24.16 173.319 23.8827 173.735 23.68C174.151 23.4773 174.631 23.376 175.175 23.376Z" fill="#464646"/>
<g clip-path="url(#clip0_1000_325)">
<path d="M53.88 53.88H0V0H53.88V53.88Z" fill="white"/>
<path d="M53.88 29.184V0.0240479H0V53.904H53.88V38.1841C53.76 38.1841 53.88 29.184 53.88 29.184Z" fill="#006FCF"/>
<path d="M47.28 26.184H51.36V16.704H46.92V18.024L46.08 16.704H42.24V18.384L41.52 16.704H34.44C34.2 16.704 33.96 16.824 33.72 16.824C33.48 16.824 33.36 16.944 33.12 17.064C32.88 17.184 32.76 17.184 32.52 17.304V16.704H12.24L11.64 18.264L11.04 16.704H6.24V18.384L5.52 16.704H1.68L0 20.784V26.184H2.76L3.24 24.864H4.2L4.68 26.184H25.8V24.984L26.64 26.184H32.52V25.464C32.64 25.584 32.88 25.584 33 25.704C33.12 25.824 33.36 25.824 33.48 25.944C33.72 26.064 33.96 26.064 34.2 26.064H38.52L39 24.744H39.96L40.44 26.064H46.32V24.864L47.28 26.184ZM53.88 38.184V29.304H20.88L20.04 30.504L19.2 29.304H9.6V38.784H19.2L20.04 37.584L20.88 38.784H26.88V36.744H26.64C27.48 36.744 28.2 36.624 28.8 36.384V38.904H33.12V37.704L33.96 38.904H51.84C52.56 38.664 53.28 38.544 53.88 38.184Z" fill="white"/>
<path d="M51.84 35.904H48.6V37.224H51.72C53.04 37.224 53.88 36.384 53.88 35.184C53.88 33.984 53.16 33.384 51.96 33.384H50.52C50.16 33.384 49.92 33.144 49.92 32.784C49.92 32.424 50.16 32.184 50.52 32.184H53.28L53.88 30.864H50.64C49.32 30.864 48.48 31.704 48.48 32.784C48.48 33.984 49.2 34.584 50.4 34.584H51.84C52.2 34.584 52.44 34.824 52.44 35.184C52.56 35.664 52.32 35.904 51.84 35.904ZM45.96 35.904H42.72V37.224H45.84C47.16 37.224 48 36.384 48 35.184C48 33.984 47.28 33.384 46.08 33.384H44.64C44.28 33.384 44.04 33.144 44.04 32.784C44.04 32.424 44.28 32.184 44.64 32.184H47.4L48 30.864H44.76C43.44 30.864 42.6 31.704 42.6 32.784C42.6 33.984 43.32 34.584 44.52 34.584H45.96C46.32 34.584 46.56 34.824 46.56 35.184C46.68 35.664 46.32 35.904 45.96 35.904ZM41.76 32.064V30.744H36.72V37.104H41.76V35.784H38.16V34.464H41.64V33.144H38.16V31.944H41.76V32.064ZM33.6 32.064C34.2 32.064 34.44 32.424 34.44 32.784C34.44 33.144 34.2 33.504 33.6 33.504H31.8V31.944L33.6 32.064ZM31.8 34.824H32.52L34.44 37.104H36.24L34.08 34.704C35.16 34.464 35.76 33.744 35.76 32.784C35.76 31.584 34.92 30.744 33.6 30.744H30.24V37.104H31.68L31.8 34.824ZM27.96 32.904C27.96 33.384 27.72 33.744 27.12 33.744H25.2V32.064H27C27.6 32.064 27.96 32.424 27.96 32.904ZM23.76 30.744V37.104H25.2V34.944H27.12C28.44 34.944 29.4 34.104 29.4 32.784C29.4 31.584 28.56 30.624 27.24 30.624L23.76 30.744ZM21.6 37.104H23.4L20.88 33.864L23.4 30.744H21.6L20.04 32.784L18.48 30.744H16.68L19.2 33.864L16.68 36.984H18.48L20.04 34.944L21.6 37.104ZM16.2 32.064V30.744H11.16V37.104H16.2V35.784H12.6V34.464H16.08V33.144H12.6V31.944H16.2V32.064ZM45.36 20.784L47.88 24.624H49.68V18.264H48.24V22.464L47.88 21.864L45.6 18.264H43.68V24.624H45.12V20.304L45.36 20.784ZM39.12 20.664L39.6 19.344L40.08 20.664L40.68 22.104H38.52L39.12 20.664ZM41.64 24.624H43.2L40.44 18.264H38.52L35.76 24.624H37.32L37.92 23.304H41.04L41.64 24.624ZM34.92 24.624L35.52 23.304H35.16C34.08 23.304 33.48 22.584 33.48 21.504V21.384C33.48 20.304 34.08 19.584 35.16 19.584H36.72V18.264H35.04C33.12 18.264 32.04 19.584 32.04 21.384V21.504C32.04 23.424 33.12 24.624 34.92 24.624ZM29.52 24.624H30.96V18.384H29.52V24.624ZM26.4 19.584C27 19.584 27.24 19.944 27.24 20.304C27.24 20.664 27 21.024 26.4 21.024H24.6V19.464L26.4 19.584ZM24.6 22.344H25.32L27.24 24.624H29.04L26.88 22.224C27.96 21.984 28.56 21.264 28.56 20.304C28.56 19.104 27.72 18.264 26.4 18.264H23.04V24.624H24.48L24.6 22.344ZM21.96 19.584V18.264H16.92V24.624H21.96V23.304H18.36V21.984H21.84V20.664H18.36V19.464H21.96V19.584ZM11.04 24.624H12.36L14.16 19.464V24.624H15.6V18.264H13.2L11.76 22.584L10.32 18.264H7.92V24.624H9.36V19.464L11.04 24.624ZM3.24 20.664L3.72 19.344L4.2 20.664L4.8 22.104H2.64L3.24 20.664ZM5.76 24.624H7.32L4.56 18.264H2.76L0 24.624H1.56L2.16 23.304H5.28L5.76 24.624Z" fill="#006FCF"/>
</g>
<defs>
<clipPath id="clip0_1000_325">
<rect width="54" height="54" fill="white"/>
</clipPath>
</defs>
</svg>
