<svg width="78" height="20" viewBox="0 0 78 20" fill="none" xmlns="http://www.w3.org/2000/svg">
<path d="M45.3212 14H44.2532L44.0012 10.268C43.8892 8.596 43.8292 7.444 43.8212 6.812L42.2372 13.064H41.1932L39.5372 6.812C39.5452 7.508 39.5012 8.668 39.4052 10.292L39.1652 14H38.1092L38.7452 5.744H40.1972L41.7332 11.852L43.2092 5.744H44.6852L45.3212 14ZM50.8885 12.56C50.8885 12.816 50.9245 13.008 50.9965 13.136C51.0685 13.256 51.1805 13.348 51.3325 13.412L51.1045 14.144C50.7925 14.096 50.5485 14 50.3725 13.856C50.1965 13.712 50.0725 13.492 50.0005 13.196C49.5925 13.836 49.0205 14.156 48.2845 14.156C47.7245 14.156 47.2805 13.984 46.9525 13.64C46.6245 13.288 46.4605 12.82 46.4605 12.236C46.4605 11.564 46.6805 11.052 47.1205 10.7C47.5605 10.348 48.1885 10.172 49.0045 10.172H49.8205V9.632C49.8205 9.192 49.7285 8.876 49.5445 8.684C49.3685 8.484 49.0765 8.384 48.6685 8.384C48.2285 8.384 47.7165 8.496 47.1325 8.72L46.8685 7.964C47.5725 7.676 48.2285 7.532 48.8365 7.532C50.2045 7.532 50.8885 8.216 50.8885 9.584V12.56ZM48.5365 13.34C49.0965 13.34 49.5245 13.012 49.8205 12.356V10.868H49.1245C48.0845 10.868 47.5645 11.304 47.5645 12.176C47.5645 12.552 47.6485 12.84 47.8165 13.04C47.9845 13.24 48.2245 13.34 48.5365 13.34ZM57.2633 10.652C57.2633 10.82 57.2553 11.008 57.2393 11.216H53.5673C53.5993 11.952 53.7473 12.484 54.0113 12.812C54.2753 13.132 54.6353 13.292 55.0913 13.292C55.3793 13.292 55.6353 13.248 55.8593 13.16C56.0913 13.072 56.3313 12.928 56.5793 12.728L57.0593 13.364C56.4673 13.892 55.7953 14.156 55.0433 14.156C54.2193 14.156 53.5793 13.872 53.1233 13.304C52.6753 12.728 52.4513 11.924 52.4513 10.892C52.4513 9.86 52.6673 9.044 53.0993 8.444C53.5313 7.836 54.1313 7.532 54.8993 7.532C55.6593 7.532 56.2433 7.804 56.6513 8.348C57.0593 8.884 57.2633 9.652 57.2633 10.652ZM56.2193 10.328C56.2193 9.008 55.7833 8.348 54.9113 8.348C54.5113 8.348 54.1953 8.516 53.9633 8.852C53.7313 9.18 53.5993 9.716 53.5673 10.46H56.2193V10.328ZM60.397 7.532C61.125 7.532 61.773 7.772 62.341 8.252L61.885 8.888C61.629 8.712 61.389 8.58 61.165 8.492C60.941 8.404 60.705 8.36 60.457 8.36C60.129 8.36 59.869 8.44 59.677 8.6C59.493 8.752 59.401 8.964 59.401 9.236C59.401 9.5 59.489 9.708 59.665 9.86C59.849 10.012 60.193 10.168 60.697 10.328C61.329 10.528 61.789 10.772 62.077 11.06C62.365 11.348 62.509 11.744 62.509 12.248C62.509 12.84 62.293 13.308 61.861 13.652C61.429 13.988 60.889 14.156 60.241 14.156C59.385 14.156 58.661 13.872 58.069 13.304L58.621 12.704C59.125 13.112 59.657 13.316 60.217 13.316C60.569 13.316 60.853 13.228 61.069 13.052C61.285 12.876 61.393 12.632 61.393 12.32C61.393 12.096 61.353 11.916 61.273 11.78C61.201 11.644 61.065 11.524 60.865 11.42C60.673 11.308 60.389 11.192 60.013 11.072C59.413 10.872 58.981 10.632 58.717 10.352C58.453 10.072 58.321 9.716 58.321 9.284C58.321 8.948 58.409 8.648 58.585 8.384C58.761 8.12 59.005 7.912 59.317 7.76C59.629 7.608 59.989 7.532 60.397 7.532ZM66.8741 13.724C66.4741 14.012 66.0301 14.156 65.5421 14.156C65.0301 14.156 64.6341 14.008 64.3541 13.712C64.0821 13.416 63.9461 13 63.9461 12.464V8.504H63.0461V7.688H63.9461V6.236L65.0261 6.104V7.688H66.4181L66.2981 8.504H65.0261V12.452C65.0261 12.996 65.2541 13.268 65.7101 13.268C65.8461 13.268 65.9701 13.248 66.0821 13.208C66.2021 13.168 66.3341 13.108 66.4781 13.028L66.8741 13.724ZM70.4038 7.544C70.6118 7.544 70.7918 7.568 70.9438 7.616L70.7638 8.66C70.6118 8.612 70.4478 8.588 70.2718 8.588C69.9198 8.588 69.6318 8.728 69.4078 9.008C69.1918 9.288 69.0198 9.716 68.8918 10.292V14H67.8118V7.688H68.7478L68.8318 8.936C69.1438 8.008 69.6678 7.544 70.4038 7.544ZM73.8516 7.532C74.6596 7.532 75.2876 7.816 75.7356 8.384C76.1836 8.952 76.4076 9.768 76.4076 10.832C76.4076 11.856 76.1796 12.668 75.7236 13.268C75.2676 13.86 74.6396 14.156 73.8396 14.156C73.0316 14.156 72.3996 13.864 71.9436 13.28C71.4956 12.696 71.2716 11.884 71.2716 10.844C71.2716 9.796 71.4996 8.984 71.9556 8.408C72.4116 7.824 73.0436 7.532 73.8516 7.532ZM73.8516 8.396C73.3796 8.396 73.0196 8.596 72.7716 8.996C72.5236 9.388 72.3996 10.004 72.3996 10.844C72.3996 12.484 72.8796 13.304 73.8396 13.304C74.7996 13.304 75.2796 12.48 75.2796 10.832C75.2796 9.992 75.1596 9.376 74.9196 8.984C74.6796 8.592 74.3236 8.396 73.8516 8.396Z" fill="#464646"/>
<path d="M20.5377 2.14551H11.8057V17.8538H20.5377V2.14551Z" fill="#7375CF"/>
<path d="M12.3615 10.0021C12.3597 8.48899 12.7018 6.99533 13.362 5.6342C14.0221 4.27308 14.983 3.08018 16.1718 2.14584C14.6989 0.983758 12.9289 0.260261 11.0644 0.0581305C9.19994 -0.144 7.31628 0.1834 5.62897 1.00287C3.94167 1.82234 2.51888 3.10078 1.52341 4.6919C0.52794 6.28302 0 8.12255 0 9.99999C0 11.8774 0.52794 13.717 1.52341 15.3081C2.51888 16.8992 3.94167 18.1777 5.62897 18.9971C7.31628 19.8166 9.19994 20.144 11.0644 19.9419C12.9289 19.7397 14.6989 19.0162 16.1718 17.8542C14.9836 16.9202 14.023 15.728 13.3629 14.3677C12.7027 13.0073 12.3603 11.5145 12.3615 10.0021Z" fill="#EB001B"/>
<path d="M32.3186 10.0018C32.315 11.8749 31.7859 13.7092 30.7916 15.296C29.7974 16.8827 28.378 18.158 26.6952 18.9766C25.0123 19.7951 23.1336 20.1241 21.2731 19.926C19.4126 19.7279 17.6451 19.0106 16.1719 17.8559C17.3582 16.92 18.317 15.727 18.9762 14.3666C19.6355 13.0062 19.978 11.5138 19.978 10.0018C19.978 8.48974 19.6355 6.99739 18.9762 5.63698C18.317 4.27657 17.3582 3.08353 16.1719 2.14763C17.6451 0.992956 19.4126 0.27571 21.2731 0.077588C23.1336 -0.120534 25.0123 0.208436 26.6952 1.02702C28.378 1.84561 29.7974 3.1209 30.7916 4.70763C31.7859 6.29436 32.315 8.12873 32.3186 10.0018Z" fill="#00A2E5"/>
</svg>
