<svg width="109" height="30" viewBox="0 0 109 30" fill="none" xmlns="http://www.w3.org/2000/svg">
<path d="M15.332 30H2.41447C1.081 30 0 28.919 0 27.5855V2.41447C0 1.081 1.081 0 2.41447 0H15.332C16.6655 0 17.7465 1.081 17.7465 2.41447V27.5855C17.7465 28.919 16.6655 30 15.332 30Z" fill="#464646"/>
<path d="M15.3318 0H13.521C14.8545 0 15.9355 1.081 15.9355 2.41447V27.5855C15.9355 28.919 14.8545 30 13.521 30H15.3318C16.6653 30 17.7463 28.919 17.7463 27.5855V2.41447C17.7463 1.081 16.6653 0 15.3318 0V0Z" fill="#464646"/>
<path d="M16.1771 2.41443V27.5855C16.1771 28.0522 15.7987 28.4306 15.332 28.4306H2.41443C1.94773 28.4306 1.56934 28.0522 1.56934 27.5855V2.41443C1.56934 1.94773 1.94768 1.56934 2.41443 1.56934H4.83518C4.97592 1.56934 5.10107 1.65863 5.14689 1.7917L5.46588 2.71842C5.5117 2.85148 5.63686 2.94078 5.7776 2.94078H11.9688C12.1096 2.94078 12.2347 2.85148 12.2806 2.71842L12.5996 1.7917C12.6454 1.65863 12.7705 1.56934 12.9113 1.56934H15.332C15.7987 1.56939 16.1771 1.94773 16.1771 2.41443Z" fill="white"/>
<path d="M11.2268 24.5372H6.51859C5.81852 24.5372 5.25098 23.9696 5.25098 23.2696C5.25098 22.5695 5.81852 22.002 6.51859 22.002H11.2268C11.9269 22.002 12.4945 22.5695 12.4945 23.2696C12.4945 23.9696 11.9269 24.5372 11.2268 24.5372Z" fill="#CC950C"/>
<path d="M26.0982 19.2858H5.28895C4.63451 19.2858 4.104 18.7553 4.104 18.1008V5.98377C4.104 5.32934 4.63451 4.79883 5.28895 4.79883H26.0981C26.7525 4.79883 27.283 5.32934 27.283 5.98377V18.1008C27.2831 18.7553 26.7526 19.2858 26.0982 19.2858Z" fill="#A3A3A3"/>
<path d="M26.0984 4.79883H24.2876C24.942 4.79883 25.4725 5.32934 25.4725 5.98377V18.1008C25.4725 18.7553 24.942 19.2858 24.2876 19.2858H26.0984C26.7529 19.2858 27.2834 18.7553 27.2834 18.1008V5.98377C27.2834 5.32939 26.7529 4.79883 26.0984 4.79883Z" fill="#A3A3A3"/>
<path d="M21.1758 13.6204C21.1744 13.6165 21.1728 13.6125 21.1712 13.6086C21.0909 13.4133 20.9027 13.2871 20.6915 13.2871H20.6913C20.4801 13.2872 20.2918 13.4136 20.2116 13.609C20.2103 13.6124 20.2089 13.6158 20.2076 13.6193L18.8966 17.0615C18.8102 17.2882 18.9241 17.5421 19.1509 17.6286C19.2023 17.6482 19.2552 17.6574 19.3072 17.6574C19.4842 17.6574 19.6512 17.5496 19.718 17.3743L19.9366 16.8H21.4363L21.6526 17.373C21.7383 17.6001 21.9919 17.7147 22.2189 17.629C22.446 17.5433 22.5606 17.2898 22.4748 17.0627L21.1758 13.6204ZM20.2714 15.9211L20.69 14.8221L21.1047 15.9211H20.2714Z" fill="#F2F2F2"/>
<path d="M25.0788 13.3672C24.8754 13.2347 24.6031 13.2924 24.4707 13.4957L23.7324 14.6299L22.9857 13.4863C22.853 13.2831 22.5806 13.226 22.3775 13.3587C22.1743 13.4914 22.1171 13.7636 22.2497 13.9669L23.2932 15.5648L23.2891 17.2168C23.2885 17.4596 23.4848 17.6568 23.7274 17.6574H23.7285C23.9708 17.6574 24.1674 17.4613 24.168 17.219L24.1721 15.5655L25.2073 13.9752C25.3397 13.7718 25.2821 13.4996 25.0788 13.3672Z" fill="#F2F2F2"/>
<path d="M17.748 13.2876H16.7759C16.6591 13.2876 16.5471 13.3341 16.4646 13.4168C16.3822 13.4995 16.336 13.6117 16.3364 13.7285V17.2184C16.3364 17.4611 16.5331 17.6578 16.7759 17.6578C17.0186 17.6578 17.2153 17.4611 17.2153 17.2184V16.1389C17.4101 16.1379 17.6241 16.137 17.748 16.137C18.5442 16.137 19.1921 15.4979 19.1921 14.7123C19.1921 13.9267 18.5442 13.2876 17.748 13.2876ZM17.748 15.258C17.6249 15.258 17.4136 15.259 17.2197 15.2599C17.2187 15.0593 17.2178 14.8388 17.2178 14.7122C17.2178 14.6049 17.2172 14.3765 17.2166 14.1664H17.748C18.0543 14.1664 18.3131 14.4164 18.3131 14.7122C18.3131 15.0081 18.0543 15.258 17.748 15.258Z" fill="#F2F2F2"/>
<path d="M10.9254 10.2921H7.18297C6.98293 10.2921 6.8208 10.13 6.8208 9.92996V7.51549C6.8208 7.31545 6.98293 7.15332 7.18297 7.15332H10.9254C11.1254 7.15332 11.2876 7.31545 11.2876 7.51549V9.92996C11.2876 10.13 11.1254 10.2921 10.9254 10.2921Z" fill="#CC950C"/>
<path d="M9.41588 17.0416H4.104V13.9028H9.41588C10.2827 13.9028 10.9853 14.6055 10.9853 15.4723C10.9853 16.339 10.2827 17.0416 9.41588 17.0416Z" fill="#A3A3A3"/>
<path d="M15.1753 7.8042C14.9325 7.8042 14.7358 8.0009 14.7358 8.24365V8.96799C14.7358 9.21074 14.9325 9.40744 15.1753 9.40744C15.418 9.40744 15.6147 9.21074 15.6147 8.96799V8.24365C15.6147 8.00096 15.418 7.8042 15.1753 7.8042Z" fill="#F2F2F2"/>
<path d="M22.6421 7.8042C22.3993 7.8042 22.2026 8.0009 22.2026 8.24365V8.96799C22.2026 9.21074 22.3993 9.40744 22.6421 9.40744C22.8848 9.40744 23.0815 9.21074 23.0815 8.96799V8.24365C23.0815 8.00096 22.8848 7.8042 22.6421 7.8042Z" fill="#F2F2F2"/>
<path d="M24.2559 7.8042C24.0131 7.8042 23.8164 8.0009 23.8164 8.24365V8.96799C23.8164 9.21074 24.0131 9.40744 24.2559 9.40744C24.4986 9.40744 24.6953 9.21074 24.6953 8.96799V8.24365C24.6953 8.00096 24.4986 7.8042 24.2559 7.8042Z" fill="#F2F2F2"/>
<path d="M17.5186 7.8042C17.2758 7.8042 17.0791 8.0009 17.0791 8.24365V8.96799C17.0791 9.21074 17.2758 9.40744 17.5186 9.40744C17.7613 9.40744 17.958 9.21074 17.958 8.96799V8.24365C17.958 8.00096 17.7613 7.8042 17.5186 7.8042Z" fill="#F2F2F2"/>
<path d="M19.229 7.8042C18.9862 7.8042 18.7896 8.0009 18.7896 8.24365V8.96799C18.7896 9.21074 18.9862 9.40744 19.229 9.40744C19.4718 9.40744 19.6685 9.21074 19.6685 8.96799V8.24365C19.6685 8.00096 19.4717 7.8042 19.229 7.8042Z" fill="#F2F2F2"/>
<path d="M38.012 3.744L35.732 12H34.4L32.084 3.744H33.236L35.084 10.92L36.908 3.744H38.012ZM40.9688 5.532C41.7768 5.532 42.4048 5.816 42.8528 6.384C43.3008 6.952 43.5248 7.768 43.5248 8.832C43.5248 9.856 43.2968 10.668 42.8408 11.268C42.3848 11.86 41.7568 12.156 40.9568 12.156C40.1488 12.156 39.5168 11.864 39.0608 11.28C38.6128 10.696 38.3888 9.884 38.3888 8.844C38.3888 7.796 38.6168 6.984 39.0728 6.408C39.5288 5.824 40.1608 5.532 40.9688 5.532ZM40.9688 6.396C40.4968 6.396 40.1368 6.596 39.8888 6.996C39.6408 7.388 39.5168 8.004 39.5168 8.844C39.5168 10.484 39.9968 11.304 40.9568 11.304C41.9168 11.304 42.3968 10.48 42.3968 8.832C42.3968 7.992 42.2768 7.376 42.0368 6.984C41.7968 6.592 41.4408 6.396 40.9688 6.396ZM47.6812 5.544C47.8892 5.544 48.0692 5.568 48.2212 5.616L48.0412 6.66C47.8892 6.612 47.7252 6.588 47.5492 6.588C47.1972 6.588 46.9092 6.728 46.6852 7.008C46.4692 7.288 46.2972 7.716 46.1692 8.292V12H45.0892V5.688H46.0252L46.1092 6.936C46.4212 6.008 46.9452 5.544 47.6812 5.544ZM50.3528 3.012V12H49.2728V3.132L50.3528 3.012ZM53.6768 5.688L51.5408 8.496L53.8808 12H52.6808L50.4128 8.544L52.5488 5.688H53.6768ZM58.6228 10.56C58.6228 10.816 58.6588 11.008 58.7308 11.136C58.8028 11.256 58.9148 11.348 59.0668 11.412L58.8388 12.144C58.5268 12.096 58.2828 12 58.1068 11.856C57.9308 11.712 57.8068 11.492 57.7348 11.196C57.3268 11.836 56.7548 12.156 56.0188 12.156C55.4588 12.156 55.0148 11.984 54.6868 11.64C54.3588 11.288 54.1948 10.82 54.1948 10.236C54.1948 9.564 54.4148 9.052 54.8548 8.7C55.2948 8.348 55.9228 8.172 56.7388 8.172H57.5548V7.632C57.5548 7.192 57.4628 6.876 57.2788 6.684C57.1028 6.484 56.8108 6.384 56.4028 6.384C55.9628 6.384 55.4508 6.496 54.8668 6.72L54.6028 5.964C55.3068 5.676 55.9628 5.532 56.5708 5.532C57.9388 5.532 58.6228 6.216 58.6228 7.584V10.56ZM56.2708 11.34C56.8308 11.34 57.2588 11.012 57.5548 10.356V8.868H56.8588C55.8188 8.868 55.2988 9.304 55.2988 10.176C55.2988 10.552 55.3828 10.84 55.5508 11.04C55.7188 11.24 55.9588 11.34 56.2708 11.34ZM62.1196 5.532C62.8476 5.532 63.4956 5.772 64.0636 6.252L63.6076 6.888C63.3516 6.712 63.1116 6.58 62.8876 6.492C62.6636 6.404 62.4276 6.36 62.1796 6.36C61.8516 6.36 61.5916 6.44 61.3996 6.6C61.2156 6.752 61.1236 6.964 61.1236 7.236C61.1236 7.5 61.2116 7.708 61.3876 7.86C61.5716 8.012 61.9156 8.168 62.4196 8.328C63.0516 8.528 63.5116 8.772 63.7996 9.06C64.0876 9.348 64.2316 9.744 64.2316 10.248C64.2316 10.84 64.0156 11.308 63.5836 11.652C63.1516 11.988 62.6116 12.156 61.9636 12.156C61.1076 12.156 60.3836 11.872 59.7916 11.304L60.3436 10.704C60.8476 11.112 61.3796 11.316 61.9396 11.316C62.2916 11.316 62.5756 11.228 62.7916 11.052C63.0076 10.876 63.1156 10.632 63.1156 10.32C63.1156 10.096 63.0756 9.916 62.9956 9.78C62.9236 9.644 62.7876 9.524 62.5876 9.42C62.3956 9.308 62.1116 9.192 61.7356 9.072C61.1356 8.872 60.7036 8.632 60.4396 8.352C60.1756 8.072 60.0436 7.716 60.0436 7.284C60.0436 6.948 60.1316 6.648 60.3076 6.384C60.4836 6.12 60.7276 5.912 61.0396 5.76C61.3516 5.608 61.7116 5.532 62.1196 5.532ZM67.1235 5.532C67.8515 5.532 68.4995 5.772 69.0675 6.252L68.6115 6.888C68.3555 6.712 68.1155 6.58 67.8915 6.492C67.6675 6.404 67.4315 6.36 67.1835 6.36C66.8555 6.36 66.5955 6.44 66.4035 6.6C66.2195 6.752 66.1275 6.964 66.1275 7.236C66.1275 7.5 66.2155 7.708 66.3915 7.86C66.5755 8.012 66.9195 8.168 67.4235 8.328C68.0555 8.528 68.5155 8.772 68.8035 9.06C69.0915 9.348 69.2355 9.744 69.2355 10.248C69.2355 10.84 69.0195 11.308 68.5875 11.652C68.1555 11.988 67.6155 12.156 66.9675 12.156C66.1115 12.156 65.3875 11.872 64.7955 11.304L65.3475 10.704C65.8515 11.112 66.3835 11.316 66.9435 11.316C67.2955 11.316 67.5795 11.228 67.7955 11.052C68.0115 10.876 68.1195 10.632 68.1195 10.32C68.1195 10.096 68.0795 9.916 67.9995 9.78C67.9275 9.644 67.7915 9.524 67.5915 9.42C67.3995 9.308 67.1155 9.192 66.7395 9.072C66.1395 8.872 65.7075 8.632 65.4435 8.352C65.1795 8.072 65.0475 7.716 65.0475 7.284C65.0475 6.948 65.1355 6.648 65.3115 6.384C65.4875 6.12 65.7315 5.912 66.0435 5.76C66.3555 5.608 66.7155 5.532 67.1235 5.532ZM75.0406 8.652C75.0406 8.82 75.0326 9.008 75.0166 9.216H71.3446C71.3766 9.952 71.5246 10.484 71.7886 10.812C72.0526 11.132 72.4126 11.292 72.8686 11.292C73.1566 11.292 73.4126 11.248 73.6366 11.16C73.8686 11.072 74.1086 10.928 74.3566 10.728L74.8366 11.364C74.2446 11.892 73.5726 12.156 72.8206 12.156C71.9966 12.156 71.3566 11.872 70.9006 11.304C70.4526 10.728 70.2286 9.924 70.2286 8.892C70.2286 7.86 70.4446 7.044 70.8766 6.444C71.3086 5.836 71.9086 5.532 72.6766 5.532C73.4366 5.532 74.0206 5.804 74.4286 6.348C74.8366 6.884 75.0406 7.652 75.0406 8.652ZM73.9966 8.328C73.9966 7.008 73.5606 6.348 72.6886 6.348C72.2886 6.348 71.9726 6.516 71.7406 6.852C71.5086 7.18 71.3766 7.716 71.3446 8.46H73.9966V8.328ZM83.8545 3.132V12H82.8945L82.8225 11.172C82.4145 11.828 81.8665 12.156 81.1785 12.156C80.4905 12.156 79.9545 11.864 79.5705 11.28C79.1945 10.696 79.0065 9.892 79.0065 8.868C79.0065 8.204 79.0985 7.62 79.2825 7.116C79.4745 6.612 79.7425 6.224 80.0865 5.952C80.4305 5.672 80.8265 5.532 81.2745 5.532C81.8745 5.532 82.3745 5.784 82.7745 6.288V3.012L83.8545 3.132ZM81.4305 11.304C81.7185 11.304 81.9665 11.224 82.1745 11.064C82.3905 10.904 82.5905 10.668 82.7745 10.356V7.188C82.4145 6.652 81.9945 6.384 81.5145 6.384C81.0905 6.384 80.7545 6.588 80.5065 6.996C80.2585 7.404 80.1385 8.02 80.1465 8.844C80.1465 9.684 80.2585 10.304 80.4825 10.704C80.7065 11.104 81.0225 11.304 81.4305 11.304ZM90.1321 12H89.1961L89.1361 11.052C88.6961 11.788 88.1081 12.156 87.3721 12.156C86.8681 12.156 86.4721 11.992 86.1841 11.664C85.8961 11.336 85.7521 10.892 85.7521 10.332V5.688H86.8321V10.236C86.8321 10.604 86.9001 10.876 87.0361 11.052C87.1801 11.22 87.3921 11.304 87.6721 11.304C88.2081 11.304 88.6681 10.952 89.0521 10.248V5.688H90.1321V12ZM94.6734 5.544C94.8814 5.544 95.0614 5.568 95.2134 5.616L95.0334 6.66C94.8814 6.612 94.7174 6.588 94.5414 6.588C94.1894 6.588 93.9014 6.728 93.6774 7.008C93.4614 7.288 93.2894 7.716 93.1614 8.292V12H92.0814V5.688H93.0174L93.1014 6.936C93.4134 6.008 93.9374 5.544 94.6734 5.544ZM98.1211 5.532C98.4571 5.532 98.7651 5.588 99.0451 5.7C99.3251 5.812 99.5931 5.984 99.8491 6.216L99.3691 6.864C99.1771 6.712 98.9851 6.6 98.7931 6.528C98.6011 6.448 98.3931 6.408 98.1691 6.408C97.6971 6.408 97.3291 6.608 97.0651 7.008C96.8091 7.408 96.6811 8.032 96.6811 8.88C96.6811 10.464 97.1771 11.256 98.1691 11.256C98.3931 11.256 98.5971 11.22 98.7811 11.148C98.9651 11.068 99.1611 10.952 99.3691 10.8L99.8731 11.46C99.3611 11.924 98.7811 12.156 98.1331 12.156C97.3251 12.156 96.6891 11.876 96.2251 11.316C95.7691 10.756 95.5411 9.948 95.5411 8.892C95.5411 8.204 95.6451 7.608 95.8531 7.104C96.0691 6.6 96.3691 6.212 96.7531 5.94C97.1451 5.668 97.6011 5.532 98.1211 5.532ZM103.878 5.532C104.382 5.532 104.774 5.7 105.054 6.036C105.342 6.372 105.486 6.828 105.486 7.404V12H104.406V7.536C104.406 7.128 104.334 6.836 104.19 6.66C104.054 6.476 103.85 6.384 103.578 6.384C103.05 6.384 102.57 6.76 102.138 7.512V12H101.058V3.144L102.138 3.024V6.588C102.37 6.244 102.626 5.984 102.906 5.808C103.186 5.624 103.51 5.532 103.878 5.532ZM38.168 23.576C38.168 24.336 37.94 24.956 37.484 25.436C37.028 25.916 36.376 26.156 35.528 26.156C34.672 26.156 34.02 25.92 33.572 25.448C33.124 24.968 32.9 24.344 32.9 23.576V17.744H34.016V23.504C34.016 24.664 34.52 25.244 35.528 25.244C36.536 25.244 37.04 24.664 37.04 23.504V17.744H38.168V23.576ZM34.436 15.344C34.612 15.344 34.76 15.404 34.88 15.524C35 15.644 35.06 15.796 35.06 15.98C35.06 16.164 35 16.32 34.88 16.448C34.76 16.568 34.612 16.628 34.436 16.628C34.252 16.628 34.1 16.568 33.98 16.448C33.86 16.32 33.8 16.164 33.8 15.98C33.8 15.796 33.86 15.644 33.98 15.524C34.1 15.404 34.252 15.344 34.436 15.344ZM36.68 15.344C36.856 15.344 37.004 15.404 37.124 15.524C37.244 15.644 37.304 15.796 37.304 15.98C37.304 16.164 37.244 16.32 37.124 16.448C37.004 16.568 36.856 16.628 36.68 16.628C36.504 16.628 36.352 16.568 36.224 16.448C36.104 16.32 36.044 16.164 36.044 15.98C36.044 15.796 36.104 15.644 36.224 15.524C36.344 15.404 36.496 15.344 36.68 15.344ZM42.7387 19.532C43.4027 19.532 43.9147 19.816 44.2747 20.384C44.6427 20.944 44.8267 21.76 44.8267 22.832C44.8267 23.856 44.6267 24.668 44.2267 25.268C43.8347 25.86 43.2987 26.156 42.6187 26.156C42.2987 26.156 42.0067 26.084 41.7427 25.94C41.4787 25.788 41.2507 25.576 41.0587 25.304L40.9867 26H40.0267V17.144L41.1067 17.024V20.456C41.3067 20.168 41.5427 19.944 41.8147 19.784C42.0947 19.616 42.4027 19.532 42.7387 19.532ZM42.3667 25.304C43.2547 25.304 43.6987 24.48 43.6987 22.832C43.6987 21.944 43.5907 21.316 43.3747 20.948C43.1587 20.572 42.8507 20.384 42.4507 20.384C42.1707 20.384 41.9227 20.468 41.7067 20.636C41.4987 20.804 41.2987 21.04 41.1067 21.344V24.476C41.2587 24.724 41.4427 24.924 41.6587 25.076C41.8747 25.228 42.1107 25.304 42.3667 25.304ZM50.8414 22.652C50.8414 22.82 50.8334 23.008 50.8174 23.216H47.1454C47.1774 23.952 47.3254 24.484 47.5894 24.812C47.8534 25.132 48.2134 25.292 48.6694 25.292C48.9574 25.292 49.2134 25.248 49.4374 25.16C49.6694 25.072 49.9094 24.928 50.1574 24.728L50.6374 25.364C50.0454 25.892 49.3734 26.156 48.6214 26.156C47.7974 26.156 47.1574 25.872 46.7014 25.304C46.2534 24.728 46.0294 23.924 46.0294 22.892C46.0294 21.86 46.2454 21.044 46.6774 20.444C47.1094 19.836 47.7094 19.532 48.4774 19.532C49.2374 19.532 49.8214 19.804 50.2294 20.348C50.6374 20.884 50.8414 21.652 50.8414 22.652ZM49.7974 22.328C49.7974 21.008 49.3614 20.348 48.4894 20.348C48.0894 20.348 47.7734 20.516 47.5414 20.852C47.3094 21.18 47.1774 21.716 47.1454 22.46H49.7974V22.328ZM54.9351 19.544C55.1431 19.544 55.3231 19.568 55.4751 19.616L55.2951 20.66C55.1431 20.612 54.9791 20.588 54.8031 20.588C54.4511 20.588 54.1631 20.728 53.9391 21.008C53.7231 21.288 53.5511 21.716 53.4231 22.292V26H52.3431V19.688H53.2791L53.3631 20.936C53.6751 20.008 54.1991 19.544 54.9351 19.544ZM63.1867 19.688L61.8907 26H60.5227L59.4907 20.672L58.4707 26H57.1027L55.7827 19.688H56.8507L57.8347 25.184L58.9387 19.688H60.1027L61.1707 25.196L62.1667 19.688H63.1867ZM68.818 22.652C68.818 22.82 68.81 23.008 68.794 23.216H65.122C65.154 23.952 65.302 24.484 65.566 24.812C65.83 25.132 66.19 25.292 66.646 25.292C66.934 25.292 67.19 25.248 67.414 25.16C67.646 25.072 67.886 24.928 68.134 24.728L68.614 25.364C68.022 25.892 67.35 26.156 66.598 26.156C65.774 26.156 65.134 25.872 64.678 25.304C64.23 24.728 64.006 23.924 64.006 22.892C64.006 21.86 64.222 21.044 64.654 20.444C65.086 19.836 65.686 19.532 66.454 19.532C67.214 19.532 67.798 19.804 68.206 20.348C68.614 20.884 68.818 21.652 68.818 22.652ZM67.774 22.328C67.774 21.008 67.338 20.348 66.466 20.348C66.066 20.348 65.75 20.516 65.518 20.852C65.286 21.18 65.154 21.716 65.122 22.46H67.774V22.328ZM71.3997 19.688V26H70.3197V19.688H71.3997ZM70.8597 16.712C71.0677 16.712 71.2357 16.78 71.3637 16.916C71.4997 17.052 71.5677 17.22 71.5677 17.42C71.5677 17.62 71.5037 17.788 71.3757 17.924C71.2477 18.052 71.0757 18.116 70.8597 18.116C70.6517 18.116 70.4797 18.052 70.3437 17.924C70.2157 17.788 70.1517 17.62 70.1517 17.42C70.1517 17.22 70.2157 17.052 70.3437 16.916C70.4797 16.78 70.6517 16.712 70.8597 16.712ZM74.9751 19.532C75.7031 19.532 76.3511 19.772 76.9191 20.252L76.4631 20.888C76.2071 20.712 75.9671 20.58 75.7431 20.492C75.5191 20.404 75.2831 20.36 75.0351 20.36C74.7071 20.36 74.4471 20.44 74.2551 20.6C74.0711 20.752 73.9791 20.964 73.9791 21.236C73.9791 21.5 74.0671 21.708 74.2431 21.86C74.4271 22.012 74.7711 22.168 75.2751 22.328C75.9071 22.528 76.3671 22.772 76.6551 23.06C76.9431 23.348 77.0871 23.744 77.0871 24.248C77.0871 24.84 76.8711 25.308 76.4391 25.652C76.0071 25.988 75.4671 26.156 74.8191 26.156C73.9631 26.156 73.2391 25.872 72.6471 25.304L73.1991 24.704C73.7031 25.112 74.2351 25.316 74.7951 25.316C75.1471 25.316 75.4311 25.228 75.6471 25.052C75.8631 24.876 75.9711 24.632 75.9711 24.32C75.9711 24.096 75.9311 23.916 75.8511 23.78C75.7791 23.644 75.6431 23.524 75.4431 23.42C75.2511 23.308 74.9671 23.192 74.5911 23.072C73.9911 22.872 73.5591 22.632 73.2951 22.352C73.0311 22.072 72.8991 21.716 72.8991 21.284C72.8991 20.948 72.9871 20.648 73.1631 20.384C73.3391 20.12 73.5831 19.912 73.8951 19.76C74.2071 19.608 74.5671 19.532 74.9751 19.532ZM82.7962 26H81.8602L81.8002 25.052C81.3602 25.788 80.7722 26.156 80.0362 26.156C79.5322 26.156 79.1362 25.992 78.8482 25.664C78.5602 25.336 78.4162 24.892 78.4162 24.332V19.688H79.4962V24.236C79.4962 24.604 79.5642 24.876 79.7002 25.052C79.8442 25.22 80.0562 25.304 80.3362 25.304C80.8722 25.304 81.3322 24.952 81.7162 24.248V19.688H82.7962V26ZM87.5654 19.532C88.0694 19.532 88.4614 19.7 88.7414 20.036C89.0294 20.364 89.1734 20.82 89.1734 21.404V26H88.0934V21.536C88.0934 21.128 88.0254 20.836 87.8894 20.66C87.7534 20.476 87.5454 20.384 87.2654 20.384C86.7374 20.384 86.2574 20.76 85.8254 21.512V26H84.7454V19.688H85.6814L85.7654 20.624C86.2534 19.896 86.8534 19.532 87.5654 19.532ZM95.7056 19.916C95.3616 20.052 94.8296 20.12 94.1096 20.12C94.7816 20.456 95.1176 21.008 95.1176 21.776C95.1176 22.408 94.9176 22.92 94.5176 23.312C94.1256 23.696 93.5896 23.888 92.9096 23.888C92.6536 23.888 92.4216 23.848 92.2136 23.768C91.9896 23.928 91.8776 24.132 91.8776 24.38C91.8776 24.756 92.1416 24.944 92.6696 24.944H93.4976C94.1216 24.944 94.6176 25.104 94.9856 25.424C95.3536 25.736 95.5376 26.136 95.5376 26.624C95.5376 27.216 95.3096 27.68 94.8536 28.016C94.3976 28.36 93.7296 28.532 92.8496 28.532C91.9376 28.532 91.2896 28.376 90.9056 28.064C90.5296 27.752 90.3416 27.276 90.3416 26.636H91.3136C91.3136 26.9 91.3576 27.108 91.4456 27.26C91.5416 27.42 91.6976 27.536 91.9136 27.608C92.1376 27.688 92.4536 27.728 92.8616 27.728C93.4296 27.728 93.8376 27.64 94.0856 27.464C94.3336 27.288 94.4576 27.036 94.4576 26.708C94.4576 26.404 94.3536 26.172 94.1456 26.012C93.9456 25.852 93.6576 25.772 93.2816 25.772H92.5736C92.0216 25.772 91.6096 25.668 91.3376 25.46C91.0656 25.244 90.9296 24.96 90.9296 24.608C90.9296 24.2 91.1496 23.836 91.5896 23.516C91.2536 23.324 91.0016 23.084 90.8336 22.796C90.6736 22.5 90.5936 22.144 90.5936 21.728C90.5936 21.072 90.8016 20.544 91.2176 20.144C91.6336 19.744 92.1816 19.544 92.8616 19.544C93.4936 19.544 93.9816 19.5 94.3256 19.412C94.6776 19.324 95.0376 19.188 95.4056 19.004L95.7056 19.916ZM92.8736 20.3C92.4816 20.3 92.1816 20.424 91.9736 20.672C91.7736 20.912 91.6736 21.264 91.6736 21.728C91.6736 22.176 91.7776 22.528 91.9856 22.784C92.2016 23.032 92.4976 23.156 92.8736 23.156C93.6656 23.156 94.0616 22.676 94.0616 21.716C94.0616 21.252 93.9616 20.9 93.7616 20.66C93.5616 20.42 93.2656 20.3 92.8736 20.3Z" fill="#464646"/>
</svg>
