<svg width="82" height="30" viewBox="0 0 82 30" fill="none" xmlns="http://www.w3.org/2000/svg">
<path d="M40.076 12L39.524 9.9H36.752L36.2 12H35.084L37.472 3.744H38.84L41.228 12H40.076ZM36.98 9.024H39.296L38.144 4.632L36.98 9.024ZM48.1204 5.532C48.5764 5.532 48.9404 5.704 49.2124 6.048C49.4844 6.384 49.6204 6.836 49.6204 7.404V12H48.5524V7.524C48.5524 6.756 48.3044 6.372 47.8084 6.372C47.3284 6.372 46.8884 6.74 46.4884 7.476V12H45.4204V7.524C45.4204 6.756 45.1724 6.372 44.6764 6.372C44.1884 6.372 43.7484 6.74 43.3564 7.476V12H42.2884V5.688H43.2244L43.3084 6.612C43.7724 5.892 44.3324 5.532 44.9884 5.532C45.3324 5.532 45.6244 5.632 45.8644 5.832C46.1044 6.032 46.2764 6.316 46.3804 6.684C46.8684 5.916 47.4484 5.532 48.1204 5.532ZM55.9391 8.652C55.9391 8.82 55.9311 9.008 55.9151 9.216H52.2431C52.2751 9.952 52.4231 10.484 52.6871 10.812C52.9511 11.132 53.3111 11.292 53.7671 11.292C54.0551 11.292 54.3111 11.248 54.5351 11.16C54.7671 11.072 55.0071 10.928 55.2551 10.728L55.7351 11.364C55.1431 11.892 54.4711 12.156 53.7191 12.156C52.8951 12.156 52.2551 11.872 51.7991 11.304C51.3511 10.728 51.1271 9.924 51.1271 8.892C51.1271 7.86 51.3431 7.044 51.7751 6.444C52.2071 5.836 52.8071 5.532 53.5751 5.532C54.3351 5.532 54.9191 5.804 55.3271 6.348C55.7351 6.884 55.9391 7.652 55.9391 8.652ZM54.8951 8.328C54.8951 7.008 54.4591 6.348 53.5871 6.348C53.1871 6.348 52.8711 6.516 52.6391 6.852C52.4071 7.18 52.2751 7.716 52.2431 8.46H54.8951V8.328ZM60.0328 5.544C60.2408 5.544 60.4208 5.568 60.5728 5.616L60.3928 6.66C60.2408 6.612 60.0768 6.588 59.9008 6.588C59.5488 6.588 59.2608 6.728 59.0368 7.008C58.8208 7.288 58.6488 7.716 58.5208 8.292V12H57.4408V5.688H58.3768L58.4608 6.936C58.7728 6.008 59.2968 5.544 60.0328 5.544ZM62.7043 5.688V12H61.6243V5.688H62.7043ZM62.1643 2.712C62.3723 2.712 62.5403 2.78 62.6683 2.916C62.8043 3.052 62.8723 3.22 62.8723 3.42C62.8723 3.62 62.8083 3.788 62.6803 3.924C62.5523 4.052 62.3803 4.116 62.1643 4.116C61.9563 4.116 61.7843 4.052 61.6483 3.924C61.5203 3.788 61.4563 3.62 61.4563 3.42C61.4563 3.22 61.5203 3.052 61.6483 2.916C61.7843 2.78 61.9563 2.712 62.1643 2.712ZM66.8438 5.532C67.1798 5.532 67.4878 5.588 67.7678 5.7C68.0478 5.812 68.3158 5.984 68.5718 6.216L68.0918 6.864C67.8998 6.712 67.7078 6.6 67.5158 6.528C67.3238 6.448 67.1158 6.408 66.8918 6.408C66.4198 6.408 66.0518 6.608 65.7878 7.008C65.5318 7.408 65.4038 8.032 65.4038 8.88C65.4038 10.464 65.8998 11.256 66.8918 11.256C67.1158 11.256 67.3198 11.22 67.5038 11.148C67.6878 11.068 67.8838 10.952 68.0918 10.8L68.5958 11.46C68.0838 11.924 67.5038 12.156 66.8558 12.156C66.0478 12.156 65.4118 11.876 64.9478 11.316C64.4918 10.756 64.2638 9.948 64.2638 8.892C64.2638 8.204 64.3678 7.608 64.5758 7.104C64.7918 6.6 65.0918 6.212 65.4758 5.94C65.8678 5.668 66.3238 5.532 66.8438 5.532ZM73.5994 10.56C73.5994 10.816 73.6354 11.008 73.7074 11.136C73.7794 11.256 73.8914 11.348 74.0434 11.412L73.8154 12.144C73.5034 12.096 73.2594 12 73.0834 11.856C72.9074 11.712 72.7834 11.492 72.7114 11.196C72.3034 11.836 71.7314 12.156 70.9954 12.156C70.4354 12.156 69.9914 11.984 69.6634 11.64C69.3354 11.288 69.1714 10.82 69.1714 10.236C69.1714 9.564 69.3914 9.052 69.8314 8.7C70.2714 8.348 70.8994 8.172 71.7154 8.172H72.5314V7.632C72.5314 7.192 72.4394 6.876 72.2554 6.684C72.0794 6.484 71.7874 6.384 71.3794 6.384C70.9394 6.384 70.4274 6.496 69.8434 6.72L69.5794 5.964C70.2834 5.676 70.9394 5.532 71.5474 5.532C72.9154 5.532 73.5994 6.216 73.5994 7.584V10.56ZM71.2474 11.34C71.8074 11.34 72.2354 11.012 72.5314 10.356V8.868H71.8354C70.7954 8.868 70.2754 9.304 70.2754 10.176C70.2754 10.552 70.3594 10.84 70.5274 11.04C70.6954 11.24 70.9354 11.34 71.2474 11.34ZM78.3662 5.532C78.8702 5.532 79.2622 5.7 79.5422 6.036C79.8302 6.364 79.9742 6.82 79.9742 7.404V12H78.8942V7.536C78.8942 7.128 78.8262 6.836 78.6902 6.66C78.5542 6.476 78.3462 6.384 78.0662 6.384C77.5382 6.384 77.0582 6.76 76.6262 7.512V12H75.5462V5.688H76.4822L76.5662 6.624C77.0542 5.896 77.6542 5.532 78.3662 5.532ZM40.124 17.744L39.992 18.608H37.136V21.332H39.62V22.196H37.136V25.124H40.16V26H36.02V17.744H40.124ZM43.889 22.616L45.833 26H44.645L43.229 23.264L41.825 26H40.673L42.617 22.664L40.889 19.688H42.065L43.253 22.04L44.441 19.688H45.581L43.889 22.616ZM49.5827 19.532C50.2707 19.532 50.7867 19.816 51.1307 20.384C51.4827 20.952 51.6587 21.764 51.6587 22.82C51.6587 23.844 51.4627 24.656 51.0707 25.256C50.6867 25.856 50.1467 26.156 49.4507 26.156C48.8267 26.156 48.3227 25.904 47.9387 25.4V28.4L46.8587 28.532V19.688H47.8067L47.8667 20.54C48.2987 19.868 48.8707 19.532 49.5827 19.532ZM49.1987 25.292C50.0867 25.292 50.5307 24.472 50.5307 22.832C50.5307 21.976 50.4267 21.356 50.2187 20.972C50.0187 20.58 49.7107 20.384 49.2947 20.384C49.0147 20.384 48.7667 20.468 48.5507 20.636C48.3347 20.804 48.1307 21.032 47.9387 21.32V24.512C48.2667 25.032 48.6867 25.292 49.1987 25.292ZM55.8374 19.544C56.0454 19.544 56.2254 19.568 56.3774 19.616L56.1974 20.66C56.0454 20.612 55.8814 20.588 55.7054 20.588C55.3534 20.588 55.0654 20.728 54.8414 21.008C54.6254 21.288 54.4534 21.716 54.3254 22.292V26H53.2454V19.688H54.1814L54.2654 20.936C54.5774 20.008 55.1014 19.544 55.8374 19.544ZM61.5172 22.652C61.5172 22.82 61.5092 23.008 61.4932 23.216H57.8212C57.8532 23.952 58.0012 24.484 58.2652 24.812C58.5292 25.132 58.8892 25.292 59.3452 25.292C59.6332 25.292 59.8892 25.248 60.1132 25.16C60.3452 25.072 60.5852 24.928 60.8332 24.728L61.3132 25.364C60.7212 25.892 60.0492 26.156 59.2972 26.156C58.4732 26.156 57.8332 25.872 57.3772 25.304C56.9292 24.728 56.7052 23.924 56.7052 22.892C56.7052 21.86 56.9212 21.044 57.3532 20.444C57.7852 19.836 58.3852 19.532 59.1532 19.532C59.9132 19.532 60.4972 19.804 60.9052 20.348C61.3132 20.884 61.5172 21.652 61.5172 22.652ZM60.4732 22.328C60.4732 21.008 60.0372 20.348 59.1652 20.348C58.7652 20.348 58.4492 20.516 58.2172 20.852C57.9852 21.18 57.8532 21.716 57.8212 22.46H60.4732V22.328ZM64.6509 19.532C65.3789 19.532 66.0269 19.772 66.5949 20.252L66.1389 20.888C65.8829 20.712 65.6429 20.58 65.4189 20.492C65.1949 20.404 64.9589 20.36 64.7109 20.36C64.3829 20.36 64.1229 20.44 63.9309 20.6C63.7469 20.752 63.6549 20.964 63.6549 21.236C63.6549 21.5 63.7429 21.708 63.9189 21.86C64.1029 22.012 64.4469 22.168 64.9509 22.328C65.5829 22.528 66.0429 22.772 66.3309 23.06C66.6189 23.348 66.7629 23.744 66.7629 24.248C66.7629 24.84 66.5469 25.308 66.1149 25.652C65.6829 25.988 65.1429 26.156 64.4949 26.156C63.6389 26.156 62.9149 25.872 62.3229 25.304L62.8749 24.704C63.3789 25.112 63.9109 25.316 64.4709 25.316C64.8229 25.316 65.1069 25.228 65.3229 25.052C65.5389 24.876 65.6469 24.632 65.6469 24.32C65.6469 24.096 65.6069 23.916 65.5269 23.78C65.4549 23.644 65.3189 23.524 65.1189 23.42C64.9269 23.308 64.6429 23.192 64.2669 23.072C63.6669 22.872 63.2349 22.632 62.9709 22.352C62.7069 22.072 62.5749 21.716 62.5749 21.284C62.5749 20.948 62.6629 20.648 62.8389 20.384C63.0149 20.12 63.2589 19.912 63.5709 19.76C63.8829 19.608 64.2429 19.532 64.6509 19.532ZM69.6548 19.532C70.3828 19.532 71.0308 19.772 71.5988 20.252L71.1428 20.888C70.8868 20.712 70.6468 20.58 70.4228 20.492C70.1988 20.404 69.9628 20.36 69.7148 20.36C69.3868 20.36 69.1268 20.44 68.9348 20.6C68.7508 20.752 68.6588 20.964 68.6588 21.236C68.6588 21.5 68.7468 21.708 68.9228 21.86C69.1068 22.012 69.4508 22.168 69.9548 22.328C70.5868 22.528 71.0468 22.772 71.3348 23.06C71.6228 23.348 71.7668 23.744 71.7668 24.248C71.7668 24.84 71.5508 25.308 71.1188 25.652C70.6868 25.988 70.1468 26.156 69.4988 26.156C68.6428 26.156 67.9188 25.872 67.3268 25.304L67.8788 24.704C68.3828 25.112 68.9148 25.316 69.4748 25.316C69.8268 25.316 70.1108 25.228 70.3268 25.052C70.5428 24.876 70.6508 24.632 70.6508 24.32C70.6508 24.096 70.6108 23.916 70.5308 23.78C70.4588 23.644 70.3228 23.524 70.1228 23.42C69.9308 23.308 69.6468 23.192 69.2708 23.072C68.6708 22.872 68.2388 22.632 67.9748 22.352C67.7108 22.072 67.5788 21.716 67.5788 21.284C67.5788 20.948 67.6668 20.648 67.8428 20.384C68.0188 20.12 68.2628 19.912 68.5748 19.76C68.8868 19.608 69.2468 19.532 69.6548 19.532Z" fill="#464646"/>
<g clip-path="url(#clip0_1332_186)">
<path d="M29.9333 29.9333H0V0H29.9333V29.9333Z" fill="white"/>
<path d="M29.9333 16.2132V0.0131836H0V29.9465H29.9333V21.2132C29.8667 21.2132 29.9333 16.2132 29.9333 16.2132Z" fill="#006FCF"/>
<path d="M26.2667 14.5465H28.5333V9.27979H26.0667V10.0131L25.6 9.27979H23.4667V10.2131L23.0667 9.27979H19.1333C19 9.27979 18.8667 9.34645 18.7333 9.34645C18.6 9.34645 18.5333 9.41312 18.4 9.47979C18.2667 9.54645 18.2 9.54645 18.0667 9.61312V9.27979H6.8L6.46667 10.1465L6.13333 9.27979H3.46667V10.2131L3.06667 9.27979H0.933333L0 11.5465V14.5465H1.53333L1.8 13.8131H2.33333L2.6 14.5465H14.3333V13.8798L14.8 14.5465H18.0667V14.1465C18.1333 14.2131 18.2667 14.2131 18.3333 14.2798C18.4 14.3465 18.5333 14.3465 18.6 14.4131C18.7333 14.4798 18.8667 14.4798 19 14.4798H21.4L21.6667 13.7465H22.2L22.4667 14.4798H25.7333V13.8131L26.2667 14.5465ZM29.9333 21.2131V16.2798H11.6L11.1333 16.9465L10.6667 16.2798H5.33333V21.5465H10.6667L11.1333 20.8798L11.6 21.5465H14.9333V20.4131H14.8C15.2667 20.4131 15.6667 20.3465 16 20.2131V21.6131H18.4V20.9465L18.8667 21.6131H28.8C29.2 21.4798 29.6 21.4131 29.9333 21.2131Z" fill="white"/>
<path d="M28.8 19.9465H27V20.6798H28.7333C29.4667 20.6798 29.9333 20.2132 29.9333 19.5465C29.9333 18.8798 29.5333 18.5465 28.8667 18.5465H28.0667C27.8667 18.5465 27.7333 18.4132 27.7333 18.2132C27.7333 18.0132 27.8667 17.8798 28.0667 17.8798H29.6L29.9333 17.1465H28.1333C27.4 17.1465 26.9333 17.6132 26.9333 18.2132C26.9333 18.8798 27.3333 19.2132 28 19.2132H28.8C29 19.2132 29.1333 19.3465 29.1333 19.5465C29.2 19.8132 29.0667 19.9465 28.8 19.9465ZM25.5333 19.9465H23.7333V20.6798H25.4667C26.2 20.6798 26.6667 20.2132 26.6667 19.5465C26.6667 18.8798 26.2667 18.5465 25.6 18.5465H24.8C24.6 18.5465 24.4667 18.4132 24.4667 18.2132C24.4667 18.0132 24.6 17.8798 24.8 17.8798H26.3333L26.6667 17.1465H24.8667C24.1333 17.1465 23.6667 17.6132 23.6667 18.2132C23.6667 18.8798 24.0667 19.2132 24.7333 19.2132H25.5333C25.7333 19.2132 25.8667 19.3465 25.8667 19.5465C25.9333 19.8132 25.7333 19.9465 25.5333 19.9465ZM23.2 17.8132V17.0798H20.4V20.6131H23.2V19.8798H21.2V19.1465H23.1333V18.4131H21.2V17.7465H23.2V17.8132ZM18.6667 17.8132C19 17.8132 19.1333 18.0132 19.1333 18.2132C19.1333 18.4132 19 18.6131 18.6667 18.6131H17.6667V17.7465L18.6667 17.8132ZM17.6667 19.3465H18.0667L19.1333 20.6131H20.1333L18.9333 19.2798C19.5333 19.1465 19.8667 18.7465 19.8667 18.2132C19.8667 17.5465 19.4 17.0798 18.6667 17.0798H16.8V20.6131H17.6L17.6667 19.3465ZM15.5333 18.2798C15.5333 18.5465 15.4 18.7465 15.0667 18.7465H14V17.8132H15C15.3333 17.8132 15.5333 18.0131 15.5333 18.2798ZM13.2 17.0798V20.6131H14V19.4131H15.0667C15.8 19.4131 16.3333 18.9465 16.3333 18.2132C16.3333 17.5465 15.8667 17.0132 15.1333 17.0132L13.2 17.0798ZM12 20.6131H13L11.6 18.8132L13 17.0798H12L11.1333 18.2132L10.2667 17.0798H9.26667L10.6667 18.8132L9.26667 20.5465H10.2667L11.1333 19.4131L12 20.6131ZM9 17.8132V17.0798H6.2V20.6131H9V19.8798H7V19.1465H8.93333V18.4131H7V17.7465H9V17.8132ZM25.2 11.5465L26.6 13.6798H27.6V10.1465H26.8V12.4798L26.6 12.1465L25.3333 10.1465H24.2667V13.6798H25.0667V11.2798L25.2 11.5465ZM21.7333 11.4798L22 10.7465L22.2667 11.4798L22.6 12.2798H21.4L21.7333 11.4798ZM23.1333 13.6798H24L22.4667 10.1465H21.4L19.8667 13.6798H20.7333L21.0667 12.9465H22.8L23.1333 13.6798ZM19.4 13.6798L19.7333 12.9465H19.5333C18.9333 12.9465 18.6 12.5465 18.6 11.9465V11.8798C18.6 11.2798 18.9333 10.8798 19.5333 10.8798H20.4V10.1465H19.4667C18.4 10.1465 17.8 10.8798 17.8 11.8798V11.9465C17.8 13.0132 18.4 13.6798 19.4 13.6798ZM16.4 13.6798H17.2V10.2132H16.4V13.6798ZM14.6667 10.8798C15 10.8798 15.1333 11.0798 15.1333 11.2798C15.1333 11.4798 15 11.6798 14.6667 11.6798H13.6667V10.8132L14.6667 10.8798ZM13.6667 12.4132H14.0667L15.1333 13.6798H16.1333L14.9333 12.3465C15.5333 12.2132 15.8667 11.8132 15.8667 11.2798C15.8667 10.6132 15.4 10.1465 14.6667 10.1465H12.8V13.6798H13.6L13.6667 12.4132ZM12.2 10.8798V10.1465H9.4V13.6798H12.2V12.9465H10.2V12.2132H12.1333V11.4798H10.2V10.8132H12.2V10.8798ZM6.13333 13.6798H6.86667L7.86667 10.8132V13.6798H8.66667V10.1465H7.33333L6.53333 12.5465L5.73333 10.1465H4.4V13.6798H5.2V10.8132L6.13333 13.6798ZM1.8 11.4798L2.06667 10.7465L2.33333 11.4798L2.66667 12.2798H1.46667L1.8 11.4798ZM3.2 13.6798H4.06667L2.53333 10.1465H1.53333L0 13.6798H0.866667L1.2 12.9465H2.93333L3.2 13.6798Z" fill="#006FCF"/>
</g>
<defs>
<clipPath id="clip0_1332_186">
<rect width="30" height="30" fill="white"/>
</clipPath>
</defs>
</svg>
