<svg width="117" height="26" viewBox="0 0 117 26" fill="none" xmlns="http://www.w3.org/2000/svg">
<path d="M98.1488 6.992L95.1088 18H93.3328L90.2448 6.992H91.7808L94.2448 16.56L96.6768 6.992H98.1488ZM101.009 9.584V18H99.5694V9.584H101.009ZM100.289 5.616C100.567 5.616 100.791 5.70667 100.961 5.888C101.143 6.06933 101.233 6.29333 101.233 6.56C101.233 6.82667 101.148 7.05067 100.977 7.232C100.807 7.40267 100.577 7.488 100.289 7.488C100.012 7.488 99.7828 7.40267 99.6014 7.232C99.4308 7.05067 99.3454 6.82667 99.3454 6.56C99.3454 6.29333 99.4308 6.06933 99.6014 5.888C99.7828 5.70667 100.012 5.616 100.289 5.616ZM105.777 9.376C106.747 9.376 107.611 9.696 108.369 10.336L107.761 11.184C107.419 10.9493 107.099 10.7733 106.801 10.656C106.502 10.5387 106.187 10.48 105.857 10.48C105.419 10.48 105.073 10.5867 104.817 10.8C104.571 11.0027 104.449 11.2853 104.449 11.648C104.449 12 104.566 12.2773 104.801 12.48C105.046 12.6827 105.505 12.8907 106.177 13.104C107.019 13.3707 107.633 13.696 108.017 14.08C108.401 14.464 108.593 14.992 108.593 15.664C108.593 16.4533 108.305 17.0773 107.729 17.536C107.153 17.984 106.433 18.208 105.569 18.208C104.427 18.208 103.462 17.8293 102.673 17.072L103.409 16.272C104.081 16.816 104.79 17.088 105.537 17.088C106.006 17.088 106.385 16.9707 106.673 16.736C106.961 16.5013 107.105 16.176 107.105 15.76C107.105 15.4613 107.051 15.2213 106.945 15.04C106.849 14.8587 106.667 14.6987 106.401 14.56C106.145 14.4107 105.766 14.256 105.265 14.096C104.465 13.8293 103.889 13.5093 103.537 13.136C103.185 12.7627 103.009 12.288 103.009 11.712C103.009 11.264 103.126 10.864 103.361 10.512C103.595 10.16 103.921 9.88267 104.337 9.68C104.753 9.47733 105.233 9.376 105.777 9.376ZM115.567 16.08C115.567 16.4213 115.615 16.6773 115.711 16.848C115.807 17.008 115.957 17.1307 116.159 17.216L115.855 18.192C115.439 18.128 115.114 18 114.879 17.808C114.645 17.616 114.479 17.3227 114.383 16.928C113.839 17.7813 113.077 18.208 112.095 18.208C111.349 18.208 110.757 17.9787 110.319 17.52C109.882 17.0507 109.663 16.4267 109.663 15.648C109.663 14.752 109.957 14.0693 110.543 13.6C111.13 13.1307 111.967 12.896 113.055 12.896H114.143V12.176C114.143 11.5893 114.021 11.168 113.775 10.912C113.541 10.6453 113.151 10.512 112.607 10.512C112.021 10.512 111.338 10.6613 110.559 10.96L110.207 9.952C111.146 9.568 112.021 9.376 112.831 9.376C114.655 9.376 115.567 10.288 115.567 12.112V16.08ZM112.431 17.12C113.178 17.12 113.749 16.6827 114.143 15.808V13.824H113.215C111.829 13.824 111.135 14.4053 111.135 15.568C111.135 16.0693 111.247 16.4533 111.471 16.72C111.695 16.9867 112.015 17.12 112.431 17.12Z" fill="#464646"/>
<path d="M34.7426 25.5666H28.2031L32.2902 0.44882H38.8303L34.7426 25.5666ZM22.7017 0.44882L16.4673 17.725L15.7295 14.0048L15.7302 14.0061L13.5298 2.71039C13.5298 2.71039 13.2637 0.44882 10.4277 0.44882H0.12094L0 0.874124C0 0.874124 3.15182 1.52988 6.84048 3.74509L12.522 25.5673H19.3356L29.7397 0.44882H22.7017ZM74.138 25.5666H80.1426L74.9073 0.448148H69.6505C67.2229 0.448148 66.6317 2.32002 66.6317 2.32002L56.8786 25.5666H63.6955L65.0588 21.8356H73.372L74.138 25.5666ZM66.9421 16.6816L70.3781 7.28191L72.3111 16.6816H66.9421ZM57.3899 6.48908L58.3231 1.09517C58.3231 1.09517 55.4434 0 52.4414 0C49.1962 0 41.4897 1.41835 41.4897 8.31527C41.4897 14.8044 50.5346 14.885 50.5346 18.2935C50.5346 21.7019 42.4216 21.0912 39.7441 18.9418L38.7719 24.5816C38.7719 24.5816 41.6919 26 46.1532 26C50.6159 26 57.3482 23.6894 57.3482 17.4005C57.3482 10.8698 48.222 10.2617 48.222 7.42233C48.2227 4.58227 54.5915 4.9471 57.3899 6.48908Z" fill="#2566AF"/>
<path d="M15.7302 14.0054L13.5298 2.70969C13.5298 2.70969 13.2637 0.44812 10.4277 0.44812H0.12094L0 0.873424C0 0.873424 4.95382 1.90007 9.7054 5.74662C14.2487 9.42318 15.7302 14.0054 15.7302 14.0054Z" fill="#E6A540"/>
</svg>
