<svg width="62" height="30" viewBox="0 0 62 30" fill="none" xmlns="http://www.w3.org/2000/svg">
<path d="M40.83 10.744L40.698 11.656H38.67V19H37.554V11.656H35.466V10.744H40.83ZM48.1574 12.688L46.8614 19H45.4934L44.4614 13.672L43.4414 19H42.0734L40.7534 12.688H41.8214L42.8054 18.184L43.9094 12.688H45.0734L46.1414 18.196L47.1374 12.688H48.1574ZM50.4407 12.688V19H49.3607V12.688H50.4407ZM49.9007 9.712C50.1087 9.712 50.2767 9.78 50.4047 9.916C50.5407 10.052 50.6087 10.22 50.6087 10.42C50.6087 10.62 50.5447 10.788 50.4167 10.924C50.2887 11.052 50.1167 11.116 49.9007 11.116C49.6927 11.116 49.5207 11.052 49.3847 10.924C49.2567 10.788 49.1927 10.62 49.1927 10.42C49.1927 10.22 49.2567 10.052 49.3847 9.916C49.5207 9.78 49.6927 9.712 49.9007 9.712ZM55.2041 12.532C55.7081 12.532 56.1001 12.7 56.3801 13.036C56.6681 13.364 56.8121 13.82 56.8121 14.404V19H55.7321V14.536C55.7321 14.128 55.6641 13.836 55.5281 13.66C55.3921 13.476 55.1841 13.384 54.9041 13.384C54.3761 13.384 53.8961 13.76 53.4641 14.512V19H52.3841V12.688H53.3201L53.4041 13.624C53.8921 12.896 54.4921 12.532 55.2041 12.532ZM61.7002 18.724C61.3002 19.012 60.8562 19.156 60.3682 19.156C59.8562 19.156 59.4602 19.008 59.1802 18.712C58.9082 18.416 58.7722 18 58.7722 17.464V13.504H57.8722V12.688H58.7722V11.236L59.8522 11.104V12.688H61.2442L61.1242 13.504H59.8522V17.452C59.8522 17.996 60.0802 18.268 60.5362 18.268C60.6722 18.268 60.7962 18.248 60.9082 18.208C61.0282 18.168 61.1602 18.108 61.3042 18.028L61.7002 18.724Z" fill="#464646"/>
<rect width="30" height="30" fill="black"/>
<path d="M25.9493 20.6207C25.9493 20.9388 25.7236 21.3233 25.4448 21.4823L15.7012 27.103C15.4225 27.262 14.9711 27.262 14.6924 27.103L4.94877 21.4823C4.67 21.3233 4.44434 20.9388 4.44434 20.6207V9.37942C4.44434 9.06127 4.67 8.67684 4.94877 8.51777L14.6924 2.89714C14.9711 2.73806 15.4225 2.73806 15.7012 2.89714L25.4448 8.51777C25.7236 8.67684 25.9493 9.06127 25.9493 9.37942V20.6207Z" fill="white"/>
<path d="M20.1917 15.0875L17.6671 18.8646L16.3785 16.8484L17.8643 14.5768C18.1405 14.1735 18.7322 13.0579 18.0484 11.539C17.4962 10.3024 16.2996 9.71094 15.2477 9.71094C14.1958 9.71094 13.0519 10.262 12.4339 11.539C11.737 13.0041 12.3418 14.1466 12.6048 14.5364C12.6048 14.5364 13.4332 15.773 14.1169 16.8215L15.2346 18.4748L16.9176 21.1093C16.9308 21.1228 17.1938 21.5394 17.6671 21.5394C18.1142 21.5394 18.3903 21.1228 18.4297 21.0824L22.3744 15.1144H20.1917V15.0875ZM15.2346 15.1816C15.2346 15.1816 14.5771 14.1601 14.1432 13.4477C13.683 12.6815 14.1958 11.539 15.2346 11.539C16.2733 11.539 16.7861 12.6815 16.3259 13.4477C15.9052 14.1601 15.2346 15.1816 15.2346 15.1816Z" fill="url(#paint0_radial_1332_193)"/>
<path d="M12.8164 18.7436L10.3444 15.1951C10.3444 15.1951 9.68699 14.1735 9.25307 13.4611C8.79286 12.6949 9.30567 11.5524 10.3444 11.5524C10.4759 11.5524 10.5943 11.5659 10.7126 11.6062L11.5804 9.97977C11.186 9.80503 10.752 9.71094 10.3576 9.71094C9.30567 9.71094 8.16171 10.262 7.54372 11.539C6.84682 13.0041 7.45167 14.1466 7.71465 14.5364L12.0406 21.0824C12.0801 21.1362 12.3562 21.5529 12.8164 21.5529C13.2766 21.5529 13.5396 21.1496 13.5791 21.0959L14.8808 19.0662L13.7631 17.386L12.8164 18.7436Z" fill="url(#paint1_radial_1332_193)"/>
<defs>
<radialGradient id="paint0_radial_1332_193" cx="0" cy="0" r="1" gradientUnits="userSpaceOnUse" gradientTransform="translate(14.4143 10.5977) scale(11.6284 11.6284)">
<stop stop-color="#FFCC00"/>
<stop offset="0.09157" stop-color="#FFC800"/>
<stop offset="0.1739" stop-color="#FFBD00"/>
<stop offset="0.2528" stop-color="#FFAB00"/>
<stop offset="0.3295" stop-color="#FF9100"/>
<stop offset="0.4046" stop-color="#FF7000"/>
<stop offset="0.4786" stop-color="#FF4700"/>
<stop offset="0.5503" stop-color="#FF1800"/>
<stop offset="0.5822" stop-color="#FF0000"/>
<stop offset="1" stop-color="#FF0000"/>
</radialGradient>
<radialGradient id="paint1_radial_1332_193" cx="0" cy="0" r="1" gradientUnits="userSpaceOnUse" gradientTransform="translate(7.40597 10.7962) scale(10.6623 10.6622)">
<stop stop-color="#00B4E6"/>
<stop offset="0.201" stop-color="#00B0E3"/>
<stop offset="0.3898" stop-color="#01A5DB"/>
<stop offset="0.5737" stop-color="#0292CD"/>
<stop offset="0.7546" stop-color="#0377BA"/>
<stop offset="0.9316" stop-color="#0455A1"/>
<stop offset="1" stop-color="#054696"/>
</radialGradient>
</defs>
</svg>
