<svg width="75" height="16" viewBox="0 0 75 16" fill="none" xmlns="http://www.w3.org/2000/svg">
<path d="M60.0745 3.744L57.7945 12H56.4625L54.1465 3.744H55.2985L57.1465 10.92L58.9705 3.744H60.0745ZM62.22 5.688V12H61.14V5.688H62.22ZM61.68 2.712C61.888 2.712 62.056 2.78 62.184 2.916C62.32 3.052 62.388 3.22 62.388 3.42C62.388 3.62 62.324 3.788 62.196 3.924C62.068 4.052 61.896 4.116 61.68 4.116C61.472 4.116 61.3 4.052 61.164 3.924C61.036 3.788 60.972 3.62 60.972 3.42C60.972 3.22 61.036 3.052 61.164 2.916C61.3 2.78 61.472 2.712 61.68 2.712ZM65.7954 5.532C66.5234 5.532 67.1714 5.772 67.7394 6.252L67.2834 6.888C67.0274 6.712 66.7874 6.58 66.5634 6.492C66.3394 6.404 66.1034 6.36 65.8554 6.36C65.5274 6.36 65.2674 6.44 65.0754 6.6C64.8914 6.752 64.7994 6.964 64.7994 7.236C64.7994 7.5 64.8874 7.708 65.0634 7.86C65.2474 8.012 65.5914 8.168 66.0954 8.328C66.7274 8.528 67.1874 8.772 67.4754 9.06C67.7634 9.348 67.9074 9.744 67.9074 10.248C67.9074 10.84 67.6914 11.308 67.2594 11.652C66.8274 11.988 66.2874 12.156 65.6394 12.156C64.7834 12.156 64.0594 11.872 63.4674 11.304L64.0194 10.704C64.5234 11.112 65.0554 11.316 65.6154 11.316C65.9674 11.316 66.2514 11.228 66.4674 11.052C66.6834 10.876 66.7914 10.632 66.7914 10.32C66.7914 10.096 66.7514 9.916 66.6714 9.78C66.5994 9.644 66.4634 9.524 66.2634 9.42C66.0714 9.308 65.7874 9.192 65.4114 9.072C64.8114 8.872 64.3794 8.632 64.1154 8.352C63.8514 8.072 63.7194 7.716 63.7194 7.284C63.7194 6.948 63.8074 6.648 63.9834 6.384C64.1594 6.12 64.4034 5.912 64.7154 5.76C65.0274 5.608 65.3874 5.532 65.7954 5.532ZM73.1385 10.56C73.1385 10.816 73.1745 11.008 73.2465 11.136C73.3185 11.256 73.4305 11.348 73.5825 11.412L73.3545 12.144C73.0425 12.096 72.7985 12 72.6225 11.856C72.4465 11.712 72.3225 11.492 72.2505 11.196C71.8425 11.836 71.2705 12.156 70.5345 12.156C69.9745 12.156 69.5305 11.984 69.2025 11.64C68.8745 11.288 68.7105 10.82 68.7105 10.236C68.7105 9.564 68.9305 9.052 69.3705 8.7C69.8105 8.348 70.4385 8.172 71.2545 8.172H72.0705V7.632C72.0705 7.192 71.9785 6.876 71.7945 6.684C71.6185 6.484 71.3265 6.384 70.9185 6.384C70.4785 6.384 69.9665 6.496 69.3825 6.72L69.1185 5.964C69.8225 5.676 70.4785 5.532 71.0865 5.532C72.4545 5.532 73.1385 6.216 73.1385 7.584V10.56ZM70.7865 11.34C71.3465 11.34 71.7745 11.012 72.0705 10.356V8.868H71.3745C70.3345 8.868 69.8145 9.304 69.8145 10.176C69.8145 10.552 69.8985 10.84 70.0665 11.04C70.2345 11.24 70.4745 11.34 70.7865 11.34Z" fill="#464646"/>
<path d="M21.3801 15.7333H17.3558L19.8709 0.276197H23.8956L21.3801 15.7333ZM13.9703 0.276197L10.1337 10.9077L9.67972 8.61834L9.68013 8.61917L8.32602 1.66793C8.32602 1.66793 8.16229 0.276197 6.41704 0.276197H0.0744245L0 0.537922C0 0.537922 1.93958 0.941467 4.20953 2.30467L7.70582 15.7337H11.8988L18.3014 0.276197H13.9703ZM45.6234 15.7333H49.3186L46.0968 0.275784H42.8618C41.368 0.275784 41.0041 1.42771 41.0041 1.42771L35.0022 15.7333H39.1973L40.0362 13.4373H45.152L45.6234 15.7333ZM41.1951 10.2656L43.3096 4.48117L44.4992 10.2656H41.1951ZM35.3168 3.99328L35.8912 0.673953C35.8912 0.673953 34.119 0 32.2717 0C30.2746 0 25.5321 0.872832 25.5321 5.11709C25.5321 9.11037 31.0982 9.15999 31.0982 11.2575C31.0982 13.355 26.1056 12.9792 24.4579 11.6565L23.8596 15.1272C23.8596 15.1272 25.6566 16 28.402 16C31.1483 16 35.2912 14.5781 35.2912 10.708C35.2912 6.6891 29.6751 6.31491 29.6751 4.56759C29.6755 2.81986 33.5948 3.04437 35.3168 3.99328Z" fill="#2566AF"/>
<path d="M9.68013 8.61836L8.32602 1.66712C8.32602 1.66712 8.16229 0.275391 6.41703 0.275391H0.0744245L0 0.537116C0 0.537116 3.0485 1.1689 5.97256 3.536C8.76843 5.7985 9.68013 8.61836 9.68013 8.61836Z" fill="#E6A540"/>
</svg>
