<svg width="99" height="54" viewBox="0 0 99 54" fill="none" xmlns="http://www.w3.org/2000/svg">
<path d="M70.7743 20.992L70.5983 22.208H67.8943V32H66.4063V22.208H63.6223V20.992H70.7743ZM80.5442 23.584L78.8162 32H76.9922L75.6162 24.896L74.2562 32H72.4322L70.6722 23.584H72.0962L73.4082 30.912L74.8802 23.584H76.4322L77.8562 30.928L79.1842 23.584H80.5442ZM83.5885 23.584V32H82.1485V23.584H83.5885ZM82.8685 19.616C83.1459 19.616 83.3699 19.7067 83.5405 19.888C83.7219 20.0693 83.8125 20.2933 83.8125 20.56C83.8125 20.8267 83.7272 21.0507 83.5565 21.232C83.3859 21.4027 83.1565 21.488 82.8685 21.488C82.5912 21.488 82.3619 21.4027 82.1805 21.232C82.0099 21.0507 81.9245 20.8267 81.9245 20.56C81.9245 20.2933 82.0099 20.0693 82.1805 19.888C82.3619 19.7067 82.5912 19.616 82.8685 19.616ZM89.9398 23.376C90.6118 23.376 91.1345 23.6 91.5078 24.048C91.8918 24.4853 92.0838 25.0933 92.0838 25.872V32H90.6438V26.048C90.6438 25.504 90.5531 25.1147 90.3718 24.88C90.1905 24.6347 89.9131 24.512 89.5398 24.512C88.8358 24.512 88.1958 25.0133 87.6198 26.016V32H86.1798V23.584H87.4278L87.5398 24.832C88.1905 23.8613 88.9905 23.376 89.9398 23.376ZM98.6013 31.632C98.068 32.016 97.476 32.208 96.8253 32.208C96.1426 32.208 95.6146 32.0107 95.2413 31.616C94.8786 31.2213 94.6973 30.6667 94.6973 29.952V24.672H93.4973V23.584H94.6973V21.648L96.1373 21.472V23.584H97.9933L97.8333 24.672H96.1373V29.936C96.1373 30.6613 96.4413 31.024 97.0493 31.024C97.2306 31.024 97.396 30.9973 97.5453 30.944C97.7053 30.8907 97.8813 30.8107 98.0733 30.704L98.6013 31.632Z" fill="#464646"/>
<rect width="54" height="54" fill="black"/>
<path d="M46.7089 37.1171C46.7089 37.6898 46.3027 38.3818 45.8009 38.6681L28.2624 48.7853C27.7606 49.0716 26.9482 49.0716 26.4464 48.7853L8.90799 38.6681C8.4062 38.3818 8 37.6898 8 37.1171V16.8829C8 16.3102 8.4062 15.6182 8.90799 15.3319L26.4464 5.21475C26.9482 4.92842 27.7606 4.92842 28.2624 5.21475L45.8009 15.3319C46.3027 15.6182 46.7089 16.3102 46.7089 16.8829V37.1171Z" fill="white"/>
<path d="M36.3461 27.1578L31.8019 33.9565L29.4824 30.3273L32.1569 26.2384C32.6539 25.5126 33.719 23.5045 32.4882 20.7705C31.4942 18.5445 29.3404 17.48 27.447 17.48C25.5535 17.48 23.4944 18.472 22.382 20.7705C21.1276 23.4077 22.2163 25.4642 22.6897 26.1659C22.6897 26.1659 24.1808 28.3918 25.4115 30.279L27.4233 33.2549L30.4528 37.9971C30.4765 38.0212 30.9498 38.7713 31.8019 38.7713C32.6066 38.7713 33.1036 38.0212 33.1746 37.9487L40.275 27.2062H36.3461V27.1578ZM27.4233 27.3272C27.4233 27.3272 26.2399 25.4884 25.4589 24.2061C24.6305 22.827 25.5535 20.7705 27.4233 20.7705C29.2931 20.7705 30.2161 22.827 29.3877 24.2061C28.6304 25.4884 27.4233 27.3272 27.4233 27.3272Z" fill="url(#paint0_radial_1000_332)"/>
<path d="M23.0701 33.7388L18.6206 27.3514C18.6206 27.3514 17.4372 25.5126 16.6561 24.2303C15.8277 22.8512 16.7508 20.7946 18.6206 20.7946C18.8572 20.7946 19.0703 20.8188 19.2833 20.8914L20.8454 17.9639C20.1353 17.6493 19.3543 17.48 18.6442 17.48C16.7508 17.48 14.6917 18.472 13.5793 20.7705C12.3249 23.4077 13.4136 25.4642 13.887 26.1659L21.6737 37.9487C21.7447 38.0454 22.2418 38.7955 23.0701 38.7955C23.8985 38.7955 24.3719 38.0696 24.4429 37.9729L26.786 34.3195L24.7742 31.2951L23.0701 33.7388Z" fill="url(#paint1_radial_1000_332)"/>
<defs>
<radialGradient id="paint0_radial_1000_332" cx="0" cy="0" r="1" gradientUnits="userSpaceOnUse" gradientTransform="translate(25.9467 19.0762) scale(20.9311 20.9311)">
<stop stop-color="#FFCC00"/>
<stop offset="0.09157" stop-color="#FFC800"/>
<stop offset="0.1739" stop-color="#FFBD00"/>
<stop offset="0.2528" stop-color="#FFAB00"/>
<stop offset="0.3295" stop-color="#FF9100"/>
<stop offset="0.4046" stop-color="#FF7000"/>
<stop offset="0.4786" stop-color="#FF4700"/>
<stop offset="0.5503" stop-color="#FF1800"/>
<stop offset="0.5822" stop-color="#FF0000"/>
<stop offset="1" stop-color="#FF0000"/>
</radialGradient>
<radialGradient id="paint1_radial_1000_332" cx="0" cy="0" r="1" gradientUnits="userSpaceOnUse" gradientTransform="translate(13.3313 19.4335) scale(19.1921 19.192)">
<stop stop-color="#00B4E6"/>
<stop offset="0.201" stop-color="#00B0E3"/>
<stop offset="0.3898" stop-color="#01A5DB"/>
<stop offset="0.5737" stop-color="#0292CD"/>
<stop offset="0.7546" stop-color="#0377BA"/>
<stop offset="0.9316" stop-color="#0455A1"/>
<stop offset="1" stop-color="#054696"/>
</radialGradient>
</defs>
</svg>
