<svg width="159" height="54" viewBox="0 0 159 54" fill="none" xmlns="http://www.w3.org/2000/svg">
<path d="M27.5976 54H4.34605C1.94579 54 0 52.0542 0 49.6539V4.34605C0 1.94579 1.94579 0 4.34605 0H27.5976C29.9978 0 31.9436 1.94579 31.9436 4.34605V49.6539C31.9436 52.0542 29.9978 54 27.5976 54Z" fill="#464646"/>
<path d="M27.5974 0H24.3379C26.7381 0 28.6839 1.94579 28.6839 4.34605V49.6539C28.6839 52.0542 26.7381 54 24.3379 54H27.5974C29.9977 54 31.9435 52.0542 31.9435 49.6539V4.34605C31.9435 1.94579 29.9977 0 27.5974 0V0Z" fill="#464646"/>
<path d="M29.1191 4.346V49.6539C29.1191 50.494 28.4381 51.1751 27.5979 51.1751H4.34637C3.50631 51.1751 2.8252 50.4941 2.8252 49.6539V4.346C2.8252 3.50595 3.50621 2.82483 4.34637 2.82483H8.70371C8.95704 2.82483 9.18232 2.98556 9.2648 3.22508L9.83897 4.89318C9.92145 5.1327 10.1467 5.29343 10.4001 5.29343H21.5443C21.7977 5.29343 22.0229 5.1327 22.1054 4.89318L22.6796 3.22508C22.7621 2.98556 22.9873 2.82483 23.2407 2.82483H27.598C28.438 2.82493 29.1191 3.50595 29.1191 4.346Z" fill="white"/>
<path d="M20.2087 44.1671H11.7339C10.4737 44.1671 9.45215 43.1455 9.45215 41.8853C9.45215 40.6252 10.4737 39.6036 11.7339 39.6036H20.2087C21.4688 39.6036 22.4904 40.6252 22.4904 41.8853C22.4904 43.1455 21.4688 44.1671 20.2087 44.1671Z" fill="#CC950C"/>
<path d="M46.9772 34.7143H9.52059C8.34261 34.7143 7.3877 33.7594 7.3877 32.5814V10.7707C7.3877 9.59273 8.34261 8.63782 9.52059 8.63782H46.9771C48.1551 8.63782 49.11 9.59273 49.11 10.7707V32.5814C49.1101 33.7594 48.1552 34.7143 46.9772 34.7143Z" fill="#A3A3A3"/>
<path d="M46.9773 8.63782H43.7178C44.8958 8.63782 45.8507 9.59273 45.8507 10.7707V32.5814C45.8507 33.7594 44.8958 34.7143 43.7178 34.7143H46.9773C48.1553 34.7143 49.1102 33.7594 49.1102 32.5814V10.7707C49.1102 9.59284 48.1553 8.63782 46.9773 8.63782Z" fill="#A3A3A3"/>
<path d="M38.1156 24.5171C38.113 24.5101 38.1101 24.5029 38.1073 24.4958C37.9628 24.1443 37.624 23.9172 37.2439 23.9172H37.2435C36.8633 23.9173 36.5243 24.1448 36.38 24.4967C36.3776 24.5028 36.3751 24.5089 36.3727 24.5152L34.013 30.7111C33.8574 31.1193 34.0624 31.5763 34.4707 31.7318C34.5633 31.7672 34.6584 31.7838 34.7521 31.7838C35.0707 31.7838 35.3712 31.5898 35.4914 31.2741L35.885 30.2405H38.5845L38.9738 31.2719C39.128 31.6806 39.5845 31.887 39.9932 31.7326C40.4018 31.5784 40.6081 31.122 40.4538 30.7132L38.1156 24.5171ZM36.4877 28.6585L37.2412 26.6803L37.9877 28.6585H36.4877Z" fill="#F2F2F2"/>
<path d="M45.1409 24.0612C44.7748 23.8227 44.2847 23.9265 44.0464 24.2925L42.7174 26.334L41.3733 24.2756C41.1344 23.9097 40.6442 23.807 40.2786 24.0458C39.9128 24.2847 39.8099 24.7747 40.0486 25.1405L41.9268 28.0168L41.9194 30.9905C41.9184 31.4274 42.2717 31.7824 42.7085 31.7835H42.7105C43.1465 31.7835 43.5004 31.4306 43.5015 30.9945L43.5089 28.018L45.3722 25.1556C45.6105 24.7894 45.507 24.2994 45.1409 24.0612Z" fill="#F2F2F2"/>
<path d="M31.9461 23.9174H30.1963C29.9861 23.9174 29.7845 24.0011 29.636 24.1499C29.4876 24.2988 29.4045 24.5007 29.4053 24.7109V30.9927C29.4053 31.4297 29.7593 31.7837 30.1963 31.7837C30.6333 31.7837 30.9873 31.4297 30.9873 30.9927V29.0498C31.3379 29.048 31.7231 29.0463 31.9461 29.0463C33.3793 29.0463 34.5454 27.8959 34.5454 26.4818C34.5454 25.0678 33.3793 23.9174 31.9461 23.9174ZM31.9461 27.4642C31.7245 27.4642 31.3442 27.4659 30.9952 27.4675C30.9933 27.1064 30.9917 26.7094 30.9917 26.4816C30.9917 26.2885 30.9907 25.8774 30.9896 25.4993H31.946C32.4974 25.4993 32.9633 25.9492 32.9633 26.4816C32.9634 27.0143 32.4975 27.4642 31.9461 27.4642Z" fill="#F2F2F2"/>
<path d="M19.6656 18.5251H12.9292C12.5692 18.5251 12.2773 18.2333 12.2773 17.8732V13.5271C12.2773 13.1671 12.5692 12.8752 12.9292 12.8752H19.6656C20.0257 12.8752 20.3175 13.1671 20.3175 13.5271V17.8732C20.3175 18.2333 20.0257 18.5251 19.6656 18.5251Z" fill="#CC950C"/>
<path d="M16.9491 30.6752H7.3877V25.0254H16.9491C18.5093 25.0254 19.774 26.2902 19.774 27.8504C19.774 29.4105 18.5093 30.6752 16.9491 30.6752Z" fill="#A3A3A3"/>
<path d="M27.3154 14.0475C26.8785 14.0475 26.5244 14.4015 26.5244 14.8385V16.1423C26.5244 16.5793 26.8785 16.9333 27.3154 16.9333C27.7524 16.9333 28.1064 16.5793 28.1064 16.1423V14.8385C28.1064 14.4016 27.7523 14.0475 27.3154 14.0475Z" fill="#F2F2F2"/>
<path d="M40.7549 14.0475C40.3179 14.0475 39.9639 14.4015 39.9639 14.8385V16.1423C39.9639 16.5793 40.3179 16.9333 40.7549 16.9333C41.1918 16.9333 41.5459 16.5793 41.5459 16.1423V14.8385C41.5459 14.4016 41.1918 14.0475 40.7549 14.0475Z" fill="#F2F2F2"/>
<path d="M43.6602 14.0475C43.2232 14.0475 42.8691 14.4015 42.8691 14.8385V16.1423C42.8691 16.5793 43.2232 16.9333 43.6602 16.9333C44.0971 16.9333 44.4512 16.5793 44.4512 16.1423V14.8385C44.4512 14.4016 44.0971 14.0475 43.6602 14.0475Z" fill="#F2F2F2"/>
<path d="M31.5332 14.0475C31.0962 14.0475 30.7422 14.4015 30.7422 14.8385V16.1423C30.7422 16.5793 31.0962 16.9333 31.5332 16.9333C31.9702 16.9333 32.3242 16.5793 32.3242 16.1423V14.8385C32.3242 14.4016 31.9702 14.0475 31.5332 14.0475Z" fill="#F2F2F2"/>
<path d="M34.6113 14.0475C34.1744 14.0475 33.8203 14.4015 33.8203 14.8385V16.1423C33.8203 16.5793 34.1744 16.9333 34.6113 16.9333C35.0483 16.9333 35.4023 16.5793 35.4023 16.1423V14.8385C35.4023 14.4016 35.0482 14.0475 34.6113 14.0475Z" fill="#F2F2F2"/>
<path d="M67.016 11.992L63.976 23H62.2L59.112 11.992H60.648L63.112 21.56L65.544 11.992H67.016ZM70.9584 14.376C72.0357 14.376 72.873 14.7547 73.4704 15.512C74.0677 16.2693 74.3664 17.3573 74.3664 18.776C74.3664 20.1413 74.0624 21.224 73.4544 22.024C72.8464 22.8133 72.009 23.208 70.9424 23.208C69.865 23.208 69.0224 22.8187 68.4144 22.04C67.817 21.2613 67.5184 20.1787 67.5184 18.792C67.5184 17.3947 67.8224 16.312 68.4304 15.544C69.0384 14.7653 69.881 14.376 70.9584 14.376ZM70.9584 15.528C70.329 15.528 69.849 15.7947 69.5184 16.328C69.1877 16.8507 69.0224 17.672 69.0224 18.792C69.0224 20.9787 69.6624 22.072 70.9424 22.072C72.2224 22.072 72.8624 20.9733 72.8624 18.776C72.8624 17.656 72.7024 16.8347 72.3824 16.312C72.0624 15.7893 71.5877 15.528 70.9584 15.528ZM79.9083 14.392C80.1856 14.392 80.4256 14.424 80.6283 14.488L80.3883 15.88C80.1856 15.816 79.9669 15.784 79.7323 15.784C79.2629 15.784 78.8789 15.9707 78.5803 16.344C78.2923 16.7173 78.0629 17.288 77.8923 18.056V23H76.4523V14.584H77.7003L77.8123 16.248C78.2283 15.0107 78.9269 14.392 79.9083 14.392ZM83.4704 11.016V23H82.0304V11.176L83.4704 11.016ZM87.9024 14.584L85.0544 18.328L88.1744 23H86.5744L83.5504 18.392L86.3984 14.584H87.9024ZM94.4971 21.08C94.4971 21.4213 94.5451 21.6773 94.6411 21.848C94.7371 22.008 94.8865 22.1307 95.0891 22.216L94.7851 23.192C94.3691 23.128 94.0438 23 93.8091 22.808C93.5745 22.616 93.4091 22.3227 93.3131 21.928C92.7691 22.7813 92.0065 23.208 91.0251 23.208C90.2785 23.208 89.6865 22.9787 89.2491 22.52C88.8118 22.0507 88.5931 21.4267 88.5931 20.648C88.5931 19.752 88.8865 19.0693 89.4731 18.6C90.0598 18.1307 90.8971 17.896 91.9851 17.896H93.0731V17.176C93.0731 16.5893 92.9505 16.168 92.7051 15.912C92.4705 15.6453 92.0811 15.512 91.5371 15.512C90.9505 15.512 90.2678 15.6613 89.4891 15.96L89.1371 14.952C90.0758 14.568 90.9505 14.376 91.7611 14.376C93.5851 14.376 94.4971 15.288 94.4971 17.112V21.08ZM91.3611 22.12C92.1078 22.12 92.6785 21.6827 93.0731 20.808V18.824H92.1451C90.7585 18.824 90.0651 19.4053 90.0651 20.568C90.0651 21.0693 90.1771 21.4533 90.4011 21.72C90.6251 21.9867 90.9451 22.12 91.3611 22.12ZM99.1595 14.376C100.13 14.376 100.994 14.696 101.752 15.336L101.144 16.184C100.802 15.9493 100.482 15.7733 100.184 15.656C99.8848 15.5387 99.5702 15.48 99.2395 15.48C98.8022 15.48 98.4555 15.5867 98.1995 15.8C97.9542 16.0027 97.8315 16.2853 97.8315 16.648C97.8315 17 97.9488 17.2773 98.1835 17.48C98.4288 17.6827 98.8875 17.8907 99.5595 18.104C100.402 18.3707 101.016 18.696 101.4 19.08C101.784 19.464 101.976 19.992 101.976 20.664C101.976 21.4533 101.688 22.0773 101.112 22.536C100.536 22.984 99.8155 23.208 98.9515 23.208C97.8102 23.208 96.8448 22.8293 96.0555 22.072L96.7915 21.272C97.4635 21.816 98.1728 22.088 98.9195 22.088C99.3888 22.088 99.7675 21.9707 100.056 21.736C100.344 21.5013 100.488 21.176 100.488 20.76C100.488 20.4613 100.434 20.2213 100.328 20.04C100.232 19.8587 100.05 19.6987 99.7835 19.56C99.5275 19.4107 99.1488 19.256 98.6475 19.096C97.8475 18.8293 97.2715 18.5093 96.9195 18.136C96.5675 17.7627 96.3915 17.288 96.3915 16.712C96.3915 16.264 96.5088 15.864 96.7435 15.512C96.9782 15.16 97.3035 14.8827 97.7195 14.68C98.1355 14.4773 98.6155 14.376 99.1595 14.376ZM105.831 14.376C106.802 14.376 107.666 14.696 108.423 15.336L107.815 16.184C107.474 15.9493 107.154 15.7733 106.855 15.656C106.557 15.5387 106.242 15.48 105.911 15.48C105.474 15.48 105.127 15.5867 104.871 15.8C104.626 16.0027 104.503 16.2853 104.503 16.648C104.503 17 104.621 17.2773 104.855 17.48C105.101 17.6827 105.559 17.8907 106.231 18.104C107.074 18.3707 107.687 18.696 108.071 19.08C108.455 19.464 108.647 19.992 108.647 20.664C108.647 21.4533 108.359 22.0773 107.783 22.536C107.207 22.984 106.487 23.208 105.623 23.208C104.482 23.208 103.517 22.8293 102.727 22.072L103.463 21.272C104.135 21.816 104.845 22.088 105.591 22.088C106.061 22.088 106.439 21.9707 106.727 21.736C107.015 21.5013 107.159 21.176 107.159 20.76C107.159 20.4613 107.106 20.2213 106.999 20.04C106.903 19.8587 106.722 19.6987 106.455 19.56C106.199 19.4107 105.821 19.256 105.319 19.096C104.519 18.8293 103.943 18.5093 103.591 18.136C103.239 17.7627 103.063 17.288 103.063 16.712C103.063 16.264 103.181 15.864 103.415 15.512C103.65 15.16 103.975 14.8827 104.391 14.68C104.807 14.4773 105.287 14.376 105.831 14.376ZM116.388 18.536C116.388 18.76 116.377 19.0107 116.356 19.288H111.46C111.502 20.2693 111.7 20.9787 112.052 21.416C112.404 21.8427 112.884 22.056 113.492 22.056C113.876 22.056 114.217 21.9973 114.516 21.88C114.825 21.7627 115.145 21.5707 115.476 21.304L116.116 22.152C115.326 22.856 114.43 23.208 113.428 23.208C112.329 23.208 111.476 22.8293 110.868 22.072C110.27 21.304 109.972 20.232 109.972 18.856C109.972 17.48 110.26 16.392 110.836 15.592C111.412 14.7813 112.212 14.376 113.236 14.376C114.249 14.376 115.028 14.7387 115.572 15.464C116.116 16.1787 116.388 17.2027 116.388 18.536ZM114.996 18.104C114.996 16.344 114.414 15.464 113.252 15.464C112.718 15.464 112.297 15.688 111.988 16.136C111.678 16.5733 111.502 17.288 111.46 18.28H114.996V18.104ZM128.139 11.176V23H126.859L126.763 21.896C126.219 22.7707 125.489 23.208 124.571 23.208C123.654 23.208 122.939 22.8187 122.427 22.04C121.926 21.2613 121.675 20.1893 121.675 18.824C121.675 17.9387 121.798 17.16 122.043 16.488C122.299 15.816 122.657 15.2987 123.115 14.936C123.574 14.5627 124.102 14.376 124.699 14.376C125.499 14.376 126.166 14.712 126.699 15.384V11.016L128.139 11.176ZM124.907 22.072C125.291 22.072 125.622 21.9653 125.899 21.752C126.187 21.5387 126.454 21.224 126.699 20.808V16.584C126.219 15.8693 125.659 15.512 125.019 15.512C124.454 15.512 124.006 15.784 123.675 16.328C123.345 16.872 123.185 17.6933 123.195 18.792C123.195 19.912 123.345 20.7387 123.643 21.272C123.942 21.8053 124.363 22.072 124.907 22.072ZM136.51 23H135.262L135.182 21.736C134.595 22.7173 133.811 23.208 132.83 23.208C132.158 23.208 131.63 22.9893 131.246 22.552C130.862 22.1147 130.67 21.5227 130.67 20.776V14.584H132.11V20.648C132.11 21.1387 132.2 21.5013 132.382 21.736C132.574 21.96 132.856 22.072 133.23 22.072C133.944 22.072 134.558 21.6027 135.07 20.664V14.584H136.51V23ZM142.565 14.392C142.842 14.392 143.082 14.424 143.285 14.488L143.045 15.88C142.842 15.816 142.623 15.784 142.389 15.784C141.919 15.784 141.535 15.9707 141.237 16.344C140.949 16.7173 140.719 17.288 140.549 18.056V23H139.109V14.584H140.357L140.469 16.248C140.885 15.0107 141.583 14.392 142.565 14.392ZM147.161 14.376C147.61 14.376 148.02 14.4507 148.394 14.6C148.767 14.7493 149.124 14.9787 149.466 15.288L148.826 16.152C148.57 15.9493 148.314 15.8 148.058 15.704C147.802 15.5973 147.524 15.544 147.226 15.544C146.596 15.544 146.106 15.8107 145.754 16.344C145.412 16.8773 145.242 17.7093 145.242 18.84C145.242 20.952 145.903 22.008 147.226 22.008C147.524 22.008 147.796 21.96 148.042 21.864C148.287 21.7573 148.548 21.6027 148.826 21.4L149.498 22.28C148.815 22.8987 148.042 23.208 147.178 23.208C146.1 23.208 145.252 22.8347 144.634 22.088C144.026 21.3413 143.722 20.264 143.722 18.856C143.722 17.9387 143.86 17.144 144.138 16.472C144.426 15.8 144.826 15.2827 145.338 14.92C145.86 14.5573 146.468 14.376 147.161 14.376ZM154.837 14.376C155.509 14.376 156.032 14.6 156.405 15.048C156.789 15.496 156.981 16.104 156.981 16.872V23H155.541V17.048C155.541 16.504 155.445 16.1147 155.253 15.88C155.072 15.6347 154.8 15.512 154.437 15.512C153.733 15.512 153.093 16.0133 152.517 17.016V23H151.077V11.192L152.517 11.032V15.784C152.827 15.3253 153.168 14.9787 153.541 14.744C153.915 14.4987 154.347 14.376 154.837 14.376ZM67.224 38.768C67.224 39.7813 66.92 40.608 66.312 41.248C65.704 41.888 64.8347 42.208 63.704 42.208C62.5627 42.208 61.6933 41.8933 61.096 41.264C60.4987 40.624 60.2 39.792 60.2 38.768V30.992H61.688V38.672C61.688 40.2187 62.36 40.992 63.704 40.992C65.048 40.992 65.72 40.2187 65.72 38.672V30.992H67.224V38.768ZM62.248 27.792C62.4827 27.792 62.68 27.872 62.84 28.032C63 28.192 63.08 28.3947 63.08 28.64C63.08 28.8853 63 29.0933 62.84 29.264C62.68 29.424 62.4827 29.504 62.248 29.504C62.0027 29.504 61.8 29.424 61.64 29.264C61.48 29.0933 61.4 28.8853 61.4 28.64C61.4 28.3947 61.48 28.192 61.64 28.032C61.8 27.872 62.0027 27.792 62.248 27.792ZM65.24 27.792C65.4747 27.792 65.672 27.872 65.832 28.032C65.992 28.192 66.072 28.3947 66.072 28.64C66.072 28.8853 65.992 29.0933 65.832 29.264C65.672 29.424 65.4747 29.504 65.24 29.504C65.0053 29.504 64.8027 29.424 64.632 29.264C64.472 29.0933 64.392 28.8853 64.392 28.64C64.392 28.3947 64.472 28.192 64.632 28.032C64.792 27.872 64.9947 27.792 65.24 27.792ZM73.3183 33.376C74.2036 33.376 74.8863 33.7547 75.3663 34.512C75.8569 35.2587 76.1023 36.3467 76.1023 37.776C76.1023 39.1413 75.8356 40.224 75.3023 41.024C74.7796 41.8133 74.0649 42.208 73.1583 42.208C72.7316 42.208 72.3423 42.112 71.9903 41.92C71.6383 41.7173 71.3343 41.4347 71.0783 41.072L70.9823 42H69.7023V30.192L71.1423 30.032V34.608C71.4089 34.224 71.7236 33.9253 72.0863 33.712C72.4596 33.488 72.8703 33.376 73.3183 33.376ZM72.8223 41.072C74.0063 41.072 74.5983 39.9733 74.5983 37.776C74.5983 36.592 74.4543 35.7547 74.1663 35.264C73.8783 34.7627 73.4676 34.512 72.9343 34.512C72.5609 34.512 72.2303 34.624 71.9423 34.848C71.6649 35.072 71.3983 35.3867 71.1423 35.792V39.968C71.3449 40.2987 71.5903 40.5653 71.8783 40.768C72.1663 40.9707 72.4809 41.072 72.8223 41.072ZM84.1219 37.536C84.1219 37.76 84.1112 38.0107 84.0899 38.288H79.1939C79.2365 39.2693 79.4339 39.9787 79.7859 40.416C80.1379 40.8427 80.6179 41.056 81.2259 41.056C81.6099 41.056 81.9512 40.9973 82.2499 40.88C82.5592 40.7627 82.8792 40.5707 83.2099 40.304L83.8499 41.152C83.0605 41.856 82.1645 42.208 81.1619 42.208C80.0632 42.208 79.2099 41.8293 78.6019 41.072C78.0045 40.304 77.7059 39.232 77.7059 37.856C77.7059 36.48 77.9939 35.392 78.5699 34.592C79.1459 33.7813 79.9459 33.376 80.9699 33.376C81.9832 33.376 82.7619 33.7387 83.3059 34.464C83.8499 35.1787 84.1219 36.2027 84.1219 37.536ZM82.7299 37.104C82.7299 35.344 82.1485 34.464 80.9859 34.464C80.4525 34.464 80.0312 34.688 79.7219 35.136C79.4125 35.5733 79.2365 36.288 79.1939 37.28H82.7299V37.104ZM89.5801 33.392C89.8575 33.392 90.0975 33.424 90.3001 33.488L90.0601 34.88C89.8575 34.816 89.6388 34.784 89.4041 34.784C88.9348 34.784 88.5508 34.9707 88.2521 35.344C87.9641 35.7173 87.7348 36.288 87.5641 37.056V42H86.1241V33.584H87.3721L87.4841 35.248C87.9001 34.0107 88.5988 33.392 89.5801 33.392ZM100.582 33.584L98.8542 42H97.0303L95.6543 34.896L94.2943 42H92.4703L90.7103 33.584H92.1343L93.4463 40.912L94.9183 33.584H96.4703L97.8943 40.928L99.2222 33.584H100.582ZM108.091 37.536C108.091 37.76 108.08 38.0107 108.059 38.288H103.163C103.205 39.2693 103.403 39.9787 103.755 40.416C104.107 40.8427 104.587 41.056 105.195 41.056C105.579 41.056 105.92 40.9973 106.219 40.88C106.528 40.7627 106.848 40.5707 107.179 40.304L107.819 41.152C107.029 41.856 106.133 42.208 105.131 42.208C104.032 42.208 103.179 41.8293 102.571 41.072C101.973 40.304 101.675 39.232 101.675 37.856C101.675 36.48 101.963 35.392 102.539 34.592C103.115 33.7813 103.915 33.376 104.939 33.376C105.952 33.376 106.731 33.7387 107.275 34.464C107.819 35.1787 108.091 36.2027 108.091 37.536ZM106.699 37.104C106.699 35.344 106.117 34.464 104.955 34.464C104.421 34.464 104 34.688 103.691 35.136C103.381 35.5733 103.205 36.288 103.163 37.28H106.699V37.104ZM111.533 33.584V42H110.093V33.584H111.533ZM110.813 29.616C111.09 29.616 111.314 29.7067 111.485 29.888C111.666 30.0693 111.757 30.2933 111.757 30.56C111.757 30.8267 111.672 31.0507 111.501 31.232C111.33 31.4027 111.101 31.488 110.813 31.488C110.536 31.488 110.306 31.4027 110.125 31.232C109.954 31.0507 109.869 30.8267 109.869 30.56C109.869 30.2933 109.954 30.0693 110.125 29.888C110.306 29.7067 110.536 29.616 110.813 29.616ZM116.3 33.376C117.271 33.376 118.135 33.696 118.892 34.336L118.284 35.184C117.943 34.9493 117.623 34.7733 117.324 34.656C117.025 34.5387 116.711 34.48 116.38 34.48C115.943 34.48 115.596 34.5867 115.34 34.8C115.095 35.0027 114.972 35.2853 114.972 35.648C114.972 36 115.089 36.2773 115.324 36.48C115.569 36.6827 116.028 36.8907 116.7 37.104C117.543 37.3707 118.156 37.696 118.54 38.08C118.924 38.464 119.116 38.992 119.116 39.664C119.116 40.4533 118.828 41.0773 118.252 41.536C117.676 41.984 116.956 42.208 116.092 42.208C114.951 42.208 113.985 41.8293 113.196 41.072L113.932 40.272C114.604 40.816 115.313 41.088 116.06 41.088C116.529 41.088 116.908 40.9707 117.196 40.736C117.484 40.5013 117.628 40.176 117.628 39.76C117.628 39.4613 117.575 39.2213 117.468 39.04C117.372 38.8587 117.191 38.6987 116.924 38.56C116.668 38.4107 116.289 38.256 115.788 38.096C114.988 37.8293 114.412 37.5093 114.06 37.136C113.708 36.7627 113.532 36.288 113.532 35.712C113.532 35.264 113.649 34.864 113.884 34.512C114.119 34.16 114.444 33.8827 114.86 33.68C115.276 33.4773 115.756 33.376 116.3 33.376ZM126.728 42H125.48L125.4 40.736C124.814 41.7173 124.03 42.208 123.048 42.208C122.376 42.208 121.848 41.9893 121.464 41.552C121.08 41.1147 120.888 40.5227 120.888 39.776V33.584H122.328V39.648C122.328 40.1387 122.419 40.5013 122.6 40.736C122.792 40.96 123.075 41.072 123.448 41.072C124.163 41.072 124.776 40.6027 125.288 39.664V33.584H126.728V42ZM133.087 33.376C133.759 33.376 134.282 33.6 134.655 34.048C135.039 34.4853 135.231 35.0933 135.231 35.872V42H133.791V36.048C133.791 35.504 133.701 35.1147 133.519 34.88C133.338 34.6347 133.061 34.512 132.687 34.512C131.983 34.512 131.343 35.0133 130.767 36.016V42H129.327V33.584H130.575L130.687 34.832C131.338 33.8613 132.138 33.376 133.087 33.376ZM143.941 33.888C143.482 34.0693 142.773 34.16 141.813 34.16C142.709 34.608 143.157 35.344 143.157 36.368C143.157 37.2107 142.89 37.8933 142.357 38.416C141.834 38.928 141.119 39.184 140.213 39.184C139.871 39.184 139.562 39.1307 139.285 39.024C138.986 39.2373 138.837 39.5093 138.837 39.84C138.837 40.3413 139.189 40.592 139.893 40.592H140.997C141.829 40.592 142.49 40.8053 142.981 41.232C143.471 41.648 143.717 42.1813 143.717 42.832C143.717 43.6213 143.413 44.24 142.805 44.688C142.197 45.1467 141.306 45.376 140.133 45.376C138.917 45.376 138.053 45.168 137.541 44.752C137.039 44.336 136.789 43.7013 136.789 42.848H138.085C138.085 43.2 138.143 43.4773 138.261 43.68C138.389 43.8933 138.597 44.048 138.885 44.144C139.183 44.2507 139.605 44.304 140.149 44.304C140.906 44.304 141.45 44.1867 141.781 43.952C142.111 43.7173 142.277 43.3813 142.277 42.944C142.277 42.5387 142.138 42.2293 141.861 42.016C141.594 41.8027 141.21 41.696 140.709 41.696H139.765C139.029 41.696 138.479 41.5573 138.117 41.28C137.754 40.992 137.573 40.6133 137.573 40.144C137.573 39.6 137.866 39.1147 138.453 38.688C138.005 38.432 137.669 38.112 137.445 37.728C137.231 37.3333 137.125 36.8587 137.125 36.304C137.125 35.4293 137.402 34.7253 137.957 34.192C138.511 33.6587 139.242 33.392 140.149 33.392C140.991 33.392 141.642 33.3333 142.101 33.216C142.57 33.0987 143.05 32.9173 143.541 32.672L143.941 33.888ZM140.165 34.4C139.642 34.4 139.242 34.5653 138.965 34.896C138.698 35.216 138.565 35.6853 138.565 36.304C138.565 36.9013 138.703 37.3707 138.981 37.712C139.269 38.0427 139.663 38.208 140.165 38.208C141.221 38.208 141.749 37.568 141.749 36.288C141.749 35.6693 141.615 35.2 141.349 34.88C141.082 34.56 140.687 34.4 140.165 34.4Z" fill="#464646"/>
</svg>
