<svg width="103" height="20" viewBox="0 0 103 20" fill="none" xmlns="http://www.w3.org/2000/svg">
<path d="M64.724 5.744C65.436 5.744 66.056 5.852 66.584 6.068C67.112 6.284 67.54 6.692 67.868 7.292C68.204 7.892 68.372 8.736 68.372 9.824C68.372 11.376 68.04 12.46 67.376 13.076C66.72 13.692 65.888 14 64.88 14H63.02V5.744H64.724ZM64.136 6.62V13.136H64.952C65.64 13.136 66.188 12.9 66.596 12.428C67.004 11.948 67.208 11.08 67.208 9.824C67.208 8.944 67.1 8.268 66.884 7.796C66.676 7.324 66.404 7.012 66.068 6.86C65.74 6.7 65.348 6.62 64.892 6.62H64.136ZM71.0247 7.688V14H69.9447V7.688H71.0247ZM70.4847 4.712C70.6927 4.712 70.8607 4.78 70.9887 4.916C71.1247 5.052 71.1927 5.22 71.1927 5.42C71.1927 5.62 71.1287 5.788 71.0007 5.924C70.8727 6.052 70.7007 6.116 70.4847 6.116C70.2767 6.116 70.1047 6.052 69.9687 5.924C69.8407 5.788 69.7767 5.62 69.7767 5.42C69.7767 5.22 69.8407 5.052 69.9687 4.916C70.1047 4.78 70.2767 4.712 70.4847 4.712ZM77.3961 10.652C77.3961 10.82 77.3881 11.008 77.3721 11.216H73.7001C73.7321 11.952 73.8801 12.484 74.1441 12.812C74.4081 13.132 74.7681 13.292 75.2241 13.292C75.5121 13.292 75.7681 13.248 75.9921 13.16C76.2241 13.072 76.4641 12.928 76.7121 12.728L77.1921 13.364C76.6001 13.892 75.9281 14.156 75.1761 14.156C74.3521 14.156 73.7121 13.872 73.2561 13.304C72.8081 12.728 72.5841 11.924 72.5841 10.892C72.5841 9.86 72.8001 9.044 73.2321 8.444C73.6641 7.836 74.2641 7.532 75.0321 7.532C75.7921 7.532 76.3761 7.804 76.7841 8.348C77.1921 8.884 77.3961 9.652 77.3961 10.652ZM76.3521 10.328C76.3521 9.008 75.9161 8.348 75.0441 8.348C74.6441 8.348 74.3281 8.516 74.0961 8.852C73.8641 9.18 73.7321 9.716 73.7001 10.46H76.3521V10.328ZM83.642 5.744C84.634 5.744 85.39 5.956 85.91 6.38C86.43 6.804 86.69 7.44 86.69 8.288C86.69 9.184 86.422 9.852 85.886 10.292C85.358 10.724 84.622 10.94 83.678 10.94H82.886V14H81.77V5.744H83.642ZM83.642 10.076C84.274 10.076 84.746 9.944 85.058 9.68C85.37 9.416 85.526 8.956 85.526 8.3C85.526 7.7 85.37 7.268 85.058 7.004C84.754 6.732 84.286 6.596 83.654 6.596H82.886V10.076H83.642ZM89.836 7.532C90.644 7.532 91.272 7.816 91.72 8.384C92.168 8.952 92.392 9.768 92.392 10.832C92.392 11.856 92.164 12.668 91.708 13.268C91.252 13.86 90.624 14.156 89.824 14.156C89.016 14.156 88.384 13.864 87.928 13.28C87.48 12.696 87.256 11.884 87.256 10.844C87.256 9.796 87.484 8.984 87.94 8.408C88.396 7.824 89.028 7.532 89.836 7.532ZM89.836 8.396C89.364 8.396 89.004 8.596 88.756 8.996C88.508 9.388 88.384 10.004 88.384 10.844C88.384 12.484 88.864 13.304 89.824 13.304C90.784 13.304 91.264 12.48 91.264 10.832C91.264 9.992 91.144 9.376 90.904 8.984C90.664 8.592 90.308 8.396 89.836 8.396ZM95.5884 7.532C96.3164 7.532 96.9644 7.772 97.5324 8.252L97.0764 8.888C96.8204 8.712 96.5804 8.58 96.3564 8.492C96.1324 8.404 95.8964 8.36 95.6484 8.36C95.3204 8.36 95.0604 8.44 94.8684 8.6C94.6844 8.752 94.5924 8.964 94.5924 9.236C94.5924 9.5 94.6804 9.708 94.8564 9.86C95.0404 10.012 95.3844 10.168 95.8884 10.328C96.5204 10.528 96.9804 10.772 97.2684 11.06C97.5564 11.348 97.7004 11.744 97.7004 12.248C97.7004 12.84 97.4844 13.308 97.0524 13.652C96.6204 13.988 96.0804 14.156 95.4324 14.156C94.5764 14.156 93.8524 13.872 93.2604 13.304L93.8124 12.704C94.3164 13.112 94.8484 13.316 95.4084 13.316C95.7604 13.316 96.0444 13.228 96.2604 13.052C96.4764 12.876 96.5844 12.632 96.5844 12.32C96.5844 12.096 96.5444 11.916 96.4644 11.78C96.3924 11.644 96.2564 11.524 96.0564 11.42C95.8644 11.308 95.5804 11.192 95.2044 11.072C94.6044 10.872 94.1724 10.632 93.9084 10.352C93.6444 10.072 93.5124 9.716 93.5124 9.284C93.5124 8.948 93.6004 8.648 93.7764 8.384C93.9524 8.12 94.1964 7.912 94.5084 7.76C94.8204 7.608 95.1804 7.532 95.5884 7.532ZM102.065 13.724C101.665 14.012 101.221 14.156 100.733 14.156C100.221 14.156 99.8255 14.008 99.5455 13.712C99.2735 13.416 99.1375 13 99.1375 12.464V8.504H98.2375V7.688H99.1375V6.236L100.217 6.104V7.688H101.609L101.489 8.504H100.217V12.452C100.217 12.996 100.445 13.268 100.901 13.268C101.037 13.268 101.161 13.248 101.273 13.208C101.393 13.168 101.525 13.108 101.669 13.028L102.065 13.724Z" fill="#464646"/>
<g clip-path="url(#clip0_1332_268)">
<path fill-rule="evenodd" clip-rule="evenodd" d="M0 0H58V20H0V0Z" fill="#FFCC00"/>
<path fill-rule="evenodd" clip-rule="evenodd" d="M41.3368 14.997L41.9601 12.0791H6.47204L5.84961 14.997H41.3368Z" fill="white"/>
<path fill-rule="evenodd" clip-rule="evenodd" d="M15.5321 6.96729H14.2124L12.9004 13.0524H14.2205L15.5321 6.96729Z" fill="black"/>
<path fill-rule="evenodd" clip-rule="evenodd" d="M20.157 6.96729H16.4671L15.1636 13.0524H18.8943L19.1324 11.9484H16.7209L17.0487 10.4348H19.14L19.3781 9.33932H17.2868L17.5576 8.07166H19.9189L20.157 6.96729Z" fill="black"/>
<path fill-rule="evenodd" clip-rule="evenodd" d="M11.4848 10.118C11.3292 10.8373 10.8943 11.7135 9.94321 11.9013C9.74722 11.934 9.5661 11.9425 9.4105 11.9425H8.78722L9.60734 8.09753H10.1728C10.3127 8.09753 10.5014 8.10559 10.649 8.13019C11.518 8.27735 11.6983 9.16077 11.4848 10.118ZM10.9729 7.008C10.7187 6.97492 10.3828 6.96729 10.1775 6.96729H8.51342L7.20947 13.0524H9.40752C9.60394 13.0524 9.84968 13.0443 10.0227 13.0206C11.7437 12.8072 12.5804 11.5642 12.8262 10.2961C13.171 8.5297 12.5481 7.23702 10.9729 7.008Z" fill="black"/>
<path fill-rule="evenodd" clip-rule="evenodd" d="M42.0835 6.96729H37.4595L37.2134 8.09541H38.8694L37.8039 13.0524H39.1236L40.1899 8.09541H41.8382L42.0835 6.96729Z" fill="black"/>
<path fill-rule="evenodd" clip-rule="evenodd" d="M30.9683 10.0199C30.7548 11.0017 30.3535 12.0238 29.2383 12.0238C28.1635 12.0238 28.0164 11.0178 28.2379 10.0199C28.4505 9.03851 28.8527 8.01641 29.9675 8.01641C31.0422 8.01641 31.1902 9.02154 30.9683 10.0199ZM30.0635 6.90186C27.9475 6.90186 27.1436 8.33322 26.8069 10.0101C26.4629 11.6866 27.1767 13.118 29.1035 13.118C31.2191 13.118 32.0226 11.6866 32.3589 10.0101C32.7029 8.33322 31.9899 6.90186 30.0635 6.90186Z" fill="black"/>
<path fill-rule="evenodd" clip-rule="evenodd" d="M33.0318 8.75829C33.0318 9.47758 33.4748 9.83001 33.8923 10.1489L34.5896 10.6642C34.729 10.7707 34.8604 10.8606 34.9586 10.9751C35.0487 11.0731 35.1223 11.171 35.1223 11.3267C35.1223 11.5472 35.016 11.6863 34.868 11.7847C34.5896 11.965 34.1555 11.965 33.8923 11.965C33.4748 11.965 32.8273 11.8424 32.5803 11.7436L32.187 12.8564C32.6623 13.0278 33.4251 13.1016 33.9748 13.1016C34.6389 13.1016 35.1142 13.0121 35.5164 12.8399C36.2375 12.5371 36.5984 11.9726 36.5984 11.3106C36.5984 10.9183 36.4675 10.6562 36.2872 10.4191C36.1392 10.2308 35.9016 10.0259 35.6312 9.82153L34.9998 9.34737C34.6801 9.1103 34.4416 8.93005 34.4416 8.65184C34.4416 8.39059 34.6223 8.16157 34.9586 8.12043C35.1639 8.09583 35.3523 8.09583 35.6639 8.09583H36.6639L36.9101 6.96729H35.7949C35.4752 6.96729 35.0568 6.96729 34.6967 7.008C33.8358 7.10597 33.0318 7.71965 33.0318 8.75829Z" fill="black"/>
<path fill-rule="evenodd" clip-rule="evenodd" d="M25.1915 9.1103C25.1098 9.61711 24.765 9.9284 24.3225 10.0349C24.2157 10.0586 24.0185 10.0751 23.9045 10.0751H23.3714L23.7978 8.08778H24.3713C24.535 8.08778 24.6583 8.10389 24.757 8.13655C25.0848 8.243 25.282 8.56235 25.1915 9.1103ZM24.9946 7.008C24.839 6.9834 24.6171 6.96729 24.396 6.96729H22.7319L21.4199 13.0524H22.7319L23.1333 11.1961H23.896C24.2974 11.1961 24.5601 11.1549 24.8148 11.0811C25.7573 10.7949 26.3645 10.0098 26.5035 9.17519C26.7088 8.03858 26.1353 7.19588 24.9946 7.008Z" fill="black"/>
<path fill-rule="evenodd" clip-rule="evenodd" d="M48.2669 6.96246C48.2669 6.96246 49.0458 3.30454 49.0497 3.28418H44.0932C44.0911 3.2969 43.0631 8.08168 43.0588 8.10161H44.2858C44.2888 8.08847 45.0757 4.42376 45.0757 4.42376H47.5795C47.5795 4.42376 46.7934 8.08168 46.7887 8.10161H50.5062L50.0126 10.402H46.3146C46.3117 10.4155 45.5761 13.8423 45.5761 13.8423H42.7744C42.7718 13.8555 42.535 14.9781 42.5308 14.9972H46.5599C46.5625 14.9844 47.3023 11.5492 47.3023 11.5492H50.9862C50.9892 11.536 51.9683 6.98197 51.9726 6.96246H48.2669Z" fill="#FF0000"/>
</g>
<defs>
<clipPath id="clip0_1332_268">
<rect width="58" height="20" fill="white"/>
</clipPath>
</defs>
</svg>
