<svg width="135" height="54" viewBox="0 0 135 54" fill="none" xmlns="http://www.w3.org/2000/svg">
<path d="M63.224 28.768C63.224 29.7813 62.92 30.608 62.312 31.248C61.704 31.888 60.8347 32.208 59.704 32.208C58.5627 32.208 57.6933 31.8933 57.096 31.264C56.4987 30.624 56.2 29.792 56.2 28.768V20.992H57.688V28.672C57.688 30.2187 58.36 30.992 59.704 30.992C61.048 30.992 61.72 30.2187 61.72 28.672V20.992H63.224V28.768ZM68.2623 20.992C69.5849 20.992 70.5929 21.2747 71.2863 21.84C71.9796 22.4053 72.3263 23.2533 72.3263 24.384C72.3263 25.5787 71.9689 26.4693 71.2543 27.056C70.5503 27.632 69.5689 27.92 68.3103 27.92H67.2543V32H65.7663V20.992H68.2623ZM68.2623 26.768C69.1049 26.768 69.7343 26.592 70.1503 26.24C70.5663 25.888 70.7743 25.2747 70.7743 24.4C70.7743 23.6 70.5663 23.024 70.1503 22.672C69.7449 22.3093 69.1209 22.128 68.2783 22.128H67.2543V26.768H68.2623ZM76.4524 20.784C77.103 20.784 77.6684 20.8907 78.1484 21.104C78.639 21.3173 79.0977 21.6373 79.5244 22.064L78.7724 22.912C78.4097 22.592 78.047 22.3573 77.6844 22.208C77.3324 22.048 76.9484 21.968 76.5324 21.968C75.999 21.968 75.567 22.1173 75.2364 22.416C74.9164 22.704 74.7564 23.088 74.7564 23.568C74.7564 23.888 74.8204 24.1653 74.9484 24.4C75.0764 24.624 75.295 24.832 75.6044 25.024C75.9137 25.2053 76.351 25.392 76.9164 25.584C77.567 25.8187 78.1004 26.0693 78.5164 26.336C78.9324 26.6027 79.2524 26.944 79.4764 27.36C79.7004 27.776 79.8124 28.2987 79.8124 28.928C79.8124 29.5573 79.6684 30.1227 79.3804 30.624C79.0924 31.1147 78.6764 31.504 78.1324 31.792C77.599 32.0693 76.9697 32.208 76.2444 32.208C74.911 32.208 73.775 31.728 72.8364 30.768L73.6204 29.92C74.015 30.272 74.415 30.544 74.8204 30.736C75.2364 30.9173 75.695 31.008 76.1964 31.008C76.8257 31.008 77.327 30.832 77.7004 30.48C78.0844 30.1173 78.2764 29.6213 78.2764 28.992C78.2764 28.448 78.1217 28.016 77.8124 27.696C77.5137 27.376 76.959 27.0773 76.1484 26.8C75.1137 26.4373 74.367 26.016 73.9084 25.536C73.4604 25.056 73.2364 24.432 73.2364 23.664C73.2364 23.12 73.3697 22.6293 73.6364 22.192C73.9137 21.744 74.2977 21.3973 74.7884 21.152C75.279 20.9067 75.8337 20.784 76.4524 20.784ZM91.0195 20.992L90.8435 22.144H87.0355V25.776H90.3475V26.928H87.0355V30.832H91.0675V32H85.5475V20.992H91.0195ZM96.0395 27.488L98.6315 32H97.0475L95.1595 28.352L93.2875 32H91.7515L94.3435 27.552L92.0395 23.584H93.6075L95.1915 26.72L96.7755 23.584H98.2955L96.0395 27.488ZM103.631 23.376C104.548 23.376 105.236 23.7547 105.695 24.512C106.164 25.2693 106.399 26.352 106.399 27.76C106.399 29.1253 106.138 30.208 105.615 31.008C105.103 31.808 104.383 32.208 103.455 32.208C102.623 32.208 101.951 31.872 101.439 31.2V35.2L99.9991 35.376V23.584H101.263L101.343 24.72C101.919 23.824 102.682 23.376 103.631 23.376ZM103.119 31.056C104.303 31.056 104.895 29.9627 104.895 27.776C104.895 26.6347 104.756 25.808 104.479 25.296C104.212 24.7733 103.802 24.512 103.247 24.512C102.874 24.512 102.543 24.624 102.255 24.848C101.967 25.072 101.695 25.376 101.439 25.76V30.016C101.876 30.7093 102.436 31.056 103.119 31.056ZM111.971 23.392C112.248 23.392 112.488 23.424 112.691 23.488L112.451 24.88C112.248 24.816 112.029 24.784 111.795 24.784C111.325 24.784 110.941 24.9707 110.643 25.344C110.355 25.7173 110.125 26.288 109.955 27.056V32H108.515V23.584H109.763L109.875 25.248C110.291 24.0107 110.989 23.392 111.971 23.392ZM119.544 27.536C119.544 27.76 119.533 28.0107 119.512 28.288H114.616C114.658 29.2693 114.856 29.9787 115.208 30.416C115.56 30.8427 116.04 31.056 116.648 31.056C117.032 31.056 117.373 30.9973 117.672 30.88C117.981 30.7627 118.301 30.5707 118.632 30.304L119.272 31.152C118.482 31.856 117.586 32.208 116.584 32.208C115.485 32.208 114.632 31.8293 114.024 31.072C113.426 30.304 113.128 29.232 113.128 27.856C113.128 26.48 113.416 25.392 113.992 24.592C114.568 23.7813 115.368 23.376 116.392 23.376C117.405 23.376 118.184 23.7387 118.728 24.464C119.272 25.1787 119.544 26.2027 119.544 27.536ZM118.152 27.104C118.152 25.344 117.57 24.464 116.408 24.464C115.874 24.464 115.453 24.688 115.144 25.136C114.834 25.5733 114.658 26.288 114.616 27.28H118.152V27.104ZM123.722 23.376C124.693 23.376 125.557 23.696 126.314 24.336L125.706 25.184C125.365 24.9493 125.045 24.7733 124.746 24.656C124.447 24.5387 124.133 24.48 123.802 24.48C123.365 24.48 123.018 24.5867 122.762 24.8C122.517 25.0027 122.394 25.2853 122.394 25.648C122.394 26 122.511 26.2773 122.746 26.48C122.991 26.6827 123.45 26.8907 124.122 27.104C124.965 27.3707 125.578 27.696 125.962 28.08C126.346 28.464 126.538 28.992 126.538 29.664C126.538 30.4533 126.25 31.0773 125.674 31.536C125.098 31.984 124.378 32.208 123.514 32.208C122.373 32.208 121.407 31.8293 120.618 31.072L121.354 30.272C122.026 30.816 122.735 31.088 123.482 31.088C123.951 31.088 124.33 30.9707 124.618 30.736C124.906 30.5013 125.05 30.176 125.05 29.76C125.05 29.4613 124.997 29.2213 124.89 29.04C124.794 28.8587 124.613 28.6987 124.346 28.56C124.09 28.4107 123.711 28.256 123.21 28.096C122.41 27.8293 121.834 27.5093 121.482 27.136C121.13 26.7627 120.954 26.288 120.954 25.712C120.954 25.264 121.071 24.864 121.306 24.512C121.541 24.16 121.866 23.8827 122.282 23.68C122.698 23.4773 123.178 23.376 123.722 23.376ZM130.394 23.376C131.365 23.376 132.229 23.696 132.986 24.336L132.378 25.184C132.037 24.9493 131.717 24.7733 131.418 24.656C131.119 24.5387 130.805 24.48 130.474 24.48C130.037 24.48 129.69 24.5867 129.434 24.8C129.189 25.0027 129.066 25.2853 129.066 25.648C129.066 26 129.183 26.2773 129.418 26.48C129.663 26.6827 130.122 26.8907 130.794 27.104C131.637 27.3707 132.25 27.696 132.634 28.08C133.018 28.464 133.21 28.992 133.21 29.664C133.21 30.4533 132.922 31.0773 132.346 31.536C131.77 31.984 131.05 32.208 130.186 32.208C129.045 32.208 128.079 31.8293 127.29 31.072L128.026 30.272C128.698 30.816 129.407 31.088 130.154 31.088C130.623 31.088 131.002 30.9707 131.29 30.736C131.578 30.5013 131.722 30.176 131.722 29.76C131.722 29.4613 131.669 29.2213 131.562 29.04C131.466 28.8587 131.285 28.6987 131.018 28.56C130.762 28.4107 130.383 28.256 129.882 28.096C129.082 27.8293 128.506 27.5093 128.154 27.136C127.802 26.7627 127.626 26.288 127.626 25.712C127.626 25.264 127.743 24.864 127.978 24.512C128.213 24.16 128.538 23.8827 128.954 23.68C129.37 23.4773 129.85 23.376 130.394 23.376Z" fill="#464646"/>
<g clip-path="url(#clip0_1000_364)">
<path d="M6.84471 44.6154C2.95689 41.4756 0.90332 36.9559 0.90332 31.5578V5.89801C7.04268 2.6877 14.4766 1.06067 22.9998 1.06067C31.5229 1.06067 38.9576 2.6877 45.0962 5.89801V31.5578C45.0962 36.9559 43.0426 41.4724 39.1548 44.6154C35.598 47.4911 24.2968 52.3827 22.9989 52.9394C21.7027 52.3827 10.4015 47.4919 6.84471 44.6154Z" fill="#330000"/>
<path d="M43.8865 5.59657C41.046 5.33647 38.0954 5.1647 35.0898 5.1647C23.943 5.1647 11.9929 7.52827 2.11354 16.4664V31.7442C2.11354 36.7201 3.979 40.8752 7.52346 43.7249C10.6531 46.2367 20.2844 50.5393 23 51.7215C25.6811 50.5571 35.2878 46.3113 38.4724 43.7249C42.0391 40.8257 43.8865 36.7671 43.8865 31.7442V5.59657ZM4.15561 30.1544V17.7467H8.15514V30.3294C8.15514 31.4492 8.4295 33.107 10.2638 33.107C10.9285 33.1336 11.5861 32.9643 12.153 32.6209V17.7467H16.1476V34.871C14.3436 35.9817 12.2435 36.5337 10.1184 36.4559C6.15907 36.4559 4.1515 34.3362 4.1515 30.1544M22.2081 44.476H18.2061V18.7514C19.825 17.7706 21.701 17.2822 23.5996 17.3472C28.3763 17.3472 31.0007 20.9221 31.0007 26.6759C31.0007 32.4297 28.4543 36.3878 24.0104 36.3878C23.4021 36.3986 22.7954 36.3231 22.209 36.1634L22.2081 44.476ZM22.2081 32.9377C22.6236 33.0912 23.0632 33.1718 23.5068 33.1759C25.8068 33.1759 26.9092 31.0911 26.9092 26.7747C26.9092 22.3531 25.9473 20.5243 23.6235 20.5243C23.1359 20.5203 22.6529 20.6172 22.2057 20.8087L22.2081 32.9377ZM31.9076 22.4916C31.9326 21.1086 32.5112 19.7916 33.517 18.8278C34.5229 17.864 35.8743 17.3318 37.2764 17.3472C38.8459 17.2651 40.3963 17.7177 41.6678 18.629V22.0622C40.7254 21.0923 39.4439 20.5128 38.0839 20.4416C36.9495 20.4319 35.7691 20.9237 35.7305 22.3271C35.6919 23.7638 36.8698 24.331 38.3591 25.1947C41.7015 27.1329 42.3479 28.875 42.2707 31.177C42.1943 33.701 40.4307 36.4575 36.4772 36.4575C34.9268 36.4404 33.4089 36.0176 32.0784 35.2324V31.5967C33.1354 32.5388 34.482 33.1042 35.903 33.2027C37.3709 33.2099 38.3369 32.3802 38.3024 31.0036C38.272 29.7647 37.5631 29.0913 35.8028 28.0712C32.5031 26.1622 31.91 24.5911 31.9043 22.4916M6.18454 45.3341C2.13571 42.063 0 37.3626 0 31.7442V5.03505C6.38989 1.69348 14.1286 0 23 0C31.8714 0 39.6101 1.69348 46 5.03505V31.7442C46 37.3626 43.8643 42.063 39.8155 45.3349C36.1141 48.3281 24.3504 53.419 23 53.9984C21.6496 53.419 9.88589 48.3281 6.18454 45.3341ZM37.6814 50.9323V53.2505H38.1053V52.283H38.1652C38.1973 52.33 38.8035 53.2505 38.8035 53.2505H39.3169C39.3169 53.2505 38.6729 52.3211 38.6071 52.2336C38.754 52.2089 38.887 52.1333 38.9824 52.0204C39.0777 51.9075 39.129 51.7647 39.1271 51.6178C39.1291 51.5199 39.1094 51.4227 39.0695 51.3331C39.0296 51.2434 38.9704 51.1634 38.896 51.0985C38.8216 51.0337 38.7338 50.9856 38.6387 50.9576C38.5435 50.9296 38.4434 50.9223 38.3451 50.9363L37.6814 50.9323ZM38.2991 51.271C38.6597 51.271 38.7098 51.4452 38.7098 51.5951C38.7098 51.8123 38.6154 51.9589 38.1611 51.9589H38.1061V51.2694L38.2991 51.271ZM39.9584 52.0975C39.9577 52.4077 39.8639 52.7107 39.6888 52.9684C39.5136 53.226 39.265 53.4267 38.9743 53.545C38.6836 53.6634 38.3639 53.6941 38.0555 53.6333C37.7471 53.5725 37.4639 53.4229 37.2416 53.2035C37.0194 52.984 36.868 52.7045 36.8067 52.4002C36.7454 52.096 36.7769 51.7806 36.8971 51.494C37.0174 51.2074 37.2211 50.9623 37.4825 50.7898C37.7438 50.6173 38.0512 50.525 38.3656 50.5247C38.575 50.5245 38.7824 50.5651 38.9758 50.644C39.1692 50.723 39.345 50.8389 39.493 50.985C39.6409 51.1311 39.7582 51.3046 39.8381 51.4955C39.9179 51.6864 39.9588 51.891 39.9584 52.0975ZM38.3607 50.1893C37.979 50.1898 37.606 50.3018 37.2888 50.5113C36.9716 50.7207 36.7245 51.0182 36.5786 51.3662C36.4327 51.7141 36.3946 52.0969 36.4692 52.4662C36.5437 52.8354 36.7275 53.1747 36.9973 53.4409C37.2672 53.7072 37.611 53.8887 37.9853 53.9624C38.3596 54.036 38.7477 53.9986 39.1005 53.8549C39.4533 53.7111 39.755 53.4675 39.9675 53.1547C40.18 52.8419 40.2937 52.474 40.2944 52.0975C40.2937 51.5917 40.0898 51.1069 39.7273 50.7492C39.3649 50.3915 38.8734 50.1901 38.3607 50.1893Z" fill="#FFBE00"/>
</g>
<defs>
<clipPath id="clip0_1000_364">
<rect width="46" height="54" fill="white"/>
</clipPath>
</defs>
</svg>
