<svg width="106" height="52" viewBox="0 0 106 52" fill="none" xmlns="http://www.w3.org/2000/svg">
<path d="M47.848 10.992V22H46.36V10.992H47.848ZM58.2595 13.376C58.8675 13.376 59.3528 13.6053 59.7155 14.064C60.0782 14.512 60.2595 15.1147 60.2595 15.872V22H58.8355V16.032C58.8355 15.008 58.5048 14.496 57.8435 14.496C57.2035 14.496 56.6168 14.9867 56.0835 15.968V22H54.6595V16.032C54.6595 15.008 54.3288 14.496 53.6675 14.496C53.0168 14.496 52.4302 14.9867 51.9075 15.968V22H50.4835V13.584H51.7315L51.8435 14.816C52.4622 13.856 53.2088 13.376 54.0835 13.376C54.5422 13.376 54.9315 13.5093 55.2515 13.776C55.5715 14.0427 55.8008 14.4213 55.9395 14.912C56.5902 13.888 57.3635 13.376 58.2595 13.376ZM68.098 10.992V20.736H72.114L71.954 22H66.61V10.992H68.098ZM78.7784 20.08C78.7784 20.4213 78.8264 20.6773 78.9224 20.848C79.0184 21.008 79.1677 21.1307 79.3704 21.216L79.0664 22.192C78.6504 22.128 78.325 22 78.0904 21.808C77.8557 21.616 77.6904 21.3227 77.5944 20.928C77.0504 21.7813 76.2877 22.208 75.3064 22.208C74.5597 22.208 73.9677 21.9787 73.5304 21.52C73.093 21.0507 72.8744 20.4267 72.8744 19.648C72.8744 18.752 73.1677 18.0693 73.7544 17.6C74.341 17.1307 75.1784 16.896 76.2664 16.896H77.3544V16.176C77.3544 15.5893 77.2317 15.168 76.9864 14.912C76.7517 14.6453 76.3624 14.512 75.8184 14.512C75.2317 14.512 74.549 14.6613 73.7704 14.96L73.4184 13.952C74.357 13.568 75.2317 13.376 76.0424 13.376C77.8664 13.376 78.7784 14.288 78.7784 16.112V20.08ZM75.6424 21.12C76.389 21.12 76.9597 20.6827 77.3544 19.808V17.824H76.4264C75.0397 17.824 74.3464 18.4053 74.3464 19.568C74.3464 20.0693 74.4584 20.4533 74.6824 20.72C74.9064 20.9867 75.2264 21.12 75.6424 21.12ZM87.3581 10.176V22H86.0781L85.9821 20.896C85.4381 21.7707 84.7075 22.208 83.7901 22.208C82.8728 22.208 82.1581 21.8187 81.6461 21.04C81.1448 20.2613 80.8941 19.1893 80.8941 17.824C80.8941 16.9387 81.0168 16.16 81.2621 15.488C81.5181 14.816 81.8755 14.2987 82.3341 13.936C82.7928 13.5627 83.3208 13.376 83.9181 13.376C84.7181 13.376 85.3848 13.712 85.9181 14.384V10.016L87.3581 10.176ZM84.1261 21.072C84.5101 21.072 84.8408 20.9653 85.1181 20.752C85.4061 20.5387 85.6728 20.224 85.9181 19.808V15.584C85.4381 14.8693 84.8781 14.512 84.2381 14.512C83.6728 14.512 83.2248 14.784 82.8941 15.328C82.5635 15.872 82.4035 16.6933 82.4141 17.792C82.4141 18.912 82.5635 19.7387 82.8621 20.272C83.1608 20.8053 83.5821 21.072 84.1261 21.072ZM95.8563 17.536C95.8563 17.76 95.8456 18.0107 95.8243 18.288H90.9283C90.9709 19.2693 91.1683 19.9787 91.5203 20.416C91.8723 20.8427 92.3523 21.056 92.9603 21.056C93.3443 21.056 93.6856 20.9973 93.9843 20.88C94.2936 20.7627 94.6136 20.5707 94.9443 20.304L95.5843 21.152C94.7949 21.856 93.8989 22.208 92.8963 22.208C91.7976 22.208 90.9443 21.8293 90.3363 21.072C89.7389 20.304 89.4403 19.232 89.4403 17.856C89.4403 16.48 89.7283 15.392 90.3043 14.592C90.8803 13.7813 91.6803 13.376 92.7043 13.376C93.7176 13.376 94.4963 13.7387 95.0403 14.464C95.5843 15.1787 95.8563 16.2027 95.8563 17.536ZM94.4643 17.104C94.4643 15.344 93.8829 14.464 92.7203 14.464C92.1869 14.464 91.7656 14.688 91.4563 15.136C91.1469 15.5733 90.9709 16.288 90.9283 17.28H94.4643V17.104ZM101.619 13.376C102.291 13.376 102.813 13.6 103.187 14.048C103.571 14.4853 103.763 15.0933 103.763 15.872V22H102.323V16.048C102.323 15.504 102.232 15.1147 102.051 14.88C101.869 14.6347 101.592 14.512 101.219 14.512C100.515 14.512 99.8745 15.0133 99.2985 16.016V22H97.8585V13.584H99.1065L99.2185 14.832C99.8692 13.8613 100.669 13.376 101.619 13.376ZM51.544 39.08C51.544 39.4213 51.592 39.6773 51.688 39.848C51.784 40.008 51.9333 40.1307 52.136 40.216L51.832 41.192C51.416 41.128 51.0907 41 50.856 40.808C50.6213 40.616 50.456 40.3227 50.36 39.928C49.816 40.7813 49.0533 41.208 48.072 41.208C47.3253 41.208 46.7333 40.9787 46.296 40.52C45.8587 40.0507 45.64 39.4267 45.64 38.648C45.64 37.752 45.9333 37.0693 46.52 36.6C47.1067 36.1307 47.944 35.896 49.032 35.896H50.12V35.176C50.12 34.5893 49.9973 34.168 49.752 33.912C49.5173 33.6453 49.128 33.512 48.584 33.512C47.9973 33.512 47.3147 33.6613 46.536 33.96L46.184 32.952C47.1227 32.568 47.9973 32.376 48.808 32.376C50.632 32.376 51.544 33.288 51.544 35.112V39.08ZM48.408 40.12C49.1547 40.12 49.7253 39.6827 50.12 38.808V36.824H49.192C47.8053 36.824 47.112 37.4053 47.112 38.568C47.112 39.0693 47.224 39.4533 47.448 39.72C47.672 39.9867 47.992 40.12 48.408 40.12ZM57.7558 32.376C58.6411 32.376 59.3238 32.7547 59.8038 33.512C60.2944 34.2587 60.5398 35.3467 60.5398 36.776C60.5398 38.1413 60.2731 39.224 59.7398 40.024C59.2171 40.8133 58.5024 41.208 57.5958 41.208C57.1691 41.208 56.7798 41.112 56.4278 40.92C56.0758 40.7173 55.7718 40.4347 55.5158 40.072L55.4198 41H54.1398V29.192L55.5798 29.032V33.608C55.8464 33.224 56.1611 32.9253 56.5238 32.712C56.8971 32.488 57.3078 32.376 57.7558 32.376ZM57.2598 40.072C58.4438 40.072 59.0358 38.9733 59.0358 36.776C59.0358 35.592 58.8918 34.7547 58.6038 34.264C58.3158 33.7627 57.9051 33.512 57.3718 33.512C56.9984 33.512 56.6678 33.624 56.3798 33.848C56.1024 34.072 55.8358 34.3867 55.5798 34.792V38.968C55.7824 39.2987 56.0278 39.5653 56.3158 39.768C56.6038 39.9707 56.9184 40.072 57.2598 40.072ZM66.4154 32.376C67.0874 32.376 67.61 32.6 67.9834 33.048C68.3674 33.496 68.5594 34.104 68.5594 34.872V41H67.1194V35.048C67.1194 34.504 67.0234 34.1147 66.8314 33.88C66.65 33.6347 66.378 33.512 66.0154 33.512C65.3114 33.512 64.6714 34.0133 64.0954 35.016V41H62.6554V29.192L64.0954 29.032V33.784C64.4047 33.3253 64.746 32.9787 65.1194 32.744C65.4927 32.4987 65.9247 32.376 66.4154 32.376ZM74.0209 32.376C75.0982 32.376 75.9355 32.7547 76.5329 33.512C77.1302 34.2693 77.4289 35.3573 77.4289 36.776C77.4289 38.1413 77.1249 39.224 76.5169 40.024C75.9089 40.8133 75.0715 41.208 74.0049 41.208C72.9275 41.208 72.0849 40.8187 71.4769 40.04C70.8795 39.2613 70.5809 38.1787 70.5809 36.792C70.5809 35.3947 70.8849 34.312 71.4929 33.544C72.1009 32.7653 72.9435 32.376 74.0209 32.376ZM74.0209 33.528C73.3915 33.528 72.9115 33.7947 72.5809 34.328C72.2502 34.8507 72.0849 35.672 72.0849 36.792C72.0849 38.9787 72.7249 40.072 74.0049 40.072C75.2849 40.072 75.9249 38.9733 75.9249 36.776C75.9249 35.656 75.7649 34.8347 75.4449 34.312C75.1249 33.7893 74.6502 33.528 74.0209 33.528ZM81.0988 41.208C80.5868 41.208 80.1814 41.0533 79.8828 40.744C79.5841 40.4347 79.4348 40.0027 79.4348 39.448V29.176L80.8748 29.016V39.4C80.8748 39.816 81.0454 40.024 81.3868 40.024C81.5254 40.024 81.6801 39.992 81.8508 39.928L82.1708 40.936C81.8294 41.1173 81.4721 41.208 81.0988 41.208ZM89.5594 36.536C89.5594 36.76 89.5487 37.0107 89.5274 37.288H84.6314C84.674 38.2693 84.8714 38.9787 85.2234 39.416C85.5754 39.8427 86.0554 40.056 86.6634 40.056C87.0474 40.056 87.3887 39.9973 87.6874 39.88C87.9967 39.7627 88.3167 39.5707 88.6474 39.304L89.2874 40.152C88.498 40.856 87.602 41.208 86.5994 41.208C85.5007 41.208 84.6474 40.8293 84.0394 40.072C83.442 39.304 83.1434 38.232 83.1434 36.856C83.1434 35.48 83.4314 34.392 84.0074 33.592C84.5834 32.7813 85.3834 32.376 86.4074 32.376C87.4207 32.376 88.1994 32.7387 88.7434 33.464C89.2874 34.1787 89.5594 35.2027 89.5594 36.536ZM88.1674 36.104C88.1674 34.344 87.586 33.464 86.4234 33.464C85.89 33.464 85.4687 33.688 85.1594 34.136C84.85 34.5733 84.674 35.288 84.6314 36.28H88.1674V36.104ZM95.3216 32.376C95.9936 32.376 96.5163 32.6 96.8896 33.048C97.2736 33.4853 97.4656 34.0933 97.4656 34.872V41H96.0256V35.048C96.0256 34.504 95.935 34.1147 95.7536 33.88C95.5723 33.6347 95.295 33.512 94.9216 33.512C94.2176 33.512 93.5776 34.0133 93.0016 35.016V41H91.5616V32.584H92.8096L92.9216 33.832C93.5723 32.8613 94.3723 32.376 95.3216 32.376Z" fill="#464646"/>
<path d="M25.0701 15.9259C25.0701 11.6805 21.6162 8.22656 17.3708 8.22656C13.1258 8.22656 9.67188 11.6805 9.67188 15.9259C9.67188 20.1709 13.1254 23.6248 17.3708 23.6248C21.6162 23.6248 25.0701 20.1709 25.0701 15.9259Z" fill="#CC950C"/>
<path d="M17.3708 42.8594C18.5638 41.3054 25.5581 31.6931 27.9127 28.4815C30.7132 24.6622 33.2967 20.8302 33.2967 15.9259C33.2967 7.1304 26.1663 0.000396729 17.3708 0.000396729L17.3688 0C8.57294 0 1.44531 7.13 1.44531 15.9255C1.44531 20.8298 4.02841 24.6622 6.82892 28.4815C9.1839 31.6931 17.3708 42.8594 17.3708 42.8594ZM6.625 15.9259C6.625 10.0003 11.4456 5.17969 17.3708 5.17969C23.2963 5.17969 28.117 10.0003 28.117 15.9259C28.117 21.851 23.2963 26.6717 17.3708 26.6717C11.4456 26.6717 6.625 21.851 6.625 15.9259Z" fill="#464646"/>
<path d="M23.2193 40.0363C22.9039 40.4671 17.3148 47.9359 17.3148 47.9359L11.523 40.0363H4.5108L0 52H34.7415L30.2303 40.0363H23.2193Z" fill="#464646"/>
</svg>
