<svg width="90" height="30" viewBox="0 0 90 30" fill="none" xmlns="http://www.w3.org/2000/svg">
<path d="M36.168 15.576C36.168 16.336 35.94 16.956 35.484 17.436C35.028 17.916 34.376 18.156 33.528 18.156C32.672 18.156 32.02 17.92 31.572 17.448C31.124 16.968 30.9 16.344 30.9 15.576V9.744H32.016V15.504C32.016 16.664 32.52 17.244 33.528 17.244C34.536 17.244 35.04 16.664 35.04 15.504V9.744H36.168V15.576ZM39.9467 9.744C40.9387 9.744 41.6947 9.956 42.2147 10.38C42.7347 10.804 42.9947 11.44 42.9947 12.288C42.9947 13.184 42.7267 13.852 42.1907 14.292C41.6627 14.724 40.9267 14.94 39.9827 14.94H39.1907V18H38.0747V9.744H39.9467ZM39.9467 14.076C40.5787 14.076 41.0507 13.944 41.3627 13.68C41.6747 13.416 41.8307 12.956 41.8307 12.3C41.8307 11.7 41.6747 11.268 41.3627 11.004C41.0587 10.732 40.5907 10.596 39.9587 10.596H39.1907V14.076H39.9467ZM46.0893 9.588C46.5773 9.588 47.0013 9.668 47.3613 9.828C47.7293 9.988 48.0733 10.228 48.3933 10.548L47.8293 11.184C47.5573 10.944 47.2853 10.768 47.0133 10.656C46.7493 10.536 46.4613 10.476 46.1493 10.476C45.7493 10.476 45.4253 10.588 45.1773 10.812C44.9373 11.028 44.8173 11.316 44.8173 11.676C44.8173 11.916 44.8653 12.124 44.9613 12.3C45.0573 12.468 45.2213 12.624 45.4533 12.768C45.6853 12.904 46.0133 13.044 46.4373 13.188C46.9253 13.364 47.3253 13.552 47.6373 13.752C47.9493 13.952 48.1893 14.208 48.3573 14.52C48.5253 14.832 48.6093 15.224 48.6093 15.696C48.6093 16.168 48.5013 16.592 48.2853 16.968C48.0693 17.336 47.7573 17.628 47.3493 17.844C46.9493 18.052 46.4773 18.156 45.9333 18.156C44.9333 18.156 44.0813 17.796 43.3773 17.076L43.9653 16.44C44.2613 16.704 44.5613 16.908 44.8653 17.052C45.1773 17.188 45.5213 17.256 45.8973 17.256C46.3693 17.256 46.7453 17.124 47.0253 16.86C47.3133 16.588 47.4573 16.216 47.4573 15.744C47.4573 15.336 47.3413 15.012 47.1093 14.772C46.8853 14.532 46.4693 14.308 45.8613 14.1C45.0853 13.828 44.5253 13.512 44.1813 13.152C43.8453 12.792 43.6773 12.324 43.6773 11.748C43.6773 11.34 43.7773 10.972 43.9773 10.644C44.1853 10.308 44.4733 10.048 44.8413 9.864C45.2093 9.68 45.6253 9.588 46.0893 9.588ZM57.0146 9.744L56.8826 10.608H54.0266V13.332H56.5106V14.196H54.0266V17.124H57.0506V18H52.9106V9.744H57.0146ZM60.7796 14.616L62.7236 18H61.5356L60.1196 15.264L58.7156 18H57.5636L59.5076 14.664L57.7796 11.688H58.9556L60.1436 14.04L61.3316 11.688H62.4716L60.7796 14.616ZM66.4733 11.532C67.1613 11.532 67.6773 11.816 68.0213 12.384C68.3733 12.952 68.5493 13.764 68.5493 14.82C68.5493 15.844 68.3533 16.656 67.9613 17.256C67.5773 17.856 67.0373 18.156 66.3413 18.156C65.7173 18.156 65.2133 17.904 64.8293 17.4V20.4L63.7493 20.532V11.688H64.6973L64.7573 12.54C65.1893 11.868 65.7613 11.532 66.4733 11.532ZM66.0893 17.292C66.9773 17.292 67.4213 16.472 67.4213 14.832C67.4213 13.976 67.3173 13.356 67.1093 12.972C66.9093 12.58 66.6013 12.384 66.1853 12.384C65.9053 12.384 65.6573 12.468 65.4413 12.636C65.2253 12.804 65.0213 13.032 64.8293 13.32V16.512C65.1573 17.032 65.5773 17.292 66.0893 17.292ZM72.7281 11.544C72.9361 11.544 73.1161 11.568 73.2681 11.616L73.0881 12.66C72.9361 12.612 72.7721 12.588 72.5961 12.588C72.2441 12.588 71.9561 12.728 71.7321 13.008C71.5161 13.288 71.3441 13.716 71.2161 14.292V18H70.1361V11.688H71.0721L71.1561 12.936C71.4681 12.008 71.9921 11.544 72.7281 11.544ZM78.4078 14.652C78.4078 14.82 78.3998 15.008 78.3838 15.216H74.7118C74.7438 15.952 74.8918 16.484 75.1558 16.812C75.4198 17.132 75.7798 17.292 76.2358 17.292C76.5238 17.292 76.7798 17.248 77.0038 17.16C77.2358 17.072 77.4758 16.928 77.7238 16.728L78.2038 17.364C77.6118 17.892 76.9398 18.156 76.1878 18.156C75.3638 18.156 74.7238 17.872 74.2678 17.304C73.8198 16.728 73.5958 15.924 73.5958 14.892C73.5958 13.86 73.8118 13.044 74.2438 12.444C74.6758 11.836 75.2758 11.532 76.0438 11.532C76.8038 11.532 77.3878 11.804 77.7958 12.348C78.2038 12.884 78.4078 13.652 78.4078 14.652ZM77.3638 14.328C77.3638 13.008 76.9278 12.348 76.0558 12.348C75.6558 12.348 75.3398 12.516 75.1078 12.852C74.8758 13.18 74.7438 13.716 74.7118 14.46H77.3638V14.328ZM81.5415 11.532C82.2695 11.532 82.9175 11.772 83.4855 12.252L83.0295 12.888C82.7735 12.712 82.5335 12.58 82.3095 12.492C82.0855 12.404 81.8495 12.36 81.6015 12.36C81.2735 12.36 81.0135 12.44 80.8215 12.6C80.6375 12.752 80.5455 12.964 80.5455 13.236C80.5455 13.5 80.6335 13.708 80.8095 13.86C80.9935 14.012 81.3375 14.168 81.8415 14.328C82.4735 14.528 82.9335 14.772 83.2215 15.06C83.5095 15.348 83.6535 15.744 83.6535 16.248C83.6535 16.84 83.4375 17.308 83.0055 17.652C82.5735 17.988 82.0335 18.156 81.3855 18.156C80.5295 18.156 79.8055 17.872 79.2135 17.304L79.7655 16.704C80.2695 17.112 80.8015 17.316 81.3615 17.316C81.7135 17.316 81.9975 17.228 82.2135 17.052C82.4295 16.876 82.5375 16.632 82.5375 16.32C82.5375 16.096 82.4975 15.916 82.4175 15.78C82.3455 15.644 82.2095 15.524 82.0095 15.42C81.8175 15.308 81.5335 15.192 81.1575 15.072C80.5575 14.872 80.1255 14.632 79.8615 14.352C79.5975 14.072 79.4655 13.716 79.4655 13.284C79.4655 12.948 79.5535 12.648 79.7295 12.384C79.9055 12.12 80.1495 11.912 80.4615 11.76C80.7735 11.608 81.1335 11.532 81.5415 11.532ZM86.5454 11.532C87.2734 11.532 87.9214 11.772 88.4894 12.252L88.0334 12.888C87.7774 12.712 87.5374 12.58 87.3134 12.492C87.0894 12.404 86.8534 12.36 86.6054 12.36C86.2774 12.36 86.0174 12.44 85.8254 12.6C85.6414 12.752 85.5494 12.964 85.5494 13.236C85.5494 13.5 85.6374 13.708 85.8134 13.86C85.9974 14.012 86.3414 14.168 86.8454 14.328C87.4774 14.528 87.9374 14.772 88.2254 15.06C88.5134 15.348 88.6574 15.744 88.6574 16.248C88.6574 16.84 88.4414 17.308 88.0094 17.652C87.5774 17.988 87.0374 18.156 86.3894 18.156C85.5334 18.156 84.8094 17.872 84.2174 17.304L84.7694 16.704C85.2734 17.112 85.8054 17.316 86.3654 17.316C86.7174 17.316 87.0014 17.228 87.2174 17.052C87.4334 16.876 87.5414 16.632 87.5414 16.32C87.5414 16.096 87.5014 15.916 87.4214 15.78C87.3494 15.644 87.2134 15.524 87.0134 15.42C86.8214 15.308 86.5374 15.192 86.1614 15.072C85.5614 14.872 85.1294 14.632 84.8654 14.352C84.6014 14.072 84.4694 13.716 84.4694 13.284C84.4694 12.948 84.5574 12.648 84.7334 12.384C84.9094 12.12 85.1534 11.912 85.4654 11.76C85.7774 11.608 86.1374 11.532 86.5454 11.532Z" fill="#464646"/>
<g clip-path="url(#clip0_1332_283)">
<path d="M3.86892 24.7864C1.67146 23.0421 0.510742 20.5311 0.510742 17.5322V3.27677C3.98081 1.49326 8.1826 0.589355 13 0.589355C17.8175 0.589355 22.0197 1.49326 25.4893 3.27677V17.5322C25.4893 20.5311 24.3286 23.0403 22.1311 24.7864C20.1208 26.384 13.7331 29.1016 12.9996 29.4109C12.2669 29.1016 5.87928 26.3845 3.86892 24.7864Z" fill="#330000"/>
<path d="M24.8054 3.10921C23.1999 2.96471 21.5322 2.86928 19.8334 2.86928C13.533 2.86928 6.77857 4.18237 1.19461 9.14801V17.6356C1.19461 20.4 2.249 22.7084 4.25239 24.2916C6.02132 25.6871 11.4651 28.0774 13 28.7342C14.5154 28.0873 19.9452 25.7285 21.7453 24.2916C23.7612 22.681 24.8054 20.4261 24.8054 17.6356V3.10921ZM2.34882 16.7524V9.85925H4.60943V16.8497C4.60943 17.4718 4.7645 18.3928 5.80125 18.3928C6.17696 18.4075 6.54869 18.3135 6.86911 18.1227V9.85925H9.12693V19.3728C8.10724 19.9898 6.92025 20.2965 5.71907 20.2533C3.48121 20.2533 2.3465 19.0757 2.3465 16.7524M12.5524 24.7089H10.2904V10.4174C11.2054 9.87256 12.2658 9.60122 13.3389 9.63733C16.0387 9.63733 17.5221 11.6234 17.5221 14.8199C17.5221 18.0165 16.0829 20.2155 13.5711 20.2155C13.2273 20.2215 12.8844 20.1795 12.5529 20.0908L12.5524 24.7089ZM12.5524 18.2987C12.7873 18.384 13.0357 18.4288 13.2865 18.4311C14.5865 18.4311 15.2095 17.2728 15.2095 14.8749C15.2095 12.4184 14.6659 11.4024 13.3524 11.4024C13.0768 11.4002 12.8038 11.454 12.551 11.5604L12.5524 18.2987ZM18.0347 12.4953C18.0489 11.727 18.3759 10.9953 18.9444 10.4599C19.5129 9.92446 20.2768 9.62876 21.0693 9.63733C21.9564 9.59173 22.8327 9.84316 23.5514 10.3495V12.2568C23.0187 11.7179 22.2944 11.396 21.5257 11.3565C20.8845 11.3511 20.2173 11.6243 20.1955 12.404C20.1737 13.2021 20.8395 13.5172 21.6812 13.9971C23.5704 15.0738 23.9358 16.0417 23.8921 17.3205C23.849 18.7228 22.8521 20.2542 20.6175 20.2542C19.7413 20.2447 18.8833 20.0098 18.1313 19.5736V17.5537C18.7287 18.0771 19.4898 18.3912 20.293 18.4459C21.1227 18.45 21.6687 17.989 21.6492 17.2242C21.632 16.5359 21.2313 16.1618 20.2364 15.5951C18.3713 14.5345 18.0361 13.6617 18.0329 12.4953M3.49561 25.1856C1.20714 23.3683 0 20.757 0 17.6356V2.79725C3.61168 0.94082 7.98571 0 13 0C18.0143 0 22.3883 0.94082 26 2.79725V17.6356C26 20.757 24.7929 23.3683 22.5044 25.1861C20.4123 26.8489 13.7633 29.6772 13 29.9991C12.2367 29.6772 5.58768 26.8489 3.49561 25.1856ZM21.2982 28.2957V29.5836H21.5378V29.0461H21.5716C21.5898 29.0722 21.9324 29.5836 21.9324 29.5836H22.2226C22.2226 29.5836 21.8586 29.0673 21.8214 29.0187C21.9044 29.0049 21.9796 28.9629 22.0335 28.9002C22.0874 28.8375 22.1164 28.7582 22.1153 28.6765C22.1164 28.6222 22.1053 28.5682 22.0828 28.5184C22.0602 28.4685 22.0268 28.4241 21.9847 28.3881C21.9426 28.352 21.893 28.3253 21.8392 28.3098C21.7855 28.2942 21.7289 28.2902 21.6733 28.298L21.2982 28.2957ZM21.6473 28.4839C21.8511 28.4839 21.8795 28.5807 21.8795 28.6639C21.8795 28.7846 21.8261 28.8661 21.5693 28.8661H21.5382V28.483L21.6473 28.4839ZM22.5852 28.943C22.5848 29.1154 22.5318 29.2837 22.4328 29.4269C22.3338 29.57 22.1932 29.6815 22.0289 29.7472C21.8646 29.813 21.6839 29.8301 21.5096 29.7963C21.3353 29.7625 21.1752 29.6794 21.0496 29.5575C20.924 29.4356 20.8384 29.2803 20.8038 29.1112C20.7691 28.9422 20.7869 28.767 20.8549 28.6078C20.9229 28.4485 21.038 28.3124 21.1857 28.2166C21.3335 28.1207 21.5072 28.0695 21.6849 28.0693C21.8033 28.0692 21.9205 28.0917 22.0298 28.1356C22.1391 28.1795 22.2385 28.2438 22.3221 28.325C22.4057 28.4062 22.472 28.5025 22.5172 28.6086C22.5623 28.7147 22.5854 28.8283 22.5852 28.943ZM21.6821 27.8829C21.4664 27.8832 21.2556 27.9454 21.0763 28.0618C20.897 28.1782 20.7573 28.3435 20.6749 28.5368C20.5924 28.7301 20.5709 28.9427 20.613 29.1479C20.6551 29.353 20.759 29.5415 20.9115 29.6894C21.0641 29.8374 21.2584 29.9382 21.47 29.9791C21.6815 30.02 21.9009 29.9992 22.1003 29.9194C22.2997 29.8395 22.4702 29.7041 22.5903 29.5304C22.7104 29.3566 22.7747 29.1522 22.7751 28.943C22.7747 28.6621 22.6595 28.3927 22.4546 28.194C22.2497 27.9953 21.9719 27.8834 21.6821 27.8829Z" fill="#FFBE00"/>
</g>
<defs>
<clipPath id="clip0_1332_283">
<rect width="26" height="30" fill="white"/>
</clipPath>
</defs>
</svg>
