<svg width="72" height="30" viewBox="0 0 72 30" fill="none" xmlns="http://www.w3.org/2000/svg">
<path d="M26.7869 3.744V12H25.6709V3.744H26.7869ZM34.5955 5.532C35.0515 5.532 35.4155 5.704 35.6875 6.048C35.9595 6.384 36.0955 6.836 36.0955 7.404V12H35.0275V7.524C35.0275 6.756 34.7795 6.372 34.2835 6.372C33.8035 6.372 33.3635 6.74 32.9635 7.476V12H31.8955V7.524C31.8955 6.756 31.6475 6.372 31.1515 6.372C30.6635 6.372 30.2235 6.74 29.8315 7.476V12H28.7635V5.688H29.6995L29.7835 6.612C30.2475 5.892 30.8075 5.532 31.4635 5.532C31.8075 5.532 32.0995 5.632 32.3395 5.832C32.5795 6.032 32.7515 6.316 32.8555 6.684C33.3435 5.916 33.9235 5.532 34.5955 5.532ZM41.9744 3.744V11.052H44.9864L44.8664 12H40.8584V3.744H41.9744ZM49.9847 10.56C49.9847 10.816 50.0207 11.008 50.0927 11.136C50.1647 11.256 50.2767 11.348 50.4287 11.412L50.2007 12.144C49.8887 12.096 49.6447 12 49.4687 11.856C49.2927 11.712 49.1687 11.492 49.0967 11.196C48.6887 11.836 48.1167 12.156 47.3807 12.156C46.8207 12.156 46.3767 11.984 46.0487 11.64C45.7207 11.288 45.5567 10.82 45.5567 10.236C45.5567 9.564 45.7767 9.052 46.2167 8.7C46.6567 8.348 47.2847 8.172 48.1007 8.172H48.9167V7.632C48.9167 7.192 48.8247 6.876 48.6407 6.684C48.4647 6.484 48.1727 6.384 47.7647 6.384C47.3247 6.384 46.8127 6.496 46.2287 6.72L45.9647 5.964C46.6687 5.676 47.3247 5.532 47.9327 5.532C49.3007 5.532 49.9847 6.216 49.9847 7.584V10.56ZM47.6327 11.34C48.1927 11.34 48.6207 11.012 48.9167 10.356V8.868H48.2207C47.1807 8.868 46.6607 9.304 46.6607 10.176C46.6607 10.552 46.7447 10.84 46.9127 11.04C47.0807 11.24 47.3207 11.34 47.6327 11.34ZM56.4195 3.132V12H55.4595L55.3875 11.172C54.9795 11.828 54.4315 12.156 53.7435 12.156C53.0555 12.156 52.5195 11.864 52.1355 11.28C51.7595 10.696 51.5715 9.892 51.5715 8.868C51.5715 8.204 51.6635 7.62 51.8475 7.116C52.0395 6.612 52.3075 6.224 52.6515 5.952C52.9955 5.672 53.3915 5.532 53.8395 5.532C54.4395 5.532 54.9395 5.784 55.3395 6.288V3.012L56.4195 3.132ZM53.9955 11.304C54.2835 11.304 54.5315 11.224 54.7395 11.064C54.9555 10.904 55.1555 10.668 55.3395 10.356V7.188C54.9795 6.652 54.5595 6.384 54.0795 6.384C53.6555 6.384 53.3195 6.588 53.0715 6.996C52.8235 7.404 52.7035 8.02 52.7115 8.844C52.7115 9.684 52.8235 10.304 53.0475 10.704C53.2715 11.104 53.5875 11.304 53.9955 11.304ZM62.7931 8.652C62.7931 8.82 62.7851 9.008 62.7691 9.216H59.0971C59.1291 9.952 59.2771 10.484 59.5411 10.812C59.8051 11.132 60.1651 11.292 60.6211 11.292C60.9091 11.292 61.1651 11.248 61.3891 11.16C61.6211 11.072 61.8611 10.928 62.1091 10.728L62.5891 11.364C61.9971 11.892 61.3251 12.156 60.5731 12.156C59.7491 12.156 59.1091 11.872 58.6531 11.304C58.2051 10.728 57.9811 9.924 57.9811 8.892C57.9811 7.86 58.1971 7.044 58.6291 6.444C59.0611 5.836 59.6611 5.532 60.4291 5.532C61.1891 5.532 61.7731 5.804 62.1811 6.348C62.5891 6.884 62.7931 7.652 62.7931 8.652ZM61.7491 8.328C61.7491 7.008 61.3131 6.348 60.4411 6.348C60.0411 6.348 59.7251 6.516 59.4931 6.852C59.2611 7.18 59.1291 7.716 59.0971 8.46H61.7491V8.328ZM67.1148 5.532C67.6188 5.532 68.0108 5.7 68.2908 6.036C68.5788 6.364 68.7228 6.82 68.7228 7.404V12H67.6428V7.536C67.6428 7.128 67.5748 6.836 67.4388 6.66C67.3028 6.476 67.0948 6.384 66.8148 6.384C66.2868 6.384 65.8068 6.76 65.3748 7.512V12H64.2948V5.688H65.2308L65.3148 6.624C65.8028 5.896 66.4028 5.532 67.1148 5.532ZM29.5589 24.56C29.5589 24.816 29.5949 25.008 29.6669 25.136C29.7389 25.256 29.8509 25.348 30.0029 25.412L29.7749 26.144C29.4629 26.096 29.2189 26 29.0429 25.856C28.8669 25.712 28.7429 25.492 28.6709 25.196C28.2629 25.836 27.6909 26.156 26.9549 26.156C26.3949 26.156 25.9509 25.984 25.6229 25.64C25.2949 25.288 25.1309 24.82 25.1309 24.236C25.1309 23.564 25.3509 23.052 25.7909 22.7C26.2309 22.348 26.8589 22.172 27.6749 22.172H28.4909V21.632C28.4909 21.192 28.3989 20.876 28.2149 20.684C28.0389 20.484 27.7469 20.384 27.3389 20.384C26.8989 20.384 26.3869 20.496 25.8029 20.72L25.5389 19.964C26.2429 19.676 26.8989 19.532 27.5069 19.532C28.8749 19.532 29.5589 20.216 29.5589 21.584V24.56ZM27.2069 25.34C27.7669 25.34 28.1949 25.012 28.4909 24.356V22.868H27.7949C26.7549 22.868 26.2349 23.304 26.2349 24.176C26.2349 24.552 26.3189 24.84 26.4869 25.04C26.6549 25.24 26.8949 25.34 27.2069 25.34ZM34.2177 19.532C34.8817 19.532 35.3937 19.816 35.7537 20.384C36.1217 20.944 36.3057 21.76 36.3057 22.832C36.3057 23.856 36.1057 24.668 35.7057 25.268C35.3137 25.86 34.7777 26.156 34.0977 26.156C33.7777 26.156 33.4857 26.084 33.2217 25.94C32.9577 25.788 32.7297 25.576 32.5377 25.304L32.4657 26H31.5057V17.144L32.5857 17.024V20.456C32.7857 20.168 33.0217 19.944 33.2937 19.784C33.5737 19.616 33.8817 19.532 34.2177 19.532ZM33.8457 25.304C34.7337 25.304 35.1777 24.48 35.1777 22.832C35.1777 21.944 35.0697 21.316 34.8537 20.948C34.6377 20.572 34.3297 20.384 33.9297 20.384C33.6497 20.384 33.4017 20.468 33.1857 20.636C32.9777 20.804 32.7777 21.04 32.5857 21.344V24.476C32.7377 24.724 32.9217 24.924 33.1377 25.076C33.3537 25.228 33.5897 25.304 33.8457 25.304ZM40.7124 19.532C41.2164 19.532 41.6084 19.7 41.8884 20.036C42.1764 20.372 42.3204 20.828 42.3204 21.404V26H41.2404V21.536C41.2404 21.128 41.1684 20.836 41.0244 20.66C40.8884 20.476 40.6844 20.384 40.4124 20.384C39.8844 20.384 39.4044 20.76 38.9724 21.512V26H37.8924V17.144L38.9724 17.024V20.588C39.2044 20.244 39.4604 19.984 39.7404 19.808C40.0204 19.624 40.3444 19.532 40.7124 19.532ZM46.4165 19.532C47.2245 19.532 47.8525 19.816 48.3005 20.384C48.7485 20.952 48.9725 21.768 48.9725 22.832C48.9725 23.856 48.7445 24.668 48.2885 25.268C47.8325 25.86 47.2045 26.156 46.4045 26.156C45.5965 26.156 44.9645 25.864 44.5085 25.28C44.0605 24.696 43.8365 23.884 43.8365 22.844C43.8365 21.796 44.0645 20.984 44.5205 20.408C44.9765 19.824 45.6085 19.532 46.4165 19.532ZM46.4165 20.396C45.9445 20.396 45.5845 20.596 45.3365 20.996C45.0885 21.388 44.9645 22.004 44.9645 22.844C44.9645 24.484 45.4445 25.304 46.4045 25.304C47.3645 25.304 47.8445 24.48 47.8445 22.832C47.8445 21.992 47.7245 21.376 47.4845 20.984C47.2445 20.592 46.8885 20.396 46.4165 20.396ZM51.7249 26.156C51.3409 26.156 51.0369 26.04 50.8129 25.808C50.5889 25.576 50.4769 25.252 50.4769 24.836V17.132L51.5569 17.012V24.8C51.5569 25.112 51.6849 25.268 51.9409 25.268C52.0449 25.268 52.1609 25.244 52.2889 25.196L52.5289 25.952C52.2729 26.088 52.0049 26.156 51.7249 26.156ZM58.0704 22.652C58.0704 22.82 58.0624 23.008 58.0464 23.216H54.3744C54.4064 23.952 54.5544 24.484 54.8184 24.812C55.0824 25.132 55.4424 25.292 55.8984 25.292C56.1864 25.292 56.4424 25.248 56.6664 25.16C56.8984 25.072 57.1384 24.928 57.3864 24.728L57.8664 25.364C57.2744 25.892 56.6024 26.156 55.8504 26.156C55.0264 26.156 54.3864 25.872 53.9304 25.304C53.4824 24.728 53.2584 23.924 53.2584 22.892C53.2584 21.86 53.4744 21.044 53.9064 20.444C54.3384 19.836 54.9384 19.532 55.7064 19.532C56.4664 19.532 57.0504 19.804 57.4584 20.348C57.8664 20.884 58.0704 21.652 58.0704 22.652ZM57.0264 22.328C57.0264 21.008 56.5904 20.348 55.7184 20.348C55.3184 20.348 55.0024 20.516 54.7704 20.852C54.5384 21.18 54.4064 21.716 54.3744 22.46H57.0264V22.328ZM62.3921 19.532C62.8961 19.532 63.2881 19.7 63.5681 20.036C63.8561 20.364 64.0001 20.82 64.0001 21.404V26H62.9201V21.536C62.9201 21.128 62.8521 20.836 62.7161 20.66C62.5801 20.476 62.3721 20.384 62.0921 20.384C61.5641 20.384 61.0841 20.76 60.6521 21.512V26H59.5721V19.688H60.5081L60.5921 20.624C61.0801 19.896 61.6801 19.532 62.3921 19.532Z" fill="#464646"/>
<path d="M14.4637 9.188C14.4637 6.73874 12.471 4.74609 10.0218 4.74609C7.57272 4.74609 5.58008 6.73874 5.58008 9.188C5.58008 11.637 7.57249 13.6297 10.0218 13.6297C12.471 13.6297 14.4637 11.637 14.4637 9.188Z" fill="#CC950C"/>
<path d="M10.0218 24.7266C10.71 23.83 14.7452 18.2845 16.1036 16.4317C17.7193 14.2282 19.2098 12.0174 19.2098 9.188C19.2098 4.11369 15.0961 0.000228882 10.0218 0.000228882L10.0206 0C4.94607 0 0.833984 4.11346 0.833984 9.18777C0.833984 12.0172 2.32423 14.2282 3.93991 16.4317C5.29855 18.2845 10.0218 24.7266 10.0218 24.7266ZM3.82227 9.188C3.82227 5.76942 6.60341 2.98828 10.0218 2.98828C13.4403 2.98828 16.2215 5.76942 16.2215 9.188C16.2215 12.6064 13.4403 15.3875 10.0218 15.3875C6.60341 15.3875 3.82227 12.6064 3.82227 9.188Z" fill="#464646"/>
<path d="M13.3958 23.0977C13.2138 23.3462 9.98932 27.6552 9.98932 27.6552L6.64787 23.0977H2.60239L0 29.9998H20.0432L17.4406 23.0977H13.3958Z" fill="#464646"/>
</svg>
