<svg width="167" height="36" viewBox="0 0 167 36" fill="none" xmlns="http://www.w3.org/2000/svg">
<path d="M116.632 11.992C117.581 11.992 118.408 12.136 119.112 12.424C119.816 12.712 120.387 13.256 120.824 14.056C121.272 14.856 121.496 15.9813 121.496 17.432C121.496 19.5013 121.053 20.9467 120.168 21.768C119.293 22.5893 118.184 23 116.84 23H114.36V11.992H116.632ZM115.848 13.16V21.848H116.936C117.853 21.848 118.584 21.5333 119.128 20.904C119.672 20.264 119.944 19.1067 119.944 17.432C119.944 16.2587 119.8 15.3573 119.512 14.728C119.235 14.0987 118.872 13.6827 118.424 13.48C117.987 13.2667 117.464 13.16 116.856 13.16H115.848ZM125.033 14.584V23H123.593V14.584H125.033ZM124.313 10.616C124.59 10.616 124.814 10.7067 124.985 10.888C125.166 11.0693 125.257 11.2933 125.257 11.56C125.257 11.8267 125.172 12.0507 125.001 12.232C124.83 12.4027 124.601 12.488 124.313 12.488C124.036 12.488 123.806 12.4027 123.625 12.232C123.454 12.0507 123.369 11.8267 123.369 11.56C123.369 11.2933 123.454 11.0693 123.625 10.888C123.806 10.7067 124.036 10.616 124.313 10.616ZM133.528 18.536C133.528 18.76 133.517 19.0107 133.496 19.288H128.6C128.643 20.2693 128.84 20.9787 129.192 21.416C129.544 21.8427 130.024 22.056 130.632 22.056C131.016 22.056 131.357 21.9973 131.656 21.88C131.965 21.7627 132.285 21.5707 132.616 21.304L133.256 22.152C132.467 22.856 131.571 23.208 130.568 23.208C129.469 23.208 128.616 22.8293 128.008 22.072C127.411 21.304 127.112 20.232 127.112 18.856C127.112 17.48 127.4 16.392 127.976 15.592C128.552 14.7813 129.352 14.376 130.376 14.376C131.389 14.376 132.168 14.7387 132.712 15.464C133.256 16.1787 133.528 17.2027 133.528 18.536ZM132.136 18.104C132.136 16.344 131.555 15.464 130.392 15.464C129.859 15.464 129.437 15.688 129.128 16.136C128.819 16.5733 128.643 17.288 128.6 18.28H132.136V18.104ZM141.856 11.992C143.179 11.992 144.187 12.2747 144.88 12.84C145.573 13.4053 145.92 14.2533 145.92 15.384C145.92 16.5787 145.563 17.4693 144.848 18.056C144.144 18.632 143.163 18.92 141.904 18.92H140.848V23H139.36V11.992H141.856ZM141.856 17.768C142.699 17.768 143.328 17.592 143.744 17.24C144.16 16.888 144.368 16.2747 144.368 15.4C144.368 14.6 144.16 14.024 143.744 13.672C143.339 13.3093 142.715 13.128 141.872 13.128H140.848V17.768H141.856ZM150.115 14.376C151.192 14.376 152.029 14.7547 152.627 15.512C153.224 16.2693 153.523 17.3573 153.523 18.776C153.523 20.1413 153.219 21.224 152.611 22.024C152.003 22.8133 151.165 23.208 150.099 23.208C149.021 23.208 148.179 22.8187 147.571 22.04C146.973 21.2613 146.675 20.1787 146.675 18.792C146.675 17.3947 146.979 16.312 147.587 15.544C148.195 14.7653 149.037 14.376 150.115 14.376ZM150.115 15.528C149.485 15.528 149.005 15.7947 148.675 16.328C148.344 16.8507 148.179 17.672 148.179 18.792C148.179 20.9787 148.819 22.072 150.099 22.072C151.379 22.072 152.019 20.9733 152.019 18.776C152.019 17.656 151.859 16.8347 151.539 16.312C151.219 15.7893 150.744 15.528 150.115 15.528ZM157.785 14.376C158.755 14.376 159.619 14.696 160.377 15.336L159.769 16.184C159.427 15.9493 159.107 15.7733 158.809 15.656C158.51 15.5387 158.195 15.48 157.865 15.48C157.427 15.48 157.081 15.5867 156.825 15.8C156.579 16.0027 156.457 16.2853 156.457 16.648C156.457 17 156.574 17.2773 156.809 17.48C157.054 17.6827 157.513 17.8907 158.185 18.104C159.027 18.3707 159.641 18.696 160.025 19.08C160.409 19.464 160.601 19.992 160.601 20.664C160.601 21.4533 160.313 22.0773 159.737 22.536C159.161 22.984 158.441 23.208 157.577 23.208C156.435 23.208 155.47 22.8293 154.681 22.072L155.417 21.272C156.089 21.816 156.798 22.088 157.545 22.088C158.014 22.088 158.393 21.9707 158.681 21.736C158.969 21.5013 159.113 21.176 159.113 20.76C159.113 20.4613 159.059 20.2213 158.953 20.04C158.857 19.8587 158.675 19.6987 158.409 19.56C158.153 19.4107 157.774 19.256 157.273 19.096C156.473 18.8293 155.897 18.5093 155.545 18.136C155.193 17.7627 155.017 17.288 155.017 16.712C155.017 16.264 155.134 15.864 155.368 15.512C155.603 15.16 155.929 14.8827 156.345 14.68C156.761 14.4773 157.241 14.376 157.785 14.376ZM166.421 22.632C165.887 23.016 165.295 23.208 164.645 23.208C163.962 23.208 163.434 23.0107 163.061 22.616C162.698 22.2213 162.517 21.6667 162.517 20.952V15.672H161.317V14.584H162.517V12.648L163.957 12.472V14.584H165.813L165.653 15.672H163.957V20.936C163.957 21.6613 164.261 22.024 164.869 22.024C165.05 22.024 165.215 21.9973 165.365 21.944C165.525 21.8907 165.701 21.8107 165.893 21.704L166.421 22.632Z" fill="#464646"/>
<g clip-path="url(#clip0_1000_349)">
<path fill-rule="evenodd" clip-rule="evenodd" d="M0 0H104V36H0V0Z" fill="#FFCC00"/>
<path fill-rule="evenodd" clip-rule="evenodd" d="M74.1215 26.9946L75.2391 21.7424H11.6053L10.4893 26.9946H74.1215Z" fill="white"/>
<path fill-rule="evenodd" clip-rule="evenodd" d="M27.8508 12.5415H25.4844L23.1318 23.4947H25.4989L27.8508 12.5415Z" fill="black"/>
<path fill-rule="evenodd" clip-rule="evenodd" d="M36.1442 12.5415H29.5278L27.1904 23.4947H33.88L34.3069 21.5076H29.9829L30.5707 18.783H34.3207L34.7476 16.8112H30.9976L31.4832 14.5294H35.7173L36.1442 12.5415Z" fill="black"/>
<path fill-rule="evenodd" clip-rule="evenodd" d="M20.5939 18.2125C20.3149 19.5072 19.535 21.0844 17.8296 21.4226C17.4782 21.4814 17.1534 21.4966 16.8744 21.4966H15.7568L17.2274 14.5757H18.2413C18.4921 14.5757 18.8306 14.5902 19.0951 14.6345C20.6533 14.8994 20.9766 16.4895 20.5939 18.2125ZM19.676 12.6145C19.2201 12.555 18.6179 12.5413 18.2497 12.5413H15.2658L12.9277 23.4944H16.8691C17.2213 23.4944 17.6619 23.4799 17.9722 23.4372C21.0582 23.0532 22.5584 20.8157 22.9991 18.5331C23.6173 15.3536 22.5005 13.0268 19.676 12.6145Z" fill="black"/>
<path fill-rule="evenodd" clip-rule="evenodd" d="M75.4602 12.5415H67.1689L66.7275 14.5721H69.6969L67.7864 23.4947H70.1528L72.0647 14.5721H75.0203L75.4602 12.5415Z" fill="black"/>
<path fill-rule="evenodd" clip-rule="evenodd" d="M55.53 18.0358C55.1473 19.8031 54.4277 21.6428 52.428 21.6428C50.5008 21.6428 50.237 19.8321 50.6342 18.0358C51.0154 16.2693 51.7366 14.4295 53.7355 14.4295C55.6627 14.4295 55.928 16.2388 55.53 18.0358ZM53.9077 12.4233C50.1135 12.4233 48.672 14.9998 48.0682 18.0182C47.4514 21.0359 48.7314 23.6124 52.1864 23.6124C55.9798 23.6124 57.4206 21.0359 58.0236 18.0182C58.6404 14.9998 57.3619 12.4233 53.9077 12.4233Z" fill="black"/>
<path fill-rule="evenodd" clip-rule="evenodd" d="M59.2296 15.7651C59.2296 17.0598 60.024 17.6942 60.7726 18.2682L62.0229 19.1958C62.2729 19.3874 62.5085 19.5492 62.6846 19.7553C62.8462 19.9317 62.9781 20.108 62.9781 20.3882C62.9781 20.7851 62.7875 21.0355 62.5222 21.2126C62.0229 21.5371 61.2445 21.5371 60.7726 21.5371C60.024 21.5371 58.8629 21.3165 58.42 21.1386L57.7148 23.1417C58.5671 23.4501 59.9348 23.583 60.9205 23.583C62.1113 23.583 62.9636 23.4219 63.6848 23.112C64.9777 22.5669 65.6249 21.5508 65.6249 20.3592C65.6249 19.653 65.3901 19.1813 65.0669 18.7545C64.8016 18.4156 64.3755 18.0468 63.8906 17.6789L62.7585 16.8254C62.1852 16.3987 61.7576 16.0742 61.7576 15.5735C61.7576 15.1032 62.0816 14.691 62.6846 14.6169C63.0528 14.5726 63.3905 14.5726 63.9493 14.5726H65.7423L66.1837 12.5413H64.1841C63.6108 12.5413 62.8607 12.5413 62.215 12.6145C60.6712 12.7909 59.2296 13.8955 59.2296 15.7651Z" fill="black"/>
<path fill-rule="evenodd" clip-rule="evenodd" d="M45.171 16.3987C45.0246 17.3109 44.4063 17.8713 43.6127 18.0629C43.4214 18.1056 43.0677 18.1354 42.8634 18.1354H41.9074L42.672 14.5581H43.7004C43.9939 14.5581 44.215 14.5872 44.3919 14.6459C44.9796 14.8375 45.3333 15.4124 45.171 16.3987ZM44.818 12.6145C44.539 12.5703 44.141 12.5413 43.7446 12.5413H40.7608L38.4082 23.4944H40.7608L41.4805 20.153H42.8481C43.5678 20.153 44.0389 20.079 44.4955 19.9462C46.1857 19.4309 47.2743 18.0178 47.5236 16.5155C47.8918 14.4696 46.8634 12.9527 44.818 12.6145Z" fill="black"/>
<path fill-rule="evenodd" clip-rule="evenodd" d="M86.5473 12.5325C86.5473 12.5325 87.9439 5.94826 87.9508 5.91162H79.0633C79.0595 5.93452 77.2162 14.5471 77.2086 14.583H79.4087C79.414 14.5593 80.8251 7.96286 80.8251 7.96286H85.3146C85.3146 7.96286 83.905 14.5471 83.8966 14.583H90.5626L89.6775 18.7236H83.0466C83.0413 18.7481 81.7224 24.9163 81.7224 24.9163H76.6985C76.694 24.94 76.2693 26.9607 76.2617 26.995H83.4865C83.491 26.9721 84.8175 20.7886 84.8175 20.7886H91.4233C91.4286 20.765 93.1843 12.5676 93.1919 12.5325H86.5473Z" fill="#FF0000"/>
</g>
<defs>
<clipPath id="clip0_1000_349">
<rect width="104" height="36" fill="white"/>
</clipPath>
</defs>
</svg>
