<svg width="39" height="33" viewBox="0 0 39 33" fill="none" xmlns="http://www.w3.org/2000/svg">
<path d="M37.9443 0.000348317H0.910663C0.40736 0.000348317 0 0.407708 0 0.911011V4.74856C0 5.25187 0.40736 5.65923 0.910663 5.65923H4.18905C4.14541 5.70042 4.09852 5.73755 4.05543 5.78011C1.91647 7.91907 1.91647 11.3994 4.05543 13.5386C4.9466 14.4298 6.11717 14.8754 7.28775 14.8754C8.14256 14.8754 8.99549 14.635 9.74109 14.1601V32.0882C9.74109 32.5909 10.1484 32.9988 10.6518 32.9988C11.1551 32.9988 11.5624 32.5909 11.5624 32.0882V11.5998C11.8126 10.3778 11.4665 9.05676 10.5201 8.11085C9.73138 7.32105 8.60771 6.99314 7.51782 7.23349C7.02672 7.34163 6.71582 7.82732 6.82399 8.31845C6.93213 8.81009 7.4208 9.12045 7.90894 9.01228C8.38975 8.90713 8.88385 9.0505 9.23181 9.3985C10.0186 10.1853 10.0186 11.4651 9.23181 12.2519C8.15962 13.3241 6.41552 13.3241 5.34278 12.2519C3.91361 10.8227 3.91361 8.49762 5.34278 7.06901C6.25101 6.16077 7.45843 5.66045 8.74314 5.66045C10.0279 5.66045 11.2353 6.16077 12.1435 7.06901C13.2 8.12552 13.841 9.52485 13.9526 11.0122V32.089C13.9526 32.5917 14.36 32.9996 14.8633 32.9996C15.3666 32.9996 15.7739 32.5917 15.7739 32.089V10.9671C15.7739 10.9555 15.771 10.9452 15.771 10.9343C15.7704 10.9235 15.7729 10.9132 15.7715 10.9021C15.633 8.97016 14.8026 7.1521 13.4312 5.78121C13.3886 5.73866 13.342 5.7018 13.2976 5.66033H18.5168V32.0893C18.5168 32.5921 18.9242 33 19.4275 33C19.9308 33 20.3382 32.5921 20.3382 32.0893V5.66033H25.5563C25.5132 5.70153 25.4663 5.73812 25.4232 5.78121C24.0518 7.15154 23.22 8.97044 23.0829 10.9028C23.0824 10.9137 23.084 10.924 23.084 10.9343C23.0835 10.9459 23.0805 10.9562 23.0805 10.9671V32.0889C23.0805 32.5917 23.4884 32.9996 23.9911 32.9996C24.4939 32.9996 24.9018 32.5917 24.9018 32.0889V11.0108C25.0129 9.52334 25.6539 8.12457 26.7109 7.06813C27.6192 6.15989 28.8266 5.65956 30.1113 5.65956C31.396 5.65956 32.6029 6.15989 33.5116 7.06813C34.9408 8.4973 34.9408 10.8224 33.5116 12.251C32.4395 13.3232 30.6954 13.3232 29.6226 12.251C29.2413 11.8697 29.0312 11.3634 29.0312 10.8244C29.0312 10.2853 29.2413 9.77902 29.6226 9.39769C29.9698 9.04969 30.4642 8.90414 30.9474 9.01228C31.4399 9.11907 31.9242 8.80901 32.0318 8.31761C32.14 7.82651 31.8291 7.34083 31.3372 7.23266C30.2492 6.99334 29.1237 7.32074 28.3349 8.11002C27.3871 9.05697 27.0418 10.3794 27.293 11.6028V32.0884C27.293 32.5911 27.7009 32.9991 28.2037 32.9991C28.7065 32.9991 29.1144 32.5911 29.1144 32.0884V14.1603C29.8605 14.6351 30.7129 14.8747 31.5672 14.8747C32.7384 14.8747 33.9081 14.4292 34.7995 13.538C36.9385 11.399 36.9385 7.91872 34.7995 5.77948C34.757 5.73693 34.7104 5.70007 34.6659 5.6586H37.9443C38.4471 5.6586 38.855 5.25124 38.855 4.74794V0.910663C38.855 0.407901 38.4471 0 37.9443 0L37.9443 0.000348317ZM37.0336 3.83839H1.82133V1.82167H37.0336V3.83839Z" fill="white"/>
</svg>
