<svg width="8" height="8" viewBox="0 0 8 8" fill="none" xmlns="http://www.w3.org/2000/svg">
<path d="M7.29495 1.84535C7.26666 1.7915 7.2242 1.7464 7.17215 1.71491C7.1201 1.68343 7.06044 1.66675 6.99961 1.66669L0.999613 1.66669C0.938894 1.66694 0.879392 1.68374 0.827506 1.71527C0.77562 1.74681 0.733314 1.7919 0.705136 1.84568C0.676958 1.89947 0.663974 1.95992 0.667582 2.02053C0.67119 2.08114 0.691253 2.13962 0.725613 2.18969L3.72561 6.52302C3.75619 6.56743 3.79711 6.60375 3.84484 6.62884C3.89257 6.65392 3.94569 6.66703 3.99961 6.66703C4.05354 6.66703 4.10665 6.65392 4.15438 6.62884C4.20211 6.60375 4.24303 6.56743 4.27361 6.52302L7.27361 2.18969C7.30831 2.13973 7.32864 2.08121 7.3324 2.0205C7.33617 1.95979 7.32321 1.89921 7.29495 1.84535Z" fill="black"/>
</svg>
