<svg width="23" height="23" viewBox="0 0 23 23" fill="none" xmlns="http://www.w3.org/2000/svg">
<path d="M17.5038 4.41572C15.388 2.2999 11.9425 2.2999 9.82893 4.41572L3.96662 10.2735C3.92844 10.3117 3.90822 10.3634 3.90822 10.4173C3.90822 10.4712 3.92844 10.5229 3.96662 10.561L4.79543 11.3898C4.83332 11.4276 4.8846 11.4487 4.93806 11.4487C4.99152 11.4487 5.0428 11.4276 5.08068 11.3898L10.943 5.53203C11.6707 4.8043 12.6388 4.40449 13.6675 4.40449C14.6962 4.40449 15.6643 4.8043 16.3898 5.53203C17.1175 6.25977 17.5173 7.22783 17.5173 8.2543C17.5173 9.28301 17.1175 10.2488 16.3898 10.9766L10.4152 16.9489L9.44709 17.917C8.54192 18.8222 7.07072 18.8222 6.16555 17.917C5.72756 17.479 5.48723 16.8973 5.48723 16.2773C5.48723 15.6574 5.72756 15.0757 6.16555 14.6377L12.093 8.7125C12.2435 8.56426 12.4411 8.48115 12.6523 8.48115H12.6545C12.8656 8.48115 13.0611 8.56426 13.2093 8.7125C13.3598 8.86299 13.4406 9.06064 13.4406 9.27178C13.4406 9.48066 13.3575 9.67832 13.2093 9.82656L8.36447 14.6669C8.32629 14.7051 8.30608 14.7567 8.30608 14.8106C8.30608 14.8646 8.32629 14.9162 8.36447 14.9544L9.19328 15.7832C9.23117 15.8209 9.28245 15.8421 9.33591 15.8421C9.38937 15.8421 9.44065 15.8209 9.47854 15.7832L14.3211 10.9406C14.7681 10.4937 15.0129 9.90068 15.0129 9.26953C15.0129 8.63838 14.7658 8.04316 14.3211 7.59844C13.398 6.67529 11.8976 6.67754 10.9744 7.59844L10.3994 8.17568L5.04924 13.5236C4.68612 13.8846 4.39827 14.3141 4.20241 14.7872C4.00654 15.2603 3.90655 15.7676 3.90822 16.2796C3.90822 17.3195 4.31477 18.2966 5.04924 19.0311C5.81067 19.7902 6.80793 20.1698 7.8052 20.1698C8.80246 20.1698 9.79973 19.7902 10.5589 19.0311L17.5038 12.0906C18.5258 11.0664 19.0918 9.70303 19.0918 8.2543C19.0941 6.80332 18.528 5.43994 17.5038 4.41572Z" fill="#464646"/>
</svg>
