<svg width="29" height="28" viewBox="0 0 29 28" fill="none" xmlns="http://www.w3.org/2000/svg">
<path d="M26.2361 19.2158C26.6046 19.2158 26.9026 19.5134 26.9026 19.8809C26.9026 20.2486 26.6044 20.546 26.2361 20.546H11.4046C11.0833 20.546 10.8147 20.3186 10.7523 20.0168L9.87313 16.7435C9.86506 16.7203 9.85885 16.6956 9.85347 16.6716L7.16608 6.66182L6.13467 2.82113L1.45771 1.29548C1.10805 1.18172 0.917512 0.807161 1.03067 0.459052C1.14467 0.110103 1.51999 -0.0808956 1.86987 0.0328819L6.86976 1.66425C7.08597 1.7264 7.26577 1.89778 7.32804 2.1313L7.87613 4.17189H28.3316C28.7001 4.17189 28.998 4.46943 28.998 4.83696C28.998 4.90984 28.9865 4.97984 28.9651 5.04571L25.8337 16.7084C25.7545 17.0059 25.4849 17.2021 25.1903 17.2012V17.2021H11.3746L11.9157 19.2171H26.2367L26.2361 19.2158ZM23.5444 22.4198C24.3159 22.4198 25.0153 22.7324 25.5215 23.2368C26.0278 23.742 26.3402 24.4391 26.3402 25.2099C26.3402 25.9807 26.027 26.6788 25.5215 27.183C25.0152 27.6882 24.3168 28 23.5444 28C22.7721 28 22.0735 27.6874 21.5673 27.183C21.061 26.6777 20.7486 25.9807 20.7486 25.2099C20.7486 24.4399 21.0618 23.742 21.5673 23.2368C22.0736 22.7315 22.7721 22.4198 23.5444 22.4198ZM24.5793 24.1781C24.3141 23.9134 23.9485 23.7509 23.5444 23.7509C23.1403 23.7509 22.7748 23.9143 22.5095 24.1781C22.2453 24.4418 22.0814 24.8069 22.0814 25.2101C22.0814 25.6133 22.2451 25.9782 22.5095 26.2429C22.7737 26.5076 23.1403 26.6701 23.5444 26.6701C23.9485 26.6701 24.3141 26.5068 24.5793 26.2429C24.8435 25.9792 25.0074 25.6141 25.0074 25.2101C25.0074 24.8068 24.8437 24.442 24.5793 24.1781ZM14.2838 22.4198C15.0561 22.4198 15.7556 22.7324 16.2609 23.2368C16.7672 23.742 17.0796 24.4391 17.0796 25.2099C17.0796 25.9807 16.7663 26.6788 16.2609 27.183C15.7546 27.6882 15.0561 28 14.2838 28C13.5123 28 12.8129 27.6874 12.3067 27.183C11.8004 26.6777 11.488 25.9807 11.488 25.2099C11.488 24.4399 11.8012 23.742 12.3067 23.2368C12.8129 22.7315 13.5114 22.4198 14.2838 22.4198ZM15.3187 24.1781C15.0545 23.9134 14.6886 23.7509 14.2838 23.7509C13.8797 23.7509 13.5141 23.9143 13.2489 24.1781C12.9847 24.4418 12.8208 24.8069 12.8208 25.2101C12.8208 25.6133 12.9844 25.9782 13.2489 26.2429C13.5141 26.5076 13.8797 26.6701 14.2838 26.6701C14.6878 26.6701 15.0534 26.5068 15.3187 26.2429C15.5829 25.9792 15.7467 25.6141 15.7467 25.2101C15.7467 24.8068 15.5831 24.442 15.3187 24.1781ZM8.23287 5.50118L11.0171 15.8699H24.6797L27.4631 5.50118H8.23271H8.23287ZM7.16587 6.66179L6.72187 5.00748C6.62669 4.65316 6.83752 4.28913 7.19339 4.19394C7.25132 4.17886 7.30904 4.17164 7.36511 4.17164V4.17081L7.16587 6.66179Z" fill="black"/>
</svg>
