<svg width="32" height="32" viewBox="0 0 32 32" fill="none" xmlns="http://www.w3.org/2000/svg">
<path d="M19 24H4L3.997 8.906L15.431 16.822C15.5982 16.9377 15.7967 16.9997 16 16.9997C16.2033 16.9997 16.4018 16.9377 16.569 16.822L28 8.91V18H30V8C29.9992 7.46981 29.7882 6.96156 29.4133 6.58666C29.0384 6.21176 28.5302 6.00079 28 6H4C3.46973 6.00053 2.96133 6.21141 2.58637 6.58637C2.21141 6.96133 2.00053 7.46973 2 8V24C2.00079 24.5302 2.21176 25.0384 2.58666 25.4133C2.96156 25.7882 3.46981 25.9992 4 26H19V24ZM25.799 8L16 14.784L6.201 8H25.799Z" fill="white"/>
<path d="M26 28C28.2091 28 30 26.2091 30 24C30 21.7909 28.2091 20 26 20C23.7909 20 22 21.7909 22 24C22 26.2091 23.7909 28 26 28Z" fill="white"/>
</svg>
