<svg width="32" height="32" viewBox="0 0 32 32" fill="none" xmlns="http://www.w3.org/2000/svg">
<path d="M14.0717 8.31996L9.56099 3.11329C9.04099 2.51329 8.08766 2.51596 7.48366 3.12129L3.77433 6.83729C2.67033 7.94263 2.35433 9.58396 2.99299 10.9C6.80848 18.7999 13.1797 25.1801 21.0743 29.0066C22.389 29.6453 24.029 29.3293 25.133 28.224L28.877 24.4733C29.4837 23.8666 29.485 22.908 28.8797 22.388L23.653 17.9013C23.1063 17.432 22.257 17.4933 21.709 18.0426L19.8903 19.864C19.7972 19.9615 19.6747 20.0259 19.5415 20.0471C19.4083 20.0683 19.2718 20.0452 19.153 19.9813C16.1803 18.2694 13.7143 15.8003 12.0063 12.8253C11.9424 12.7063 11.9192 12.5696 11.9404 12.4362C11.9616 12.3027 12.026 12.1799 12.1237 12.0866L13.937 10.272C14.4863 9.71996 14.5463 8.86663 14.0717 8.31863V8.31996Z" stroke="white" stroke-width="2" stroke-linecap="round" stroke-linejoin="round"/>
</svg>
