<svg width="36" height="36" viewBox="0 0 36 36" fill="none" xmlns="http://www.w3.org/2000/svg">
<path d="M22.0801 21.0601H23.6801V24.8701H22.0801V21.0601ZM12.0801 11.0601H13.6801V14.8701H12.0801V11.0601ZM12.0801 17.1301H13.6801V20.8801H12.0801V17.1301Z" fill="white"/>
<path d="M32 13.2201V26.7501L23.68 29.3501V27.0601H22.08V29.0601L13.68 24.7501V23.0601H12.08V24.7801L4.00001 28.1101V9.79005L12.08 6.46005V8.81005H13.68V6.47005L22.08 10.7701V12.8701H23.68V11.0001L24.26 10.8201C23.7968 10.2697 23.413 9.65706 23.12 9.00005L13.46 4.11005C13.3284 4.04913 13.1851 4.01758 13.04 4.01758C12.895 4.01758 12.7516 4.04913 12.62 4.11005L2.62001 8.20005C2.43582 8.27572 2.27841 8.40466 2.16795 8.57035C2.05749 8.73603 1.99902 8.93093 2.00001 9.13005V29.6101C2.00083 29.7738 2.04186 29.9349 2.1195 30.0791C2.19715 30.2233 2.30902 30.3463 2.4453 30.4371C2.58158 30.528 2.73808 30.584 2.90107 30.6002C3.06405 30.6164 3.22851 30.5923 3.38001 30.5301L13 26.5301L22.59 31.4501C22.7323 31.523 22.8901 31.5607 23.05 31.5601C23.149 31.58 23.251 31.58 23.35 31.5601L33.35 28.4401C33.5607 28.374 33.7437 28.2401 33.8703 28.0592C33.9969 27.8784 34.0601 27.6606 34.05 27.4401V12.3101C33.4158 12.7138 32.7248 13.0205 32 13.2201Z" fill="white"/>
<path d="M30 11C32.7614 11 35 8.76142 35 6C35 3.23858 32.7614 1 30 1C27.2386 1 25 3.23858 25 6C25 8.76142 27.2386 11 30 11Z" fill="white"/>
</svg>
