<svg width="29" height="28" viewBox="0 0 29 28" fill="none" xmlns="http://www.w3.org/2000/svg">
<path d="M27.494 14.2456H18.6934C20.3808 10.7434 21.2376 8.26442 21.2376 6.87719C21.2376 3.08508 18.2152 0 14.5001 0C10.785 0 7.76261 3.08508 7.76261 6.87719C7.76261 8.2647 8.6194 10.7434 10.3068 14.2456H1.50625C0.710015 14.2456 0.0625 14.9066 0.0625 15.7193V26.5263C0.0625 27.3391 0.710015 28 1.50625 28H27.4937C28.29 28 28.9375 27.3391 28.9375 26.5263V15.7193C28.9375 14.9066 28.29 14.2456 27.4937 14.2456H27.494ZM23.4837 19.0533C23.5503 19.3434 23.613 19.6173 23.6496 19.8827C23.7774 20.8081 23.0499 21.6164 22.3463 22.3978L22.209 22.5509C21.1694 23.7136 20.6555 25.3498 20.7771 27.0175H8.22337C8.34497 25.3498 7.83107 23.7136 6.79123 22.5504L6.65416 22.3978C5.95054 21.6164 5.22306 20.8081 5.35093 19.8827C5.38767 19.6173 5.4504 19.3434 5.51679 19.0533C5.7196 18.1691 5.94949 17.1671 5.42613 16.1899C5.25619 15.8719 5.0147 15.5344 4.71822 15.2281H10.7869C10.8398 15.3344 10.8922 15.4377 10.945 15.5432C11.0078 15.6686 11.0703 15.7941 11.133 15.9178C11.2087 16.0669 11.283 16.2125 11.358 16.3585C11.4196 16.4787 11.4809 16.5991 11.5419 16.7169C11.6143 16.857 11.685 16.9919 11.7563 17.1281C11.8182 17.2465 11.8803 17.3656 11.9411 17.4809C12.009 17.6096 12.0741 17.7318 12.1402 17.8559C12.201 17.9704 12.2625 18.0864 12.3218 18.1967C12.3813 18.3079 12.4374 18.411 12.4949 18.5175C12.557 18.6325 12.62 18.7496 12.6795 18.8585C12.7276 18.9469 12.7714 19.0263 12.8176 19.1107C12.8804 19.2252 12.9444 19.3425 13.003 19.4489C13.0402 19.5164 13.0724 19.5741 13.1081 19.6381C13.1693 19.7487 13.2323 19.8625 13.2879 19.962C13.3743 20.1169 13.4538 20.2581 13.5247 20.384C13.5741 20.4721 13.6201 20.5539 13.6637 20.6316H8.72551C8.45975 20.6316 8.24426 20.8513 8.24426 21.1228C8.24426 21.3943 8.45975 21.614 8.72551 21.614H20.2755C20.5413 21.614 20.7568 21.3943 20.7568 21.1228C20.7568 20.8513 20.5413 20.6316 20.2755 20.6316H15.3376C15.3812 20.5544 15.4267 20.4732 15.4759 20.3855C15.5494 20.2555 15.6321 20.1081 15.7217 19.9476C15.7305 19.932 15.7408 19.9129 15.7498 19.8971C15.8304 19.7526 15.9153 19.5998 16.0066 19.4342C16.0399 19.3739 16.0766 19.3061 16.1112 19.2434C16.1821 19.1142 16.2526 18.9862 16.3284 18.8469C16.3759 18.7596 16.4264 18.6656 16.4756 18.5748C16.5437 18.4489 16.6107 18.3252 16.6816 18.193C16.7388 18.0866 16.7981 17.9743 16.8567 17.8642C16.9235 17.7386 16.9895 17.6151 17.0582 17.4849C17.1201 17.3675 17.1833 17.2463 17.2462 17.1259C17.3163 16.9921 17.3857 16.8594 17.4568 16.7219C17.5186 16.6024 17.5807 16.4805 17.6433 16.3585C17.7174 16.214 17.7911 16.0702 17.8656 15.9228C17.9251 15.8052 17.9842 15.6866 18.0437 15.5675C18.1007 15.4537 18.1574 15.3425 18.2141 15.2281H24.2828C23.9863 15.5344 23.7448 15.8719 23.5747 16.1899C23.0513 17.1671 23.2812 18.1693 23.484 19.0533L23.4837 19.0533ZM11.7291 14.2647C11.7781 14.1923 11.8305 14.123 11.8844 14.0551C11.9283 13.9998 11.9721 13.9445 12.0189 13.8921C12.0769 13.8276 12.1388 13.7671 12.2013 13.7075C12.2516 13.6597 12.301 13.611 12.3539 13.5665C12.4207 13.5101 12.4911 13.4592 12.5618 13.4083C12.6168 13.3689 12.6708 13.3276 12.7279 13.2915C12.8033 13.2439 12.8824 13.2029 12.9612 13.1614C13.0192 13.1309 13.0757 13.0978 13.1355 13.0706C13.2203 13.0322 13.3084 13.002 13.3963 12.9706C13.4545 12.9498 13.5112 12.9255 13.5705 12.9079C13.6698 12.8787 13.772 12.8594 13.8743 12.8395C13.9257 12.8294 13.9755 12.8145 14.0275 12.807C14.1828 12.7844 14.3407 12.7719 14.5004 12.7719C15.3977 12.7719 16.2447 13.1296 16.8815 13.7748C17.0128 13.911 17.1286 14.0575 17.2353 14.2094C17.2691 14.2575 17.2974 14.3088 17.3286 14.3583C17.3743 14.4311 17.4141 14.507 17.4543 14.5829C17.3711 14.7517 17.288 14.918 17.2046 15.0844C17.1569 15.18 17.109 15.2772 17.0613 15.3717C16.9794 15.5342 16.8982 15.6914 16.817 15.8504C16.7603 15.9612 16.7032 16.0743 16.6471 16.1831C16.5826 16.3081 16.5201 16.4267 16.4565 16.5487C16.3854 16.6849 16.3134 16.8239 16.244 16.9561C16.1966 17.046 16.1519 17.1296 16.1053 17.2175C16.0228 17.3732 15.9394 17.5309 15.8599 17.6794C15.8315 17.732 15.8058 17.7794 15.7781 17.8311C15.3179 18.6868 14.9165 19.4086 14.6413 19.8967C14.591 19.9853 14.5444 20.0688 14.5004 20.1465C14.4561 20.0682 14.4091 19.9844 14.3592 19.8952C14.2864 19.7662 14.2047 19.6208 14.1158 19.4616C14.0844 19.4052 14.0473 19.3379 14.014 19.2783C13.9525 19.1675 13.8924 19.0599 13.8251 18.9379C13.7566 18.8136 13.6816 18.6761 13.6077 18.5408C13.5718 18.475 13.5387 18.4153 13.5016 18.3471C13.4146 18.187 13.322 18.0151 13.2291 17.843C13.1999 17.7886 13.1726 17.7388 13.143 17.6833C13.0598 17.5281 12.9726 17.3631 12.886 17.1998C12.8433 17.1191 12.8022 17.0425 12.7586 16.9599C12.6922 16.834 12.6237 16.7011 12.556 16.5715C12.4884 16.4417 12.4215 16.3149 12.3528 16.1818C12.3126 16.1042 12.2716 16.0228 12.2312 15.9441C12.1319 15.7506 12.0327 15.5572 11.9323 15.3585C11.9231 15.3403 11.9139 15.3212 11.9046 15.303C11.7845 15.0647 11.6642 14.823 11.5443 14.5791C11.5678 14.5348 11.5901 14.4901 11.6155 14.4471C11.6522 14.385 11.6891 14.3236 11.7291 14.2646L11.7291 14.2647ZM14.5004 0.982456C17.6846 0.982456 20.2754 3.62695 20.2754 6.87719C20.2754 8.06535 19.4762 10.362 17.9574 13.5472C17.9441 13.5292 17.9273 13.5135 17.9138 13.4957C17.8051 13.3527 17.6904 13.2135 17.5634 13.0817C16.7414 12.2483 15.6534 11.7895 14.5004 11.7895C14.3062 11.7895 14.1147 11.8062 13.9255 11.8323C13.8655 11.8406 13.8073 11.854 13.748 11.8648C13.6185 11.8882 13.4904 11.9161 13.3643 11.9512C13.2988 11.9694 13.2345 11.9895 13.1701 12.011C13.0493 12.0509 12.9314 12.0968 12.8152 12.1472C12.7565 12.1726 12.6976 12.1966 12.6403 12.2244C12.5045 12.2904 12.3732 12.3648 12.245 12.4448C12.2132 12.4645 12.1796 12.4808 12.1485 12.5014C11.9921 12.6047 11.843 12.7187 11.7005 12.8419C11.661 12.8762 11.6251 12.9145 11.5867 12.9503C11.4859 13.0439 11.3884 13.1406 11.2964 13.2437C11.2513 13.2944 11.209 13.3472 11.166 13.4001C11.1256 13.4498 11.0816 13.4957 11.0433 13.5472C9.52462 10.3621 8.72536 8.06539 8.72536 6.87718C8.72536 3.62694 11.3161 0.982443 14.5004 0.982443L14.5004 0.982456ZM1.02538 26.5263V15.7193C1.02538 15.4482 1.2413 15.2281 1.50663 15.2281H2.88939C3.65917 15.3941 4.28117 16.0995 4.58174 16.6609C4.9285 17.3085 4.7592 18.0473 4.57981 18.8298C4.51149 19.1283 4.44059 19.4366 4.39783 19.7456C4.20662 21.1311 5.17064 22.2022 5.94537 23.0629L6.08029 23.2131C6.94329 24.1785 7.37367 25.6052 7.25591 27.0178L1.50676 27.0175C1.24143 27.0175 1.02551 26.7974 1.02551 26.5263L1.02538 26.5263ZM27.9754 26.5263C27.9754 26.7974 27.7595 27.0175 27.4941 27.0175H21.7444C21.6267 25.6051 22.057 24.1783 22.9198 23.2134L23.055 23.0627C23.8297 22.2022 24.7939 21.1309 24.6025 19.7454C24.5598 19.4364 24.4891 19.1281 24.4205 18.8296C24.2411 18.0471 24.0718 17.3083 24.4186 16.6607C24.7194 16.0996 25.3413 15.3941 26.1111 15.228H27.4939C27.7592 15.228 27.9751 15.4482 27.9751 15.7193L27.9754 26.5263Z" fill="white"/>
<path d="M14.5 9.625C16.1887 9.625 17.5625 8.44745 17.5625 7C17.5625 5.55255 16.1887 4.375 14.5 4.375C12.8113 4.375 11.4375 5.55255 11.4375 7C11.4375 8.44745 12.8113 9.625 14.5 9.625ZM14.5 5.25C15.6257 5.25 16.5417 6.03515 16.5417 7C16.5417 7.96485 15.6257 8.75 14.5 8.75C13.3743 8.75 12.4583 7.96485 12.4583 7C12.4583 6.03515 13.3743 5.25 14.5 5.25Z" fill="white"/>
</svg>
