<svg width="46" height="54" viewBox="0 0 46 54" fill="none" xmlns="http://www.w3.org/2000/svg">
<g clip-path="url(#clip0_1188_50)">
<path d="M6.84374 44.6153C2.95592 41.4755 0.902344 36.9558 0.902344 31.5577V5.89789C7.0417 2.68758 14.4756 1.06055 22.9988 1.06055C31.5219 1.06055 38.9567 2.68758 45.0952 5.89789V31.5577C45.0952 36.9558 43.0416 41.4722 39.1538 44.6153C35.597 47.491 24.2958 52.3826 22.9979 52.9392C21.7017 52.3826 10.4005 47.4918 6.84374 44.6153Z" fill="#330000"/>
<path d="M43.8865 5.59657C41.046 5.33647 38.0954 5.1647 35.0898 5.1647C23.943 5.1647 11.9929 7.52827 2.11354 16.4664V31.7442C2.11354 36.7201 3.979 40.8752 7.52346 43.7249C10.6531 46.2367 20.2844 50.5393 23 51.7215C25.6811 50.5571 35.2878 46.3113 38.4724 43.7249C42.0391 40.8257 43.8865 36.7671 43.8865 31.7442V5.59657ZM4.15561 30.1544V17.7467H8.15514V30.3294C8.15514 31.4492 8.4295 33.107 10.2638 33.107C10.9285 33.1336 11.5861 32.9643 12.153 32.6209V17.7467H16.1476V34.871C14.3436 35.9817 12.2435 36.5337 10.1184 36.4559C6.15907 36.4559 4.1515 34.3362 4.1515 30.1544M22.2081 44.476H18.2061V18.7514C19.825 17.7706 21.701 17.2822 23.5996 17.3472C28.3763 17.3472 31.0007 20.9221 31.0007 26.6759C31.0007 32.4297 28.4543 36.3878 24.0104 36.3878C23.4021 36.3986 22.7954 36.3231 22.209 36.1634L22.2081 44.476ZM22.2081 32.9377C22.6236 33.0912 23.0632 33.1718 23.5068 33.1759C25.8068 33.1759 26.9092 31.0911 26.9092 26.7747C26.9092 22.3531 25.9473 20.5243 23.6235 20.5243C23.1359 20.5203 22.6529 20.6172 22.2057 20.8087L22.2081 32.9377ZM31.9076 22.4916C31.9326 21.1086 32.5112 19.7916 33.517 18.8278C34.5229 17.864 35.8743 17.3318 37.2764 17.3472C38.8459 17.2651 40.3963 17.7177 41.6678 18.629V22.0622C40.7254 21.0923 39.4439 20.5128 38.0839 20.4416C36.9495 20.4319 35.7691 20.9237 35.7305 22.3271C35.6919 23.7638 36.8698 24.331 38.3591 25.1947C41.7015 27.1329 42.3479 28.875 42.2707 31.177C42.1943 33.701 40.4307 36.4575 36.4772 36.4575C34.9268 36.4404 33.4089 36.0176 32.0784 35.2324V31.5967C33.1354 32.5388 34.482 33.1042 35.903 33.2027C37.3709 33.2099 38.3369 32.3802 38.3024 31.0036C38.272 29.7647 37.5631 29.0913 35.8028 28.0712C32.5031 26.1622 31.91 24.5911 31.9043 22.4916M6.18454 45.3341C2.13571 42.063 0 37.3626 0 31.7442V5.03505C6.38989 1.69348 14.1286 0 23 0C31.8714 0 39.6101 1.69348 46 5.03505V31.7442C46 37.3626 43.8643 42.063 39.8155 45.3349C36.1141 48.3281 24.3504 53.419 23 53.9984C21.6496 53.419 9.88589 48.3281 6.18454 45.3341ZM37.6814 50.9323V53.2505H38.1053V52.283H38.1652C38.1973 52.33 38.8035 53.2505 38.8035 53.2505H39.3169C39.3169 53.2505 38.6729 52.3211 38.6071 52.2336C38.754 52.2089 38.887 52.1333 38.9824 52.0204C39.0777 51.9075 39.129 51.7647 39.1271 51.6178C39.1291 51.5199 39.1094 51.4227 39.0695 51.3331C39.0296 51.2434 38.9704 51.1634 38.896 51.0985C38.8216 51.0337 38.7338 50.9856 38.6387 50.9576C38.5435 50.9296 38.4434 50.9223 38.3451 50.9363L37.6814 50.9323ZM38.2991 51.271C38.6597 51.271 38.7098 51.4452 38.7098 51.5951C38.7098 51.8123 38.6154 51.9589 38.1611 51.9589H38.1061V51.2694L38.2991 51.271ZM39.9584 52.0975C39.9577 52.4077 39.8639 52.7107 39.6888 52.9684C39.5136 53.226 39.265 53.4267 38.9743 53.545C38.6836 53.6634 38.3639 53.6941 38.0555 53.6333C37.7471 53.5725 37.4639 53.4229 37.2416 53.2035C37.0194 52.984 36.868 52.7045 36.8067 52.4002C36.7454 52.096 36.7769 51.7806 36.8971 51.494C37.0174 51.2074 37.2211 50.9623 37.4825 50.7898C37.7438 50.6173 38.0512 50.525 38.3656 50.5247C38.575 50.5245 38.7824 50.5651 38.9758 50.644C39.1692 50.723 39.345 50.8389 39.493 50.985C39.6409 51.1311 39.7582 51.3046 39.8381 51.4955C39.9179 51.6864 39.9588 51.891 39.9584 52.0975ZM38.3607 50.1893C37.979 50.1898 37.606 50.3018 37.2888 50.5113C36.9716 50.7207 36.7245 51.0182 36.5786 51.3662C36.4327 51.7141 36.3946 52.0969 36.4692 52.4662C36.5437 52.8354 36.7275 53.1747 36.9973 53.4409C37.2672 53.7072 37.611 53.8887 37.9853 53.9624C38.3596 54.036 38.7477 53.9986 39.1005 53.8549C39.4533 53.7111 39.755 53.4675 39.9675 53.1547C40.18 52.8419 40.2937 52.474 40.2944 52.0975C40.2937 51.5917 40.0898 51.1069 39.7273 50.7492C39.3649 50.3915 38.8734 50.1901 38.3607 50.1893Z" fill="#FFBE00"/>
</g>
<defs>
<clipPath id="clip0_1188_50">
<rect width="46" height="54" fill="white"/>
</clipPath>
</defs>
</svg>
