<svg width="104" height="36" viewBox="0 0 104 36" fill="none" xmlns="http://www.w3.org/2000/svg">
<g clip-path="url(#clip0_1188_35)">
<path fill-rule="evenodd" clip-rule="evenodd" d="M0 0H104V36H0V0Z" fill="#FFCC00"/>
<path fill-rule="evenodd" clip-rule="evenodd" d="M74.1225 26.9946L75.2401 21.7424H11.6063L10.4902 26.9946H74.1225Z" fill="white"/>
<path fill-rule="evenodd" clip-rule="evenodd" d="M27.8517 12.5415H25.4854L23.1328 23.4947H25.4999L27.8517 12.5415Z" fill="black"/>
<path fill-rule="evenodd" clip-rule="evenodd" d="M36.1452 12.5415H29.5288L27.1914 23.4947H33.881L34.3079 21.5076H29.9839L30.5716 18.783H34.3216L34.7485 16.8112H30.9986L31.4842 14.5294H35.7182L36.1452 12.5415Z" fill="black"/>
<path fill-rule="evenodd" clip-rule="evenodd" d="M20.5939 18.2125C20.3149 19.5072 19.535 21.0844 17.8296 21.4226C17.4782 21.4814 17.1534 21.4966 16.8744 21.4966H15.7568L17.2274 14.5757H18.2413C18.4921 14.5757 18.8306 14.5902 19.0951 14.6345C20.6533 14.8994 20.9766 16.4895 20.5939 18.2125ZM19.676 12.6145C19.2201 12.555 18.6179 12.5413 18.2497 12.5413H15.2658L12.9277 23.4944H16.8691C17.2213 23.4944 17.6619 23.4799 17.9722 23.4372C21.0582 23.0532 22.5584 20.8157 22.9991 18.5331C23.6173 15.3536 22.5005 13.0268 19.676 12.6145Z" fill="black"/>
<path fill-rule="evenodd" clip-rule="evenodd" d="M75.4612 12.5415H67.1699L66.7285 14.5721H69.6979L67.7874 23.4947H70.1537L72.0657 14.5721H75.0213L75.4612 12.5415Z" fill="black"/>
<path fill-rule="evenodd" clip-rule="evenodd" d="M55.531 18.0358C55.1483 19.8031 54.4286 21.6428 52.429 21.6428C50.5018 21.6428 50.238 19.8321 50.6352 18.0358C51.0164 16.2693 51.7376 14.4295 53.7364 14.4295C55.6636 14.4295 55.9289 16.2388 55.531 18.0358ZM53.9087 12.4233C50.1145 12.4233 48.6729 14.9998 48.0692 18.0182C47.4524 21.0359 48.7324 23.6124 52.1873 23.6124C55.9808 23.6124 57.4216 21.0359 58.0246 18.0182C58.6414 14.9998 57.3629 12.4233 53.9087 12.4233Z" fill="black"/>
<path fill-rule="evenodd" clip-rule="evenodd" d="M59.2296 15.7651C59.2296 17.0598 60.024 17.6942 60.7726 18.2682L62.0229 19.1958C62.2729 19.3874 62.5085 19.5492 62.6846 19.7553C62.8462 19.9317 62.9781 20.108 62.9781 20.3882C62.9781 20.7851 62.7875 21.0355 62.5222 21.2126C62.0229 21.5371 61.2445 21.5371 60.7726 21.5371C60.024 21.5371 58.8629 21.3165 58.42 21.1386L57.7148 23.1417C58.5671 23.4501 59.9348 23.583 60.9205 23.583C62.1113 23.583 62.9636 23.4219 63.6848 23.112C64.9777 22.5669 65.6249 21.5508 65.6249 20.3592C65.6249 19.653 65.3901 19.1813 65.0669 18.7545C64.8016 18.4156 64.3755 18.0468 63.8906 17.6789L62.7585 16.8254C62.1852 16.3987 61.7576 16.0742 61.7576 15.5735C61.7576 15.1032 62.0816 14.691 62.6846 14.6169C63.0528 14.5726 63.3905 14.5726 63.9493 14.5726H65.7423L66.1837 12.5413H64.1841C63.6108 12.5413 62.8607 12.5413 62.215 12.6145C60.6712 12.7909 59.2296 13.8955 59.2296 15.7651Z" fill="black"/>
<path fill-rule="evenodd" clip-rule="evenodd" d="M45.171 16.3987C45.0246 17.3109 44.4063 17.8713 43.6127 18.0629C43.4214 18.1056 43.0677 18.1354 42.8634 18.1354H41.9074L42.672 14.5581H43.7004C43.9939 14.5581 44.215 14.5872 44.3919 14.6459C44.9796 14.8375 45.3333 15.4124 45.171 16.3987ZM44.818 12.6145C44.539 12.5703 44.141 12.5413 43.7446 12.5413H40.7608L38.4082 23.4944H40.7608L41.4805 20.153H42.8481C43.5678 20.153 44.0389 20.079 44.4955 19.9462C46.1857 19.4309 47.2743 18.0178 47.5236 16.5155C47.8918 14.4696 46.8634 12.9527 44.818 12.6145Z" fill="black"/>
<path fill-rule="evenodd" clip-rule="evenodd" d="M86.5473 12.5325C86.5473 12.5325 87.9439 5.94826 87.9508 5.91162H79.0633C79.0595 5.93452 77.2162 14.5471 77.2086 14.583H79.4087C79.414 14.5593 80.8251 7.96286 80.8251 7.96286H85.3146C85.3146 7.96286 83.905 14.5471 83.8966 14.583H90.5626L89.6775 18.7236H83.0466C83.0413 18.7481 81.7224 24.9163 81.7224 24.9163H76.6985C76.694 24.94 76.2693 26.9607 76.2617 26.995H83.4865C83.491 26.9721 84.8175 20.7886 84.8175 20.7886H91.4233C91.4286 20.765 93.1843 12.5676 93.1919 12.5325H86.5473Z" fill="#FF0000"/>
</g>
<defs>
<clipPath id="clip0_1188_35">
<rect width="104" height="36" fill="white"/>
</clipPath>
</defs>
</svg>
