<svg width="35" height="52" viewBox="0 0 35 52" fill="none" xmlns="http://www.w3.org/2000/svg">
<path d="M25.0701 15.9259C25.0701 11.6805 21.6162 8.22656 17.3708 8.22656C13.1258 8.22656 9.67188 11.6805 9.67188 15.9259C9.67188 20.1709 13.1254 23.6248 17.3708 23.6248C21.6162 23.6248 25.0701 20.1709 25.0701 15.9259Z" fill="#CC950C"/>
<path d="M17.3708 42.8594C18.5638 41.3054 25.5581 31.6931 27.9127 28.4815C30.7132 24.6622 33.2967 20.8302 33.2967 15.9259C33.2967 7.1304 26.1663 0.000396729 17.3708 0.000396729L17.3688 0C8.57294 0 1.44531 7.13 1.44531 15.9255C1.44531 20.8298 4.02841 24.6622 6.82892 28.4815C9.1839 31.6931 17.3708 42.8594 17.3708 42.8594ZM6.625 15.9259C6.625 10.0003 11.4456 5.17969 17.3708 5.17969C23.2963 5.17969 28.117 10.0003 28.117 15.9259C28.117 21.851 23.2963 26.6717 17.3708 26.6717C11.4456 26.6717 6.625 21.851 6.625 15.9259Z" fill="#464646"/>
<path d="M23.2193 40.0364C22.9039 40.4672 17.3148 47.936 17.3148 47.936L11.523 40.0364H4.5108L0 52.0001H34.7415L30.2303 40.0364H23.2193Z" fill="#464646"/>
</svg>
