<svg width="26" height="26" viewBox="0 0 26 26" fill="none" xmlns="http://www.w3.org/2000/svg">
<path fill-rule="evenodd" clip-rule="evenodd" d="M14.1315 10.439H11.2959V12.1228H11.8674V18.1622H11.2959V19.846H14.7044V18.1622H14.1313L14.1315 10.439ZM26 13C26 5.82029 20.1797 0 13 0C5.82029 0 0 5.82029 0 13C0 20.1797 5.82029 26 13 26C20.1797 26 26 20.1797 26 13ZM13 1.47179C19.3681 1.47179 24.5282 6.63232 24.5282 13C24.5282 19.3677 19.3677 24.5282 13 24.5282C6.63232 24.5282 1.47179 19.3677 1.47179 13C1.47179 6.63232 6.63232 1.47179 13 1.47179ZM11.6864 7.46896C11.6864 8.19385 12.2746 8.7815 13 8.7815C13.7244 8.7815 14.3125 8.1939 14.3125 7.46896C14.3125 6.74352 13.7244 6.15536 13 6.15536C12.2746 6.15482 11.6864 6.74296 11.6864 7.46896Z" fill="black"/>
</svg>
