<svg width="21" height="31" viewBox="0 0 21 31" fill="none" xmlns="http://www.w3.org/2000/svg">
<path fill-rule="evenodd" clip-rule="evenodd" d="M11.4126 24.3283C10.8445 23.6846 10.4996 22.8388 10.4996 21.9127C10.4996 19.8957 12.1347 18.2605 14.1517 18.2605C16.1687 18.2605 17.8038 19.8957 17.8038 21.9127C17.8038 22.8389 17.4589 23.6846 16.8908 24.3283V29.6734C16.8908 30.0282 16.5037 30.2474 16.1994 30.0647L14.1516 28.8363L12.1039 30.0647C11.7996 30.2474 11.4125 30.0282 11.4125 29.6734L11.4126 24.3283ZM14.1517 24.6518C15.6645 24.6518 16.8908 23.4254 16.8908 21.9126C16.8908 20.3998 15.6645 19.1735 14.1517 19.1735C12.6389 19.1735 11.4126 20.3998 11.4126 21.9126C11.4126 23.4254 12.6389 24.6518 14.1517 24.6518ZM12.3256 25.0761V28.8672L13.9167 27.9124C14.0613 27.8256 14.2421 27.8256 14.3867 27.9124L15.9777 28.8672V25.0761C15.4407 25.387 14.8169 25.5648 14.1517 25.5648C13.4865 25.5648 12.8627 25.387 12.3255 25.0761H12.3256ZM0.912745 25.5648H9.13016C9.38216 25.5648 9.58665 25.769 9.58665 26.0212C9.58665 26.2735 9.38216 26.4777 9.13016 26.4777H0.456491C0.204497 26.4777 0 26.2735 0 26.0212V0.456491C0 0.204287 0.204497 0 0.456491 0H20.5435C20.7955 0 21 0.204287 21 0.456491V26.0212C21 26.2735 20.7955 26.4777 20.5435 26.4777H19.1738C18.9218 26.4777 18.7173 26.2735 18.7173 26.0212C18.7173 25.769 18.9218 25.5648 19.1738 25.5648H20.087V0.913046H0.913068L0.912745 25.5648ZM4.10841 5.47774C3.85641 5.47774 3.65192 5.27345 3.65192 5.02125C3.65192 4.76925 3.85641 4.56476 4.10841 4.56476H16.8911C17.143 4.56476 17.3475 4.76925 17.3475 5.02125C17.3475 5.27345 17.143 5.47774 16.8911 5.47774H4.10841ZM4.10841 10.0431C3.85641 10.0431 3.65192 9.83858 3.65192 9.58659C3.65192 9.33438 3.85641 9.12989 4.10841 9.12989H16.8911C17.143 9.12989 17.3475 9.33438 17.3475 9.58659C17.3475 9.83858 17.143 10.0431 16.8911 10.0431H4.10841ZM4.10841 14.6082C3.85641 14.6082 3.65192 14.4037 3.65192 14.1517C3.65192 13.8995 3.85641 13.6952 4.10841 13.6952H16.8911C17.143 13.6952 17.3475 13.8995 17.3475 14.1517C17.3475 14.4037 17.143 14.6082 16.8911 14.6082H4.10841ZM4.10841 19.1733C3.85641 19.1733 3.65192 18.969 3.65192 18.7168C3.65192 18.4646 3.85641 18.2603 4.10841 18.2603H7.76054C8.01274 18.2603 8.21703 18.4646 8.21703 18.7168C8.21703 18.969 8.01274 19.1733 7.76054 19.1733H4.10841Z" fill="black"/>
</svg>
