<svg width="28" height="28" viewBox="0 0 28 28" fill="none" xmlns="http://www.w3.org/2000/svg">
<path fill-rule="evenodd" clip-rule="evenodd" d="M14 27.9997C10.2869 27.9997 6.72598 26.5247 4.10052 23.8993C1.47505 21.2738 0 17.7128 0 13.9999C0 10.287 1.47505 6.72592 4.10052 4.10048C6.72598 1.47504 10.2871 0 14 0C17.7129 0 21.274 1.47504 23.8995 4.10048C26.5249 6.72592 28 10.287 28 13.9999C27.9957 17.7116 26.5194 21.27 23.8947 23.8948C21.2703 26.5194 17.7116 27.9958 13.9997 28L14 27.9997ZM14 0.799717C10.4991 0.799717 7.14191 2.19042 4.66624 4.66594C2.19069 7.14146 0.799982 10.4989 0.799982 13.9996C0.799982 17.5004 2.19069 20.8576 4.66624 23.3333C7.14178 25.8088 10.4992 27.1995 14 27.1995C17.5008 27.1995 20.8581 25.8088 23.3338 23.3333C25.8093 20.8578 27.2 17.5004 27.2 13.9996C27.196 10.5 25.804 7.1448 23.3295 4.67044C20.8547 2.19594 17.4995 0.80396 14.0003 0.799975L14 0.799717ZM13.9999 21.8823C13.878 21.8823 13.7629 21.8269 13.6877 21.732L13.619 21.6457L13.6147 21.6471L13.6114 21.6361L6.4383 12.6156C6.33291 12.4829 6.32442 12.2984 6.41682 12.1568L8.70914 8.65037C8.78232 8.53819 8.90769 8.47058 9.04229 8.47058H18.9577C19.0923 8.47058 19.2179 8.53819 19.2913 8.65037L21.5832 12.1568C21.6756 12.2984 21.6671 12.4829 21.5617 12.6156L14.4717 21.5317L14.4347 21.6471L14.3903 21.634L14.3124 21.732C14.2372 21.8269 14.1221 21.8823 14.0002 21.8823H13.9999ZM15.1562 19.3966L20.4762 12.7059H17.3013L15.1562 19.3966ZM16.4396 12.7059L14.0115 20.2786L11.7352 12.7059H16.4396ZM17.2239 12H20.5322L18.7408 9.25925H15.7962L17.2239 12ZM14.8751 9.25925L16.303 12H11.8633L13.202 9.25925H14.8751ZM7.52349 12.7059H10.9273L12.9959 19.5882L7.52349 12.7059ZM7.46753 12H11L12.3384 9.25925H9.25883L7.46753 12Z" fill="black"/>
</svg>
