<svg width="22" height="27" viewBox="0 0 22 27" fill="none" xmlns="http://www.w3.org/2000/svg">
<path d="M5.38571 27C5.26305 27 5.14597 26.9442 5.07907 26.8439L3.32843 24.5019H0.395844C0.262037 24.5019 0.139382 24.4294 0.0669032 24.3178C-0.00557526 24.2007 -0.0111505 24.0558 0.0557527 23.9331L2.83781 18.3569C1.00355 16.3327 0 13.7175 0 11.0019C0 4.93494 4.92854 0 10.9888 0C13.9214 0 16.6812 1.14312 18.7608 3.22305C20.8403 5.30297 21.9833 8.0632 21.9833 11.0019C21.9833 13.723 20.9853 16.3327 19.1678 18.3569L21.9554 23.9387C22.0167 24.0558 22.0112 24.2063 21.9442 24.3178C21.8773 24.4294 21.7491 24.5019 21.6153 24.5019H21.6097H18.6827L16.9321 26.8439C16.8596 26.9387 16.7425 27 16.6254 27C16.6143 27 16.6087 27 16.5976 27C16.4638 26.9888 16.3467 26.9164 16.2854 26.7993L13.5869 21.6914C12.7339 21.8978 11.8642 22.0037 10.9944 22.0037C10.1135 22.0037 9.24937 21.9033 8.41865 21.7026L5.7258 26.7937C5.66447 26.9108 5.54739 26.9888 5.41358 26.9944C5.40243 27 5.39128 27 5.38571 27ZM16.6645 25.8959L18.1754 23.8773C18.2478 23.7825 18.3594 23.7323 18.4764 23.7323H20.9797L18.5879 18.948C17.3837 20.1022 15.9118 20.9777 14.334 21.4851L16.6645 25.8959ZM3.82463 23.8773L5.33553 25.8959L7.66042 21.4851C6.08819 20.9833 4.61632 20.1078 3.40649 18.948L1.0147 23.7323H3.51799C3.64065 23.7323 3.75215 23.7825 3.82463 23.8773ZM10.9888 0.769517C8.25697 0.769517 5.69235 1.83457 3.7633 3.76394C1.83984 5.69888 0.780537 8.26394 0.780537 11.0019C0.780537 13.7398 1.83984 16.3048 3.76888 18.2398C5.69792 20.1691 8.26254 21.2342 10.9944 21.2342C16.6366 21.2342 21.225 16.645 21.225 11.0019C21.225 5.35874 16.631 0.769517 10.9888 0.769517ZM11 19.1933C6.48961 19.1933 2.81551 15.5186 2.81551 11.0019C2.81551 6.48513 6.48961 2.81041 11 2.81041C15.5104 2.81041 19.1845 6.48513 19.1845 11.0019C19.1845 15.5186 15.516 19.1933 11 19.1933ZM11 3.57993C6.91333 3.57993 3.5849 6.90892 3.5849 11.0019C3.5849 15.0948 6.91333 18.4238 11 18.4238C15.0867 18.4238 18.4151 15.0948 18.4151 11.0019C18.4151 6.90892 15.0922 3.57993 11 3.57993ZM8.4744 15.4461C8.27369 15.4461 8.11201 15.2955 8.08971 15.0948C8.06741 14.8829 8.22352 14.6933 8.43538 14.6766C8.44653 14.6766 8.45768 14.6766 8.46883 14.6766C8.47998 14.6766 8.49113 14.6766 8.50786 14.6766H13.4921C13.5981 14.6766 13.6929 14.7156 13.7653 14.7881C13.8378 14.8606 13.8824 14.961 13.8824 15.0613C13.8824 15.1617 13.8434 15.2621 13.7653 15.3346C13.6929 15.4071 13.5981 15.4461 13.4977 15.4461H8.50228C8.50228 15.4461 8.49113 15.4461 8.4744 15.4461ZM6.61784 12.6468C6.41156 12.6468 6.2443 12.4851 6.23315 12.2788C6.22757 12.1784 6.2666 12.0781 6.3335 12C6.40041 11.9219 6.49518 11.8773 6.60112 11.8717C6.60669 11.8717 6.61227 11.8717 6.61784 11.8717C6.62342 11.8717 6.62899 11.8717 6.63457 11.8717H15.3654C15.4714 11.8717 15.5661 11.9108 15.6386 11.9833C15.7111 12.0558 15.7557 12.1561 15.7557 12.2565C15.7557 12.3625 15.7167 12.4572 15.6386 12.5297C15.5661 12.6022 15.4714 12.6413 15.371 12.6413H6.62899C6.62899 12.6468 6.62342 12.6468 6.61784 12.6468Z" fill="black"/>
</svg>
