<svg width="20" height="26" viewBox="0 0 20 26" fill="none" xmlns="http://www.w3.org/2000/svg">
<path fill-rule="evenodd" clip-rule="evenodd" d="M0 1.18319C0 0.529566 0.537196 0 1.2005 0H18.7995C19.4617 0 20 0.53212 20 1.18319V24.8168C20 25.4704 19.4628 26 18.7995 26H1.2005C0.53828 26 0 25.4679 0 24.8168V1.18319ZM9.60023 11.4639V9.45479H4.40081C3.77781 9.45479 3.16755 8.99577 3.00325 8.40291L0.924712 0.896771C0.847921 0.968773 0.800042 1.07052 0.800042 1.18351V24.8171C0.800042 25.0339 0.980879 25.2125 1.20058 25.2125H18.7996C19.0209 25.2125 19.2001 25.0358 19.2001 24.8171V1.18351C19.2001 1.0716 19.152 0.97004 19.0753 0.897862L16.9969 8.40307C16.8326 8.99578 16.224 9.45496 15.5993 9.45496H10.3999V11.4641C11.3128 11.6465 12 12.4414 12 13.3943C12 14.4821 11.1045 15.3641 9.99992 15.3641C8.89536 15.3641 7.99983 14.4821 7.99983 13.3943C7.99983 12.4414 8.68708 11.6465 9.59991 11.4641L9.60023 11.4639ZM10.0002 14.5759C10.663 14.5759 11.2001 14.0468 11.2001 13.3941C11.2001 12.7414 10.6629 12.2124 10.0002 12.2124C9.33747 12.2124 8.80027 12.7414 8.80027 13.3941C8.80027 14.0468 9.33747 14.5759 10.0002 14.5759ZM10.0002 5.9095C10.663 5.9095 11.2001 5.3803 11.2001 4.72756C11.2001 4.075 10.6629 3.54581 10.0002 3.54581C9.33747 3.54581 8.80027 4.075 8.80027 4.72756C8.80027 5.3803 9.33747 5.9095 10.0002 5.9095ZM10.4002 6.65797V8.66709H15.5996C15.8629 8.66709 16.1559 8.44619 16.2253 8.19574L18.2766 0.788035H1.72373L3.77502 8.19574C3.84427 8.44584 4.13854 8.66709 4.40075 8.66709H9.60017V6.65797C8.68734 6.47552 8.00008 5.6806 8.00008 4.72756C8.00008 3.63973 8.89562 2.75796 10.0002 2.75796C11.1047 2.75796 12.0003 3.63973 12.0003 4.72756C12.0003 5.6806 11.313 6.47551 10.4002 6.65797Z" fill="black"/>
</svg>
