<svg width="21" height="13" viewBox="0 0 21 13" fill="none" xmlns="http://www.w3.org/2000/svg">
<path d="M14.62 1.21011C14.5165 1.12815 14.3977 1.0675 14.2707 1.03167C14.1436 0.995837 14.0107 0.985526 13.8796 1.00133C13.7485 1.01714 13.6218 1.05874 13.5069 1.12376C13.392 1.18877 13.2911 1.27589 13.21 1.38011L6.20999 10.3801L2.77999 6.20011C2.69954 6.09301 2.59839 6.00317 2.48255 5.93592C2.3667 5.86866 2.23853 5.82537 2.10563 5.8086C1.97273 5.79184 1.83782 5.80194 1.70891 5.83832C1.57999 5.8747 1.4597 5.9366 1.35516 6.02036C1.25063 6.10412 1.16399 6.20803 1.10039 6.32591C1.03679 6.4438 0.997516 6.57326 0.984908 6.70662C0.9723 6.83998 0.986613 6.9745 1.027 7.10222C1.06738 7.22994 1.13301 7.34824 1.21999 7.45011L5.38999 12.6301C5.48411 12.7461 5.60303 12.8396 5.73801 12.9036C5.87299 12.9676 6.0206 13.0006 6.16999 13.0001C6.32857 13.0072 6.48656 12.9764 6.63088 12.9103C6.77521 12.8443 6.90174 12.7448 6.99999 12.6201L14.83 2.62011C14.9098 2.51413 14.9678 2.39333 15.0004 2.26474C15.0331 2.13616 15.0399 2.00235 15.0203 1.87112C15.0008 1.73989 14.9553 1.61386 14.8866 1.50038C14.8179 1.38689 14.7272 1.28822 14.62 1.21011ZM19.62 1.21011C19.5165 1.12815 19.3977 1.0675 19.2707 1.03167C19.1436 0.995837 19.0107 0.985526 18.8796 1.00133C18.7485 1.01714 18.6218 1.05874 18.5069 1.12376C18.392 1.18877 18.2911 1.27589 18.21 1.38011L11.21 10.3801L10.6 9.63011L9.33999 11.2501L10.44 12.6201C10.5341 12.7361 10.653 12.8296 10.788 12.8936C10.923 12.9576 11.0706 12.9906 11.22 12.9901C11.3702 12.9894 11.5183 12.9549 11.6534 12.8891C11.7884 12.8233 11.9069 12.728 12 12.6101L19.83 2.61011C19.9083 2.50444 19.9649 2.38438 19.9967 2.25679C20.0285 2.1292 20.0349 1.99659 20.0154 1.86655C19.9959 1.73651 19.9509 1.6116 19.8831 1.49896C19.8152 1.38631 19.7258 1.28816 19.62 1.21011Z" fill="#CC950C"/>
</svg>
