<svg width="50" height="54" viewBox="0 0 50 54" fill="none" xmlns="http://www.w3.org/2000/svg">
<path d="M27.5976 54H4.34605C1.94579 54 0 52.0542 0 49.6539V4.34605C0 1.94579 1.94579 0 4.34605 0H27.5976C29.9978 0 31.9436 1.94579 31.9436 4.34605V49.6539C31.9436 52.0542 29.9978 54 27.5976 54Z" fill="#464646"/>
<path d="M27.5974 0H24.3379C26.7381 0 28.6839 1.94579 28.6839 4.34605V49.6539C28.6839 52.0542 26.7381 54 24.3379 54H27.5974C29.9977 54 31.9435 52.0542 31.9435 49.6539V4.34605C31.9435 1.94579 29.9977 0 27.5974 0V0Z" fill="#464646"/>
<path d="M29.1201 4.34637V49.6543C29.1201 50.4943 28.439 51.1754 27.5989 51.1754H4.34735C3.50729 51.1754 2.82617 50.4944 2.82617 49.6543V4.34637C2.82617 3.50631 3.50718 2.8252 4.34735 2.8252H8.70468C8.95802 2.8252 9.1833 2.98593 9.26578 3.22545L9.83995 4.89354C9.92242 5.13306 10.1477 5.2938 10.401 5.2938H21.5453C21.7986 5.2938 22.0239 5.13306 22.1064 4.89354L22.6806 3.22545C22.763 2.98593 22.9883 2.8252 23.2417 2.8252H27.599C28.4389 2.8253 29.1201 3.50631 29.1201 4.34637Z" fill="white"/>
<path d="M20.2097 44.1669H11.7348C10.4747 44.1669 9.45312 43.1454 9.45312 41.8852C9.45312 40.6251 10.4747 39.6035 11.7348 39.6035H20.2097C21.4698 39.6035 22.4914 40.6251 22.4914 41.8852C22.4914 43.1454 21.4698 44.1669 20.2097 44.1669Z" fill="#CC950C"/>
<path d="M46.9762 34.7142H9.51961C8.34163 34.7142 7.38672 33.7593 7.38672 32.5813V10.7706C7.38672 9.59261 8.34163 8.6377 9.51961 8.6377H46.9761C48.1541 8.6377 49.109 9.59261 49.109 10.7706V32.5813C49.1091 33.7593 48.1542 34.7142 46.9762 34.7142Z" fill="#A3A3A3"/>
<path d="M46.9783 8.6377H43.7188C44.8967 8.6377 45.8516 9.59261 45.8516 10.7706V32.5813C45.8516 33.7593 44.8967 34.7142 43.7188 34.7142H46.9783C48.1562 34.7142 49.1112 33.7593 49.1112 32.5813V10.7706C49.1112 9.59271 48.1562 8.6377 46.9783 8.6377Z" fill="#A3A3A3"/>
<path d="M38.1137 24.5169C38.111 24.5098 38.1082 24.5027 38.1053 24.4956C37.9608 24.1441 37.6221 23.917 37.242 23.917H37.2415C36.8613 23.9171 36.5223 24.1446 36.3781 24.4964C36.3756 24.5026 36.3731 24.5087 36.3708 24.515L34.011 30.7109C33.8555 31.119 34.0605 31.576 34.4688 31.7316C34.5614 31.7669 34.6565 31.7836 34.7501 31.7836C35.0688 31.7836 35.3692 31.5895 35.4895 31.2739L35.8831 30.2403H38.5826L38.9719 31.2716C39.126 31.6803 39.5825 31.8867 39.9912 31.7323C40.3999 31.5781 40.6062 31.1218 40.4519 30.713L38.1137 24.5169ZM36.4857 28.6582L37.2392 26.6801L37.9857 28.6582H36.4857Z" fill="#F2F2F2"/>
<path d="M45.1389 24.0612C44.7729 23.8227 44.2827 23.9265 44.0445 24.2925L42.7155 26.334L41.3714 24.2756C41.1325 23.9097 40.6423 23.807 40.2766 24.0458C39.9108 24.2847 39.8079 24.7747 40.0467 25.1405L41.9249 28.0168L41.9175 30.9905C41.9164 31.4274 42.2698 31.7824 42.7065 31.7835H42.7085C43.1445 31.7835 43.4985 31.4306 43.4995 30.9945L43.5069 28.018L45.3702 25.1556C45.6086 24.7894 45.505 24.2994 45.1389 24.0612Z" fill="#F2F2F2"/>
<path d="M31.9451 23.9175H30.1953C29.9851 23.9175 29.7836 24.0012 29.6351 24.15C29.4867 24.299 29.4036 24.5008 29.4043 24.711V30.9929C29.4043 31.4298 29.7584 31.7839 30.1953 31.7839C30.6323 31.7839 30.9863 31.4298 30.9863 30.9929V29.0499C31.3369 29.0481 31.7221 29.0464 31.9451 29.0464C33.3784 29.0464 34.5444 27.896 34.5444 26.482C34.5444 25.0679 33.3784 23.9175 31.9451 23.9175ZM31.9451 27.4643C31.7236 27.4643 31.3432 27.466 30.9942 27.4677C30.9923 27.1065 30.9908 26.7096 30.9908 26.4817C30.9908 26.2886 30.9897 25.8775 30.9887 25.4994H31.945C32.4964 25.4994 32.9623 25.9493 32.9623 26.4817C32.9624 27.0145 32.4965 27.4643 31.9451 27.4643Z" fill="#F2F2F2"/>
<path d="M19.6656 18.5253H12.9292C12.5692 18.5253 12.2773 18.2335 12.2773 17.8734V13.5274C12.2773 13.1673 12.5692 12.8755 12.9292 12.8755H19.6656C20.0257 12.8755 20.3175 13.1673 20.3175 13.5274V17.8734C20.3175 18.2335 20.0257 18.5253 19.6656 18.5253Z" fill="#CC950C"/>
<path d="M16.9481 30.6752H7.38672V25.0254H16.9481C18.5083 25.0254 19.7731 26.2902 19.7731 27.8504C19.7731 29.4105 18.5083 30.6752 16.9481 30.6752Z" fill="#A3A3A3"/>
<path d="M27.3164 14.0474C26.8794 14.0474 26.5254 14.4014 26.5254 14.8384V16.1422C26.5254 16.5791 26.8794 16.9332 27.3164 16.9332C27.7534 16.9332 28.1074 16.5791 28.1074 16.1422V14.8384C28.1074 14.4015 27.7533 14.0474 27.3164 14.0474Z" fill="#F2F2F2"/>
<path d="M40.7559 14.0474C40.3189 14.0474 39.9648 14.4014 39.9648 14.8384V16.1422C39.9648 16.5791 40.3189 16.9332 40.7559 16.9332C41.1928 16.9332 41.5469 16.5791 41.5469 16.1422V14.8384C41.5469 14.4015 41.1928 14.0474 40.7559 14.0474Z" fill="#F2F2F2"/>
<path d="M43.6621 14.0474C43.2252 14.0474 42.8711 14.4014 42.8711 14.8384V16.1422C42.8711 16.5791 43.2252 16.9332 43.6621 16.9332C44.0991 16.9332 44.4531 16.5791 44.4531 16.1422V14.8384C44.4531 14.4015 44.0991 14.0474 43.6621 14.0474Z" fill="#F2F2F2"/>
<path d="M31.5352 14.0474C31.0982 14.0474 30.7441 14.4014 30.7441 14.8384V16.1422C30.7441 16.5791 31.0982 16.9332 31.5352 16.9332C31.9721 16.9332 32.3262 16.5791 32.3262 16.1422V14.8384C32.3262 14.4015 31.9721 14.0474 31.5352 14.0474Z" fill="#F2F2F2"/>
<path d="M34.6113 14.0474C34.1744 14.0474 33.8203 14.4014 33.8203 14.8384V16.1422C33.8203 16.5791 34.1744 16.9332 34.6113 16.9332C35.0483 16.9332 35.4023 16.5791 35.4023 16.1422V14.8384C35.4023 14.4015 35.0482 14.0474 34.6113 14.0474Z" fill="#F2F2F2"/>
</svg>
