<svg width="54" height="54" viewBox="0 0 54 54" fill="none" xmlns="http://www.w3.org/2000/svg">
<rect width="54" height="54" fill="black"/>
<path d="M46.7089 37.1171C46.7089 37.6898 46.3027 38.3818 45.8009 38.6681L28.2624 48.7853C27.7606 49.0716 26.9482 49.0716 26.4464 48.7853L8.90799 38.6681C8.4062 38.3818 8 37.6898 8 37.1171V16.8829C8 16.3102 8.4062 15.6182 8.90799 15.3319L26.4464 5.21475C26.9482 4.92842 27.7606 4.92842 28.2624 5.21475L45.8009 15.3319C46.3027 15.6182 46.7089 16.3102 46.7089 16.8829V37.1171Z" fill="white"/>
<path d="M36.3461 27.1578L31.8019 33.9565L29.4824 30.3273L32.1569 26.2384C32.6539 25.5126 33.719 23.5045 32.4882 20.7705C31.4942 18.5445 29.3404 17.48 27.447 17.48C25.5535 17.48 23.4944 18.472 22.382 20.7705C21.1276 23.4077 22.2163 25.4642 22.6897 26.1659C22.6897 26.1659 24.1808 28.3918 25.4115 30.279L27.4233 33.2549L30.4528 37.9971C30.4765 38.0212 30.9498 38.7713 31.8019 38.7713C32.6066 38.7713 33.1036 38.0212 33.1746 37.9487L40.275 27.2062H36.3461V27.1578ZM27.4233 27.3272C27.4233 27.3272 26.2399 25.4884 25.4589 24.2061C24.6305 22.827 25.5535 20.7705 27.4233 20.7705C29.2931 20.7705 30.2161 22.827 29.3877 24.2061C28.6304 25.4884 27.4233 27.3272 27.4233 27.3272Z" fill="url(#paint0_radial_1857_2)"/>
<path d="M23.0701 33.7388L18.6206 27.3514C18.6206 27.3514 17.4372 25.5126 16.6561 24.2303C15.8277 22.8512 16.7508 20.7946 18.6206 20.7946C18.8572 20.7946 19.0703 20.8188 19.2833 20.8914L20.8454 17.9639C20.1353 17.6493 19.3543 17.48 18.6442 17.48C16.7508 17.48 14.6917 18.472 13.5793 20.7705C12.3249 23.4077 13.4136 25.4642 13.887 26.1659L21.6737 37.9487C21.7447 38.0454 22.2418 38.7955 23.0701 38.7955C23.8985 38.7955 24.3719 38.0696 24.4429 37.9729L26.786 34.3195L24.7742 31.2951L23.0701 33.7388Z" fill="url(#paint1_radial_1857_2)"/>
<defs>
<radialGradient id="paint0_radial_1857_2" cx="0" cy="0" r="1" gradientUnits="userSpaceOnUse" gradientTransform="translate(25.9467 19.0762) scale(20.9311 20.9311)">
<stop stop-color="#FFCC00"/>
<stop offset="0.09157" stop-color="#FFC800"/>
<stop offset="0.1739" stop-color="#FFBD00"/>
<stop offset="0.2528" stop-color="#FFAB00"/>
<stop offset="0.3295" stop-color="#FF9100"/>
<stop offset="0.4046" stop-color="#FF7000"/>
<stop offset="0.4786" stop-color="#FF4700"/>
<stop offset="0.5503" stop-color="#FF1800"/>
<stop offset="0.5822" stop-color="#FF0000"/>
<stop offset="1" stop-color="#FF0000"/>
</radialGradient>
<radialGradient id="paint1_radial_1857_2" cx="0" cy="0" r="1" gradientUnits="userSpaceOnUse" gradientTransform="translate(13.3313 19.4335) scale(19.1921 19.192)">
<stop stop-color="#00B4E6"/>
<stop offset="0.201" stop-color="#00B0E3"/>
<stop offset="0.3898" stop-color="#01A5DB"/>
<stop offset="0.5737" stop-color="#0292CD"/>
<stop offset="0.7546" stop-color="#0377BA"/>
<stop offset="0.9316" stop-color="#0455A1"/>
<stop offset="1" stop-color="#054696"/>
</radialGradient>
</defs>
</svg>
