<svg width="25" height="27" viewBox="0 0 25 27" fill="none" xmlns="http://www.w3.org/2000/svg">
<path d="M24.4913 25.1629L2.07117 25.342L6.95562 22.4479C7.0232 22.4073 7.08026 22.3517 7.12257 22.2852L14.8564 10.2731L15.8496 8.73047L17.5875 6.03169H17.5878C17.928 5.50699 18.0452 4.86842 17.9129 4.25713C17.7809 3.64582 17.4103 3.11261 16.8837 2.77527L14.5716 1.28549C14.0469 0.945057 13.408 0.828076 12.7967 0.960387C12.1857 1.09241 11.6522 1.46295 11.3152 1.98963L0.86214 18.259C0.81955 18.3255 0.793145 18.4007 0.784911 18.4788L0.00724011 25.6145C-0.00241337 25.671 -0.00241337 25.7287 0.00724011 25.7855C0.00496866 25.8124 0.00496866 25.8397 0.00724011 25.8667C0.00951155 26.1461 0.236653 26.3715 0.516045 26.3715L24.4909 26.1801H24.4912C24.772 26.1801 25 25.9524 25 25.6713C25 25.3905 24.772 25.1625 24.4912 25.1625L24.4913 25.1629ZM5.8196 21.9351L1.13046 24.7151L1.72075 19.2931L5.8196 21.9351ZM6.48315 21.3855L1.92012 18.4669L9.17371 7.22455L13.7245 10.1513L6.48315 21.3855ZM10.1669 5.6772L14.7095 8.60399L14.27 9.29593L9.72337 6.36943L10.1669 5.6772ZM12.1817 2.55111V2.55139C12.3708 2.2544 12.6698 2.04485 13.0133 1.96848C13.3568 1.89211 13.7166 1.95542 14.0136 2.14424L16.3257 3.63402C16.6215 3.82368 16.8305 4.12267 16.9066 4.46591C16.983 4.80919 16.9205 5.16864 16.7326 5.46564L15.2712 7.7368L10.7164 4.8268L12.1817 2.55111Z" fill="white"/>
<path d="M12.5367 9.98849C12.3487 9.86668 12.0977 9.91921 11.9748 10.1063L7.85978 16.4317C7.73712 16.6208 7.79078 16.8732 7.97987 16.9956C8.16869 17.1182 8.4211 17.0643 8.54348 16.8755L12.6545 10.5501C12.7766 10.3621 12.7238 10.1111 12.5367 9.98849H12.5367Z" fill="white"/>
</svg>
