<svg width="17" height="16" viewBox="0 0 17 16" fill="none" xmlns="http://www.w3.org/2000/svg">
<path d="M8.66797 3.17287e-05C10.7898 3.17287e-05 12.8245 0.842922 14.3248 2.34318C15.8251 3.84344 16.668 5.87842 16.668 8.00002C16.668 10.1216 15.8251 12.1565 14.3248 13.6569C12.8246 15.1571 10.7896 16 8.66797 16C6.54637 16 4.51145 15.1571 3.01112 13.6569C1.51086 12.1566 0.667969 10.1216 0.667969 8.00002C0.667969 6.59576 1.03765 5.21617 1.73978 4.00001C2.44191 2.78385 3.45185 1.77394 4.66799 1.07181C5.88415 0.369683 7.26374 0 8.668 0L8.66797 3.17287e-05ZM8.22352 5.29528C7.2926 5.28028 6.36377 5.20265 5.44326 5.06301C5.25142 5.88632 5.14303 6.72683 5.11961 7.57194H8.22352V5.29528ZM8.22352 4.39871V0.953304C7.53219 1.14862 6.85063 1.78788 6.30225 2.77486C6.05299 3.22912 5.84675 3.70579 5.68631 4.19836C6.52707 4.3179 7.37444 4.38474 8.22352 4.39875V4.39871ZM9.11242 0.953304V4.39871C9.9615 4.38469 10.8089 4.31785 11.6496 4.19831C11.4892 3.70574 11.2829 3.22907 11.0337 2.77482C10.4853 1.78783 9.80366 1.14856 9.11242 0.953256V0.953304ZM9.11242 5.29522V7.57189H12.2163C12.1929 6.72678 12.0845 5.88623 11.8927 5.06296C10.9722 5.20259 10.0433 5.28023 9.11242 5.29523V5.29522ZM13.1061 7.57189H15.7652C15.6956 6.39665 15.3334 5.25766 14.7115 4.25823C14.0914 4.54965 13.4383 4.76544 12.7666 4.90084C12.9683 5.77769 13.082 6.67243 13.1061 7.57198V7.57189ZM13.1047 8.46078C13.079 9.34916 12.9657 10.233 12.7666 11.0992C13.4383 11.2346 14.0913 11.4503 14.7115 11.7418C15.3275 10.7517 15.6886 9.62446 15.7627 8.46081L13.1047 8.46078ZM12.2152 8.46078H9.11251V10.7047C10.0434 10.7197 10.9723 10.7974 11.8928 10.937C12.0821 10.1244 12.19 9.29486 12.2151 8.46079L12.2152 8.46078ZM9.11251 11.6013V15.0467C9.80372 14.8514 10.4854 14.2121 11.0338 13.2251C11.283 12.7709 11.4893 12.2942 11.6497 11.8016C10.809 11.6821 9.96159 11.6153 9.11251 11.6012V11.6013ZM8.22362 15.0467V11.6013C7.37454 11.6153 6.52717 11.6821 5.6864 11.8017C5.84687 12.2943 6.0531 12.7709 6.30234 13.2252C6.85069 14.2122 7.53225 14.8514 8.22362 15.0467V15.0467ZM8.22362 10.7048V8.46084H5.12107C5.14612 9.29491 5.254 10.1244 5.44335 10.937C6.36387 10.7974 7.2927 10.7198 8.22362 10.7048V10.7048ZM4.23154 8.46084H1.57353C1.64769 9.62453 2.0088 10.7518 2.62474 11.7418C3.2449 11.4504 3.89792 11.2346 4.5697 11.0992C4.37054 10.233 4.2572 9.34919 4.23154 8.46081V8.46084ZM4.23018 7.57195C4.25423 6.6724 4.36795 5.77766 4.5697 4.9008C3.89795 4.76539 3.24493 4.54963 2.62474 4.2582C2.00283 5.25769 1.64061 6.39671 1.57105 7.57186L4.23018 7.57195ZM3.14697 3.52496C3.67944 3.75747 4.23589 3.93109 4.80621 4.04258C5.09788 3.05324 5.57815 2.12975 6.22079 1.32296C5.01691 1.7674 3.95503 2.52807 3.147 3.52496H3.14697ZM11.1156 1.32296C11.7582 2.12975 12.2385 3.05324 12.5301 4.04258C13.1005 3.9311 13.6569 3.75748 14.1894 3.52496C13.3814 2.52807 12.3195 1.7674 11.1156 1.32296H11.1156ZM14.1894 12.475C13.6569 12.2425 13.1004 12.0689 12.5301 11.9574C12.2384 12.9468 11.7582 13.8703 11.1155 14.677C12.3194 14.2326 13.3813 13.4719 14.1893 12.475H14.1894ZM6.22075 14.677C5.57815 13.8703 5.09786 12.9468 4.80618 11.9574C4.23586 12.0689 3.67944 12.2425 3.14693 12.475C3.95497 13.4719 5.01685 14.2326 6.22072 14.677H6.22075Z" fill="black"/>
</svg>
