<svg width="36" height="42" viewBox="0 0 36 42" fill="none" xmlns="http://www.w3.org/2000/svg">
<path d="M35.2832 27.0002L26.6348 12.0195L9.3368 12.0195L0.687381 27.0002L9.33654 41.9808L26.6345 41.9808L35.2832 27.0002ZM26.2993 40.0791L19.3737 27.0002L26.2993 13.9204L33.8504 26.9993L26.2993 40.0791ZM25.2455 13.2602L18.2982 26.3798L2.47744 26.3798L10.0521 13.2602L25.2455 13.2602ZM2.47726 27.6205L18.298 27.6205L25.2453 40.7402L10.052 40.7402L2.47726 27.6205Z" fill="white"/>
<path d="M26.627 26.3799L26.627 27.6205L25.6345 27.6205L25.6345 26.3799L26.627 26.3799Z" fill="white"/>
<path d="M32.582 26.3799L32.582 27.6205L31.5896 27.6205L31.5896 26.3799L32.582 26.3799Z" fill="white"/>
<path d="M24.6426 26.3799L24.6426 27.6205L23.6502 27.6205L23.6502 26.3799L24.6426 26.3799Z" fill="white"/>
<path d="M30.5977 26.3799L30.5977 27.6205L29.6052 27.6205L29.6052 26.3799L30.5977 26.3799Z" fill="white"/>
<path d="M22.6582 26.3799L22.6582 27.6205L21.6658 27.6205L21.6658 26.3799L22.6582 26.3799Z" fill="white"/>
<path d="M28.6113 26.3799L28.6113 27.6205L27.6189 27.6205L27.6189 26.3799L28.6113 26.3799Z" fill="white"/>
<path d="M15.4801 30.9322L16.0066 30.0903L17.0586 30.748L16.5321 31.5899L15.4801 30.9322Z" fill="white"/>
<path d="M16.5329 29.2496L17.0594 28.4077L18.1113 29.0654L17.5848 29.9073L16.5329 29.2496Z" fill="white"/>
<path d="M13.3796 34.2984L13.9054 33.4573L14.957 34.1146L14.4312 34.9558L13.3796 34.2984Z" fill="white"/>
<path d="M14.4274 32.6148L14.9539 31.7729L16.0059 32.4307L15.4794 33.2725L14.4274 32.6148Z" fill="white"/>
<path d="M10.2184 39.348L10.7449 38.5061L11.7969 39.1638L11.2704 40.0057L10.2184 39.348Z" fill="white"/>
<path d="M12.3269 35.9815L12.8527 35.1404L13.9043 35.7977L13.3785 36.6389L12.3269 35.9815Z" fill="white"/>
<path d="M11.2711 37.6651L11.7976 36.8232L12.8496 37.4809L12.3231 38.3228L11.2711 37.6651Z" fill="white"/>
<path d="M15.4821 23.1046L16.5337 22.4465L17.0605 23.2884L16.0089 23.9464L15.4821 23.1046Z" fill="white"/>
<path d="M17.5848 24.1279L18.1113 24.9698L17.0594 25.6275L16.5329 24.7856L17.5848 24.1279Z" fill="white"/>
<path d="M13.3777 19.7371L14.4293 19.0801L14.9551 19.9212L13.9035 20.5783L13.3777 19.7371Z" fill="white"/>
<path d="M14.4293 21.4217L15.481 20.7637L16.0078 21.6055L14.9562 22.2636L14.4293 21.4217Z" fill="white"/>
<path d="M10.2204 14.6886L11.272 14.0305L11.7988 14.8724L10.7472 15.5304L10.2204 14.6886Z" fill="white"/>
<path d="M12.3249 18.0542L13.3765 17.3972L13.9023 18.2384L12.8507 18.8954L12.3249 18.0542Z" fill="white"/>
<path d="M11.2731 16.3719L12.3247 15.7139L12.8516 16.5557L11.7999 17.2138L11.2731 16.3719Z" fill="white"/>
<path d="M35.1895 7.41064L35.1895 22.7945L33.9488 22.7945L33.9488 7.41064L35.1895 7.41064Z" fill="white"/>
<path d="M1.9375 7.41064L1.9375 22.7945L0.696867 22.7945L0.696868 7.41064L1.9375 7.41064Z" fill="white"/>
<path d="M18.0527 0.0908203L18.0527 10.0779L16.8121 10.0779L16.8121 0.0908203L18.0527 0.0908203Z" fill="white"/>
<path d="M20.5312 2.38599L20.5312 11.0704L19.2906 11.0704L19.2906 2.38599L20.5312 2.38599Z" fill="white"/>
<path d="M15.5703 2.38599L15.5703 11.0704L14.3297 11.0704L14.3297 2.38599L15.5703 2.38599Z" fill="white"/>
</svg>
