<svg width="26" height="26" viewBox="0 0 26 26" fill="none" xmlns="http://www.w3.org/2000/svg">
<g clip-path="url(#clip0_1066_2195)">
<path d="M25.1261 26C24.9076 26 24.6891 25.8908 24.5798 25.7815L19.4454 20.6471H19.2269C17.1513 22.395 14.4202 23.3782 11.6891 23.3782C5.2437 23.4874 0 18.1345 0 11.6891C0 5.2437 5.2437 0 11.6891 0C18.1345 0 23.3782 5.2437 23.3782 11.6891C23.3782 14.4202 22.395 17.1513 20.6471 19.2269V19.4454L25.7815 24.5798C25.8908 24.6891 26 24.9076 26 25.1261C26 25.3445 25.8908 25.563 25.7815 25.6723C25.563 25.8908 25.3445 26 25.1261 26ZM11.6891 1.63866C6.11765 1.63866 1.63866 6.11765 1.63866 11.6891C1.63866 17.2605 6.11765 21.7395 11.6891 21.7395C17.2605 21.7395 21.7395 17.2605 21.7395 11.6891C21.7395 6.11765 17.2605 1.63866 11.6891 1.63866Z" fill="black"/>
</g>
<defs>
<clipPath id="clip0_1066_2195">
<rect width="26" height="26" fill="white"/>
</clipPath>
</defs>
</svg>
