<svg width="10" height="6" viewBox="0 0 10 6" fill="none" xmlns="http://www.w3.org/2000/svg">
<path d="M9.94285 0.214385C9.90041 0.149768 9.83672 0.0956479 9.75864 0.0578663C9.68056 0.0200847 9.59107 7.61105e-05 9.49981 0H0.498977C0.40789 0.000300943 0.318629 0.0204572 0.240793 0.0583012C0.162957 0.0961451 0.0994914 0.150245 0.0572204 0.214782C0.0149495 0.27932 -0.004527 0.351854 0.000885481 0.424583C0.00629796 0.497313 0.0363946 0.567486 0.0879389 0.627557L4.58836 5.8272C4.63423 5.88049 4.69561 5.92407 4.76722 5.95417C4.83882 5.98427 4.9185 6 4.99939 6C5.08029 6 5.15997 5.98427 5.23157 5.95417C5.30318 5.92407 5.36456 5.88049 5.41043 5.8272L9.91085 0.627557C9.9629 0.567609 9.9934 0.497395 9.99905 0.424549C10.0047 0.351703 9.98525 0.279013 9.94285 0.214385Z" fill="#464646"/>
</svg>
