<svg width="8" height="8" viewBox="0 0 8 8" fill="none" xmlns="http://www.w3.org/2000/svg">
<path d="M7.29592 1.84529C7.26763 1.79144 7.22517 1.74634 7.17313 1.71485C7.12108 1.68336 7.06142 1.66669 7.00059 1.66663H1.00059C0.93987 1.66688 0.880369 1.68367 0.828483 1.71521C0.776597 1.74675 0.73429 1.79184 0.706112 1.84562C0.677934 1.89941 0.664951 1.95986 0.668559 2.02047C0.672167 2.08108 0.69223 2.13956 0.726589 2.18963L3.72659 6.52296C3.75717 6.56737 3.79809 6.60369 3.84582 6.62877C3.89355 6.65386 3.94667 6.66697 4.00059 6.66697C4.05451 6.66697 4.10763 6.65386 4.15536 6.62877C4.20309 6.60369 4.24401 6.56737 4.27459 6.52296L7.27459 2.18963C7.30929 2.13967 7.32962 2.08115 7.33338 2.02044C7.33714 1.95973 7.32419 1.89915 7.29592 1.84529ZM4.00059 5.74763L1.63659 2.33329H6.36459L4.00059 5.74763Z" fill="#464646"/>
</svg>
