<svg width="36" height="42" viewBox="0 0 36 42" fill="none" xmlns="http://www.w3.org/2000/svg">
<path d="M35.2842 27.0002L26.6357 12.0195L9.33778 12.0195L0.688358 27.0002L9.33751 41.9808L26.6355 41.9808L35.2842 27.0002ZM26.3002 40.0791L19.3747 27.0002L26.3002 13.9204L33.8513 26.9993L26.3002 40.0791ZM25.2465 13.2602L18.2991 26.3798L2.47841 26.3798L10.0531 13.2602L25.2465 13.2602ZM2.47824 27.6205L18.299 27.6205L25.2463 40.7402L10.053 40.7402L2.47824 27.6205Z" fill="white"/>
<path d="M26.6279 26.3799L26.6279 27.6205L25.6355 27.6205L25.6355 26.3799L26.6279 26.3799Z" fill="white"/>
<path d="M32.582 26.3799L32.582 27.6205L31.5896 27.6205L31.5896 26.3799L32.582 26.3799Z" fill="white"/>
<path d="M24.6426 26.3799L24.6426 27.6205L23.6502 27.6205L23.6502 26.3799L24.6426 26.3799Z" fill="white"/>
<path d="M30.5986 26.3799L30.5986 27.6205L29.6062 27.6205L29.6062 26.3799L30.5986 26.3799Z" fill="white"/>
<path d="M22.6592 26.3799L22.6592 27.6205L21.6668 27.6205L21.6668 26.3799L22.6592 26.3799Z" fill="white"/>
<path d="M28.6113 26.3799L28.6113 27.6205L27.6189 27.6205L27.6189 26.3799L28.6113 26.3799Z" fill="white"/>
<path d="M15.4801 30.9322L16.0066 30.0903L17.0586 30.748L16.5321 31.5899L15.4801 30.9322Z" fill="white"/>
<path d="M16.5338 29.2496L17.0603 28.4077L18.1123 29.0654L17.5858 29.9073L16.5338 29.2496Z" fill="white"/>
<path d="M13.3796 34.2987L13.9054 33.4575L14.957 34.1149L14.4312 34.956L13.3796 34.2987Z" fill="white"/>
<path d="M14.4284 32.6148L14.9549 31.7729L16.0068 32.4307L15.4803 33.2725L14.4284 32.6148Z" fill="white"/>
<path d="M10.2194 39.3477L10.7459 38.5059L11.7979 39.1636L11.2713 40.0054L10.2194 39.3477Z" fill="white"/>
<path d="M12.3269 35.9813L12.8527 35.1401L13.9043 35.7975L13.3785 36.6387L12.3269 35.9813Z" fill="white"/>
<path d="M11.2731 37.6651L11.7996 36.8232L12.8516 37.4809L12.3251 38.3228L11.2731 37.6651Z" fill="white"/>
<path d="M15.484 23.1043L16.5356 22.4463L17.0625 23.2881L16.0109 23.9462L15.484 23.1043Z" fill="white"/>
<path d="M17.5858 24.1279L18.1123 24.9698L17.0603 25.6275L16.5338 24.7856L17.5858 24.1279Z" fill="white"/>
<path d="M13.3786 19.7371L14.4302 19.0801L14.9561 19.9212L13.9044 20.5783L13.3786 19.7371Z" fill="white"/>
<path d="M14.4303 21.4217L15.4819 20.7637L16.0088 21.6055L14.9572 22.2636L14.4303 21.4217Z" fill="white"/>
<path d="M10.2213 14.6883L11.273 14.0303L11.7998 14.8721L10.7482 15.5302L10.2213 14.6883Z" fill="white"/>
<path d="M12.3249 18.054L13.3765 17.397L13.9023 18.2381L12.8507 18.8952L12.3249 18.054Z" fill="white"/>
<path d="M11.2741 16.3719L12.3257 15.7139L12.8525 16.5557L11.8009 17.2138L11.2741 16.3719Z" fill="white"/>
<path d="M35.1904 7.41064L35.1904 22.7945L33.9498 22.7945L33.9498 7.41064L35.1904 7.41064Z" fill="white"/>
<path d="M1.93945 7.41064L1.93945 22.7945L0.698821 22.7945L0.698821 7.41064L1.93945 7.41064Z" fill="white"/>
<path d="M18.0527 0.0908203L18.0527 10.0779L16.8121 10.0779L16.8121 0.0908203L18.0527 0.0908203Z" fill="white"/>
<path d="M20.5332 2.38623L20.5332 11.0707L19.2926 11.0707L19.2926 2.38623L20.5332 2.38623Z" fill="white"/>
<path d="M15.5713 2.38623L15.5713 11.0707L14.3307 11.0707L14.3307 2.38623L15.5713 2.38623Z" fill="white"/>
</svg>
