<svg width="40" height="40" viewBox="0 0 40 40" fill="none" xmlns="http://www.w3.org/2000/svg">
<path d="M9.05984 21.4713C9.35613 21.2663 9.50678 20.9078 9.44568 20.5526L8.96972 17.6724L10.9824 15.638C11.2293 15.3889 11.3155 15.0223 11.2058 14.6892C11.0959 14.3558 10.8088 14.1125 10.4621 14.0587L7.704 13.643L6.46527 11.0403C6.31211 10.7167 5.98625 10.5103 5.62829 10.5103C5.27035 10.51 4.94421 10.7164 4.79131 11.0401L3.55258 13.643L0.794516 14.0587H0.794237C0.447731 14.1122 0.160376 14.3558 0.0507449 14.6889C-0.0589006 15.022 0.0273101 15.3886 0.274214 15.638L2.28686 17.6724L1.81062 20.5527C1.74952 20.9033 1.8946 21.2579 2.18391 21.4652C2.4735 21.6725 2.856 21.6956 3.16845 21.5246L5.62826 20.1838L8.08807 21.5246H8.08779C8.39551 21.694 8.7727 21.6733 9.05976 21.4713L9.05984 21.4713ZM5.62828 18.9002C5.47372 18.9002 5.32139 18.9392 5.18553 19.0132L3.14782 20.1241L3.54426 17.7265L3.54454 17.7268C3.59336 17.4308 3.49767 17.1295 3.28731 16.916L1.58049 15.1908L3.91281 14.8395C4.21775 14.7932 4.47972 14.5985 4.61196 14.3198L5.62828 12.1841L6.6446 14.3198C6.77684 14.5985 7.03881 14.7932 7.34403 14.8395L9.67578 15.191L7.96917 16.9157C7.75882 17.1292 7.66312 17.4305 7.71194 17.7262L8.10839 20.1244L6.06982 19.0129H6.0701C5.93451 18.939 5.78274 18.9002 5.62818 18.9002L5.62828 18.9002Z" fill="white"/>
<path d="M39.949 14.6808C39.8388 14.3505 39.5526 14.11 39.2083 14.0587L36.4503 13.643L35.2115 11.0403H35.2113C35.0584 10.7167 34.7325 10.5103 34.3743 10.5103C34.0163 10.51 33.6905 10.7164 33.5373 11.0401L32.2986 13.643L29.5405 14.0587C29.194 14.1122 28.9066 14.3558 28.797 14.6889C28.6871 15.022 28.7733 15.3886 29.0202 15.638L31.0328 17.6727L30.5566 20.5526H30.5569C30.4955 20.9033 30.6406 21.2579 30.9302 21.4652C31.2195 21.6725 31.6023 21.6956 31.9144 21.5246L34.3742 20.1838L36.8341 21.5246C37.1465 21.694 37.5282 21.6703 37.8172 21.4632C38.106 21.2565 38.2516 20.9028 38.1919 20.5526L37.7157 17.6724L39.7283 15.638C39.978 15.3869 40.0637 15.0159 39.949 14.6808L39.949 14.6808ZM36.7153 16.9158C36.505 17.1292 36.4095 17.4305 36.4581 17.7263L36.8545 20.1245L34.816 19.013H34.8162C34.5406 18.8623 34.2072 18.8626 33.9318 19.0133L31.8941 20.1242L32.2906 17.7266V17.7269C32.3394 17.4309 32.2437 17.1296 32.0333 16.9161L30.3267 15.1909L32.659 14.8394V14.8396C32.9637 14.7933 33.2257 14.5986 33.3579 14.3199L34.3742 12.1843L35.3906 14.3199C35.5228 14.5986 35.785 14.7933 36.09 14.8396L38.4217 15.1912L36.7153 16.9158Z" fill="white"/>
<path d="M16.6599 7.16243L16.1837 10.0424C16.1226 10.3931 16.2677 10.748 16.557 10.9552C16.8466 11.1625 17.2291 11.1854 17.5415 11.0147L20.0013 9.6736L22.4612 11.0144V11.0147C22.7733 11.184 23.1553 11.16 23.4441 10.9533C23.7331 10.7463 23.8787 10.3928 23.819 10.0424L23.3428 7.1624L25.3554 5.12776C25.6023 4.87862 25.6885 4.51203 25.5789 4.17893C25.4692 3.84582 25.1819 3.60227 24.8351 3.54842L22.077 3.13273L20.8383 0.530079C20.6854 0.206457 20.3593 0 20.0013 0C19.6434 0 19.3175 0.206449 19.1644 0.529801L17.9256 3.13274L15.1676 3.54843C14.8208 3.60227 14.5337 3.84583 14.4238 4.17894C14.3141 4.51206 14.4004 4.87864 14.6473 5.12777L16.6599 7.16243ZM18.2859 4.32931H18.2862C18.5908 4.28299 18.8528 4.08826 18.9851 3.80983L20.0014 1.67392L21.0177 3.80955C21.1499 4.08825 21.4122 4.28327 21.7171 4.3293L24.0489 4.68055L22.3423 6.40551V6.40579C22.1319 6.61921 22.0362 6.92024 22.085 7.21598L22.4815 9.61416L20.4429 8.50271H20.4432C20.1676 8.35233 19.8342 8.35233 19.5585 8.50326L17.5208 9.61422L17.9172 7.21661H17.9175C17.9663 6.92089 17.8706 6.61958 17.6603 6.40584L15.9537 4.6806L18.2859 4.32931Z" fill="white"/>
<path d="M3.28975 5.40376L3.01105 7.0883C2.96027 7.39547 3.08917 7.70458 3.34276 7.88479C3.59664 8.06529 3.93087 8.0851 4.20424 7.93612L5.62845 7.1597L7.05322 7.93641H7.05294C7.32635 8.0851 7.66086 8.06502 7.91443 7.88451C8.16803 7.70429 8.29664 7.39489 8.24558 7.08774L7.96716 5.40378L9.14253 4.21583V4.21555C9.35791 3.99766 9.43296 3.6771 9.33614 3.38614C9.23961 3.09544 8.98797 2.88313 8.68471 2.83737L7.08445 2.59605L6.36353 1.08142C6.2285 0.79769 5.94254 0.617188 5.62839 0.617188C5.31425 0.616909 5.02801 0.79769 4.89297 1.08142L4.17233 2.59633L2.57207 2.83766H2.57179C2.26881 2.88341 2.01689 3.09545 1.92036 3.38643C1.82382 3.67741 1.89887 3.99797 2.11453 4.21613L3.28975 5.40376ZM4.59069 3.78394C4.85852 3.74404 5.08896 3.5733 5.2053 3.32863L5.62853 2.43922L6.05203 3.32891H6.05175C6.16781 3.57331 6.39798 3.74377 6.66553 3.78394L7.67099 3.93544L6.92357 4.69093C6.74056 4.87674 6.65742 5.13898 6.69955 5.39649L6.86973 6.42459L6.01825 5.96036C5.77553 5.82728 5.48148 5.82728 5.23876 5.96036L4.38728 6.42459L4.55746 5.39649V5.39621C4.59959 5.1387 4.51617 4.87618 4.33288 4.69037L3.58603 3.93545L4.59069 3.78394Z" fill="white"/>
<path d="M32.0357 5.40406L31.757 7.08859C31.7062 7.39576 31.8351 7.70488 32.089 7.88508C32.3426 8.06558 32.6771 8.08539 32.9503 7.93641L34.3745 7.16L35.7993 7.9367C36.0727 8.0854 36.4069 8.06531 36.6605 7.88481C36.9141 7.70458 37.0427 7.39518 36.992 7.08803L36.7133 5.40379L37.8886 4.21584C38.1043 3.99795 38.1791 3.67739 38.0825 3.38643C37.986 3.09544 37.7341 2.88341 37.4311 2.83766L35.8308 2.59633L35.1099 1.08142V1.0817C34.9749 0.797968 34.6886 0.617466 34.3745 0.617188C34.0603 0.617188 33.7744 0.797968 33.6393 1.0817L32.9184 2.59661L31.3182 2.83794V2.83766C31.0149 2.88369 30.7633 3.09572 30.6664 3.38671C30.5699 3.67769 30.645 3.99825 30.8606 4.2164L32.0357 5.40406ZM33.3367 3.78423C33.6048 3.74433 33.8352 3.57359 33.9513 3.32892L34.3745 2.43952L34.798 3.32921C34.9141 3.5736 35.144 3.74406 35.4115 3.78424L36.417 3.93573L35.6695 4.69122H35.6698C35.4868 4.87703 35.4034 5.13927 35.4455 5.39678L35.6157 6.42488L34.7642 5.96065C34.5215 5.82757 34.2274 5.82757 33.985 5.96065L33.1335 6.42488L33.3037 5.39678L33.3034 5.3965C33.3456 5.13899 33.2621 4.87647 33.0788 4.69066L32.332 3.93574L33.3367 3.78423Z" fill="white"/>
<path d="M28.3832 17.198L23.3025 16.4871L21.0335 12.0601C20.901 11.8082 20.6806 11.6135 20.4141 11.5128C20.148 11.4118 19.8539 11.4118 19.5878 11.5128C19.3214 11.6135 19.101 11.8082 18.9684 12.0601L16.6994 16.4871L11.6187 17.198C11.405 17.2256 11.2033 17.3132 11.0373 17.4507C10.8713 17.5885 10.748 17.7704 10.6813 17.9755C10.6158 18.1764 10.6093 18.392 10.6629 18.5965C10.7162 18.801 10.8272 18.9857 10.9826 19.1291L14.6485 22.5702L14.2889 24.5895C14.4532 24.7273 14.6033 24.8813 14.7364 25.0495L15.7279 23.6345L15.8903 22.7225V22.7222C15.9564 22.3509 15.8292 21.9711 15.5527 21.7145L12.0124 18.3918L16.9209 17.7049C17.2931 17.6544 17.617 17.4262 17.79 17.0931L20.001 12.7796L22.2119 17.0931C22.3846 17.4262 22.7088 17.6544 23.0807 17.7049L27.9893 18.3918L24.4495 21.7143C24.1727 21.971 24.0455 22.3504 24.1114 22.722L24.9508 27.4346L22.2756 26.0801C22.5273 26.5089 22.671 26.9927 22.6941 27.4895C22.8696 27.617 23.0311 27.7632 23.1759 27.925L24.5491 28.6203H24.5489C24.7419 28.7188 24.9587 28.7617 25.1746 28.7442C25.3906 28.7269 25.5973 28.6499 25.7722 28.5215C25.9424 28.3993 26.0746 28.2317 26.1536 28.0375C26.2325 27.8433 26.2549 27.6307 26.218 27.4243L25.3535 22.5699L29.0197 19.1288V19.1291C29.1751 18.9857 29.2858 18.801 29.3391 18.5965C29.3927 18.392 29.3863 18.1763 29.3207 17.9755C29.254 17.7704 29.1307 17.5885 28.9647 17.4507C28.7987 17.3131 28.597 17.2255 28.3833 17.1979L28.3832 17.198Z" fill="white"/>
<path d="M23.2902 31.1922C23.0873 31.0474 22.8569 30.9459 22.6133 30.8937C22.7846 30.4116 22.747 29.8799 22.5093 29.4271C22.2716 28.974 21.8556 28.6409 21.3615 28.5081C21.5245 28.0313 21.4843 27.5085 21.2499 27.0627C21.0156 26.6166 20.608 26.2868 20.1231 26.1504L21.5368 24.1051L21.5365 24.1054C21.8046 23.709 21.9064 23.2235 21.8208 22.7528C21.7348 22.2822 21.4681 21.864 21.0776 21.5878C20.6842 21.3049 20.1934 21.1925 19.7161 21.2759C19.2505 21.3563 18.8373 21.6213 18.5695 22.0105L14.3894 28.057C14.3774 27.3855 14.1855 26.7293 13.8331 26.1576C13.5561 25.7553 13.1276 25.4827 12.646 25.4018C12.2398 25.2928 11.806 25.3678 11.4601 25.6069C10.7258 26.1046 10.357 27.2206 10.3321 29.0181L9.82772 35.3314H9.828C9.59114 35.2371 9.33084 35.2187 9.08308 35.2786C8.83562 35.3383 8.61243 35.4734 8.44447 35.665L7.504 36.7311H7.50428C7.28137 36.9841 7.16977 37.3164 7.19489 37.6525C7.21999 37.9887 7.37957 38.3006 7.63764 38.5177L9.11848 39.7608C9.38324 39.9818 9.7769 39.9463 9.99782 39.6816C10.2188 39.4168 10.1833 39.0232 9.91886 38.8022L8.43802 37.5591L9.37849 36.4928L13.3803 39.8521H13.38C13.6448 40.0727 14.0381 40.0373 14.2591 39.7728C14.4801 39.5086 14.4449 39.115 14.1804 38.894L11.0066 36.2296L11.5763 29.0967C11.5774 29.0828 11.5783 29.0686 11.5783 29.0546C11.6006 27.217 12.0132 26.7541 12.1393 26.6562C12.3514 26.4913 12.6892 26.7025 12.817 26.8824C13.2904 27.5475 13.1858 29.2307 13.0067 30.1477L13.007 30.1474C12.957 30.4404 13.1141 30.7297 13.387 30.8474C13.7086 30.9537 14.0596 30.8086 14.2127 30.5065L19.5936 22.723C19.7741 22.4837 20.1125 22.4323 20.3561 22.607C20.6133 22.783 20.6825 23.1323 20.512 23.3932L15.0495 31.2966C14.8533 31.5804 14.9237 31.9693 15.2068 32.1665C15.5132 32.3576 15.9149 32.2837 16.1334 31.9961L19.2042 27.5554C19.2826 27.441 19.4042 27.3632 19.5409 27.3398C19.6902 27.3141 19.8436 27.3504 19.9658 27.4396C20.223 27.616 20.292 27.9652 20.1212 28.2261L17.0138 32.7094C16.9193 32.8453 16.8821 33.0132 16.9114 33.1762C16.9407 33.3394 17.0334 33.4839 17.1695 33.5785C17.3054 33.6731 17.4736 33.7096 17.6365 33.6803C17.7995 33.6507 17.9443 33.5578 18.0386 33.4217L20.4948 29.8802V29.8799C20.5724 29.7873 20.6803 29.7248 20.7994 29.7036C20.949 29.6779 21.1024 29.7139 21.2252 29.8032C21.4824 29.9798 21.5516 30.3299 21.3806 30.591L18.9865 34.0525C18.8814 34.2332 18.8616 34.4509 18.9316 34.6475C19.0019 34.8445 19.1551 35.0002 19.3506 35.0736C19.6146 35.1528 19.8997 35.059 20.0654 34.8389L21.8063 32.3269C21.885 32.2131 22.0063 32.1355 22.1428 32.1124C22.2923 32.0867 22.446 32.1227 22.5688 32.212C22.8271 32.3897 22.8949 32.7418 22.7214 33.0029L18.6403 39.0217V39.022C18.5471 39.1587 18.512 39.3267 18.5427 39.4893C18.5733 39.652 18.6676 39.7957 18.8043 39.8888C19.0889 40.0827 19.477 40.0094 19.6712 39.7248L23.7492 33.7104C24.017 33.3139 24.1191 32.8284 24.0332 32.3578C23.9475 31.8871 23.6808 31.4687 23.2903 31.1925L23.2902 31.1922Z" fill="white"/>
</svg>
