<svg width="38" height="38" viewBox="0 0 38 38" fill="none" xmlns="http://www.w3.org/2000/svg">
<path d="M21.4169 34.8918C21.3442 34.4227 21.1068 33.9951 20.7471 33.6856C20.3874 33.376 19.9294 33.2048 19.4547 33.2027H16.5248V32.5793C16.9847 32.411 17.3552 32.0608 17.549 31.611C17.7425 31.1612 17.7425 30.6515 17.549 30.2017C17.3553 29.7519 16.9847 29.4018 16.5248 29.2335V15.243C16.955 15.1264 17.3438 14.8913 17.6468 14.5642C17.9497 14.2372 18.1544 13.8316 18.2376 13.3935C20.7431 13.7439 22.824 14.6313 24.4241 16.0503C24.8993 16.4691 25.5042 16.7111 26.1368 16.736C26.6229 16.7365 27.0976 16.5907 27.4997 16.3175C27.9015 16.0442 28.2119 15.6564 28.39 15.2043C28.4544 14.9204 28.3033 14.6318 28.0335 14.5228C27.7637 14.4136 27.4546 14.5162 27.3035 14.7651C27.2129 14.9967 27.0544 15.1955 26.849 15.336C26.6436 15.4762 26.4005 15.5515 26.1517 15.5518C25.809 15.5268 25.4835 15.3901 25.2256 15.1627C23.3941 13.539 21.0132 12.5413 18.1608 12.1941C17.9024 11.4533 17.2946 10.8877 16.5371 10.6833V9.89054C16.8491 9.76888 17.117 9.55578 17.306 9.27934C17.495 9.00289 17.5965 8.67582 17.5968 8.34108C17.5968 7.63154 16.8011 6.47378 16.4568 6.01076C16.3465 5.8618 16.1732 5.77274 15.9879 5.77036C15.8024 5.76399 15.6253 5.84828 15.513 5.99591C15.1448 6.46187 14.2901 7.6228 14.2901 8.34394H14.2898C14.2903 8.67896 14.3916 9.00576 14.5806 9.2822C14.7695 9.55864 15.0378 9.77174 15.3497 9.8934V10.6772C14.592 10.8762 13.981 11.436 13.7171 12.1734C10.8644 12.5296 8.48342 13.527 6.65229 15.1419C6.39413 15.3693 6.06891 15.5058 5.72597 15.5307C5.47708 15.5307 5.2343 15.4555 5.02892 15.3153C4.82324 15.1748 4.66501 14.9757 4.57436 14.7441C4.44184 14.4576 4.10841 14.3248 3.81523 14.4417C3.52209 14.5588 3.3718 14.8845 3.47279 15.1836C3.65116 15.6355 3.96153 16.0235 4.36335 16.2967C4.76516 16.57 5.24014 16.7158 5.72596 16.7152C6.35889 16.6903 6.96372 16.4481 7.43896 16.0296C9.03905 14.6105 11.1229 13.7232 13.6255 13.3728H13.6252C13.7084 13.8106 13.9133 14.2165 14.216 14.5435C14.5189 14.8706 14.9077 15.1057 15.3382 15.222V29.2335C14.8781 29.4018 14.5078 29.752 14.314 30.2018C14.1203 30.6516 14.1203 31.1613 14.314 31.6111C14.5078 32.0609 14.8781 32.411 15.3382 32.5793V33.2027H12.5062C12.0325 33.2046 11.575 33.375 11.2156 33.6832C10.856 33.9918 10.6179 34.4179 10.544 34.8858C9.90576 34.9295 9.30806 35.2142 8.87204 35.6822C8.43604 36.1503 8.19432 36.7665 8.19591 37.4061C8.19591 37.5635 8.25846 37.7146 8.36978 37.8259C8.4811 37.9372 8.63218 37.9998 8.78962 37.9998H23.0773C23.2347 37.9998 23.3858 37.9372 23.4971 37.8259C23.6084 37.7146 23.671 37.5635 23.671 37.4061C23.6723 36.7827 23.443 36.1807 23.0269 35.7167C22.6108 35.2523 22.0378 34.9584 21.4178 34.8919L21.4169 34.8918ZM15.3523 30.9078C15.3523 30.6677 15.497 30.4512 15.7189 30.3595C15.9407 30.2675 16.1959 30.3184 16.3658 30.488C16.5355 30.6579 16.5864 30.9131 16.4944 31.135C16.4027 31.3568 16.1861 31.5016 15.946 31.5016C15.6181 31.5016 15.3523 31.2357 15.3523 30.9078ZM15.946 7.40314V7.4034C16.1445 7.69072 16.2951 8.00851 16.3913 8.34431C16.3913 8.60168 16.1827 8.81027 15.9251 8.81027C15.6677 8.81027 15.4591 8.60168 15.4591 8.34431C15.5702 8.00558 15.7366 7.68752 15.9518 7.4034L15.946 7.40314ZM14.7586 12.9601V12.9604C14.7655 12.6542 14.8935 12.3632 15.114 12.1509C15.3348 11.9383 15.6303 11.8217 15.9367 11.8265C16.2429 11.8312 16.5349 11.9566 16.7489 12.1758C16.963 12.3947 17.082 12.6895 17.0796 12.9959C17.0773 13.302 16.954 13.5949 16.7367 13.8109C16.5193 14.0267 16.2257 14.1478 15.9192 14.1478C15.6091 14.1422 15.3136 14.0139 15.0981 13.7905C14.8829 13.5673 14.7649 13.2676 14.7705 12.9575L14.7586 12.9601ZM9.51911 36.8129C9.62751 36.59 9.79608 36.4021 10.006 36.2703C10.2159 36.1386 10.4587 36.0684 10.7065 36.0678H12.0572C12.385 36.0678 12.6509 35.802 12.6509 35.4741C12.6509 35.1463 12.385 34.8804 12.0572 34.8804H11.7603C11.8857 34.5865 12.1738 34.3951 12.4935 34.3935H19.4402C19.762 34.3927 20.053 34.5844 20.1794 34.8804H18.1608C17.833 34.8804 17.5671 35.1463 17.5671 35.4741C17.5671 35.802 17.833 36.0678 18.1608 36.0678H21.1591C21.4069 36.0681 21.6497 36.1381 21.8599 36.2698C22.0698 36.4015 22.2384 36.5897 22.3465 36.8129H9.51911Z" fill="white"/>
<path d="M11.3778 29.204C11.4833 29.0214 11.4838 28.7964 11.3794 28.6132C11.2749 28.4301 11.0812 28.3159 10.8702 28.3135H0.587182C0.376202 28.3159 0.182457 28.4301 0.0780256 28.6132C-0.0266705 28.7964 -0.0258698 29.0214 0.0796159 29.204C1.09184 30.8842 3.30952 31.9706 5.71984 31.9706C8.13015 31.9708 10.3656 30.8754 11.3778 29.204H11.3778ZM5.73754 30.7832V30.7834C4.33992 30.8155 2.97521 30.3588 1.87844 29.4921H9.59664C8.4975 30.3607 7.12906 30.8176 5.72852 30.7834L5.73754 30.7832Z" fill="white"/>
<path d="M1.40076 27.6866C1.6992 27.8205 2.0496 27.6877 2.18452 27.3898L5.72872 19.3513L9.27027 27.3843C9.3307 27.5328 9.44865 27.6504 9.59734 27.7106C9.74577 27.7708 9.91248 27.7684 10.0593 27.7037C10.2059 27.6393 10.3204 27.5182 10.3763 27.3679C10.4325 27.2176 10.4254 27.0512 10.3567 26.9064L6.27206 17.6412C6.17718 17.426 5.96407 17.2871 5.72871 17.2871C5.49362 17.2871 5.28052 17.426 5.18563 17.6412L1.0978 26.9031C1.03393 27.0472 1.02995 27.2108 1.08694 27.3579C1.14366 27.5047 1.25657 27.6232 1.40075 27.6868L1.40076 27.6866Z" fill="white"/>
<path d="M31.8867 28.6015C31.7801 28.4171 31.5829 28.3039 31.3701 28.3047H21.0871C20.8761 28.3071 20.6824 28.421 20.5779 28.6042C20.4735 28.7876 20.474 29.0126 20.5795 29.1953C21.5917 30.8754 23.8094 31.9618 26.2197 31.9618C28.6301 31.9618 30.8565 30.8753 31.86 29.1953C31.9745 29.0163 31.9845 28.79 31.8867 28.6015H31.8867ZM26.2287 30.7805C24.8311 30.8126 23.4663 30.3556 22.3696 29.4892H30.0878C28.991 30.3557 27.626 30.8126 26.2287 30.7805Z" fill="white"/>
<path d="M26.2291 17.2852C25.994 17.2852 25.7809 17.4235 25.6857 17.6385L21.5982 26.9003C21.5295 27.0453 21.5224 27.2117 21.5786 27.362C21.6345 27.512 21.749 27.6332 21.8956 27.6978C22.0424 27.7625 22.2091 27.7649 22.3575 27.7047C22.5062 27.6446 22.6242 27.5269 22.6846 27.3782L26.2291 19.3485L29.7735 27.3816L29.7733 27.3818C29.9061 27.6835 30.2583 27.8202 30.56 27.6874C30.7049 27.6238 30.8186 27.5051 30.8759 27.3575C30.9331 27.2101 30.9297 27.0458 30.8658 26.9008L26.7722 17.6389C26.677 17.424 26.4639 17.2856 26.2291 17.2856L26.2291 17.2852Z" fill="white"/>
<path d="M37.9912 8.4303C37.9809 8.37968 37.9639 8.33091 37.9409 8.28479L37.9231 8.25219H37.9228C37.8971 8.20554 37.8653 8.16261 37.8279 8.12444L29.875 0.177579C29.8379 0.140472 29.796 0.108669 29.7504 0.0824301L29.7178 0.0646718C29.6722 0.0376367 29.6232 0.0166982 29.5723 0.00238543C29.5368 -0.000795144 29.501 -0.000795144 29.4655 0.00238543H11.6543C11.3261 0.00238543 11.0605 0.268231 11.0605 0.596093V11.2828C11.0605 11.6107 11.3261 11.8765 11.6543 11.8765C11.9821 11.8765 12.248 11.6107 12.248 11.2828V1.1898H28.8718V8.53956C28.8718 8.697 28.9343 8.84808 29.0456 8.9594C29.157 9.07071 29.308 9.13327 29.4655 9.13327H36.8037V36.8123H11.657C11.3291 36.8123 11.0633 37.0781 11.0633 37.406C11.0633 37.7338 11.3291 37.9997 11.657 37.9997H37.3974C37.5549 37.9997 37.7059 37.9371 37.8173 37.8258C37.9286 37.7145 37.9911 37.5634 37.9911 37.406V8.53956C37.9946 8.50299 37.9946 8.46641 37.9911 8.42983L37.9912 8.4303ZM30.0593 7.94633V2.03022L35.9757 7.9466L30.0593 7.94633Z" fill="white"/>
<path d="M11.6562 32.805C11.8136 32.805 11.9647 32.7424 12.076 32.6311C12.1874 32.5198 12.2499 32.3687 12.2499 32.2113V30.727C12.2499 30.3991 11.9841 30.1333 11.6562 30.1333C11.3283 30.1333 11.0625 30.3991 11.0625 30.727V32.2113C11.0625 32.3687 11.1251 32.5198 11.2364 32.6311C11.3477 32.7424 11.4988 32.805 11.6562 32.805Z" fill="white"/>
<path d="M11.6562 27.7757C11.8136 27.7757 11.9647 27.7131 12.076 27.6018C12.1874 27.4905 12.2499 27.3394 12.2499 27.1819V15.1416C12.2499 14.8137 11.9841 14.5479 11.6562 14.5479C11.3283 14.5479 11.0625 14.8137 11.0625 15.1416V27.1819C11.0625 27.3394 11.1251 27.4905 11.2364 27.6018C11.3477 27.7131 11.4988 27.7757 11.6562 27.7757Z" fill="white"/>
</svg>
